<?xml version="1.0" encoding="UTF-8" standalone="no"?>
<svg xmlns:rdf="http://www.w3.org/1999/02/22-rdf-syntax-ns#" xmlns="http://www.w3.org/2000/svg" contentScriptType="text/ecmascript" viewBox="0 0 122.87553 122.87202" height="122.87" width="122.88" contentStyleType="text/css" version="1.1" zoomAndPan="magnify" preserveAspectRatio="xMidYMid meet" xmlns:cc="http://creativecommons.org/ns#" xmlns:xlink="http://www.w3.org/1999/xlink" xmlns:dc="http://purl.org/dc/elements/1.1/">
 <defs>
  <linearGradient id="linearGradient21275" y2="225.62" gradientUnits="userSpaceOnUse" x2="427.48" gradientTransform="matrix(.28060 0 0 -.29566 308.73 174.93)" y1="37.869" x1="427.48">
   <stop offset="0"/>
   <stop stop-opacity="0" offset="1"/>
  </linearGradient>
  <linearGradient id="linearGradient3016" y2="19.034" xlink:href="#linearGradient21275" gradientUnits="userSpaceOnUse" x2="144.72" gradientTransform="matrix(1.4028 0 0 1.4015 -364.62 -8.6578)" y1="100.68" x1="155.86"/>
  <linearGradient id="linearGradient3019" y2="72.949" xlink:href="#linearGradient21275" gradientUnits="userSpaceOnUse" x2="243.76" gradientTransform="matrix(1 0 0 .99997 -379.55 3.9653)" y1="125.5" x1="244.05"/>
  <linearGradient id="linearGradient3022" y2="176.39" gradientUnits="userSpaceOnUse" x2="321.7" gradientTransform="matrix(1 0 0 .99997 -430.02 -122.58)" y1="138.16" x1="321.44">
   <stop stop-color="#FFF" offset="0"/>
   <stop stop-color="#FFF" stop-opacity="0" offset="1"/>
  </linearGradient>
  <linearGradient id="linearGradient3030" y2="100.33" gradientUnits="userSpaceOnUse" x2="248.72" gradientTransform="matrix(1 0 0 .99997 -366.62 -6.6579)" y1="-14.811" x1="248.72">
   <stop stop-color="#FFF" offset="0"/>
   <stop stop-opacity="0" stop-color="#FFF" offset="1"/>
  </linearGradient>
 </defs>
 <path id="bgColor00" fill="#003380" d="m61.44 1.7509c-32.94 0-59.645 26.68-59.645 59.589s26.704 59.59 59.645 59.59h-0.13c32.94 0 59.647-26.68 59.647-59.59 0-32.909-26.704-59.589-59.647-59.589h0.13z"/>
 <path opacity=".6" fill="url(#linearGradient3030)" d="m56.45 3.7088c-18.241 0-33.029 14.775-33.029 32.999s16.788 32.999 35.029 32.999h7.2901c18.241 0 35.03-14.775 35.03-32.999s-14.788-32.999-33.03-32.999h-11.29z"/>
 <path fill="#333" d="m61.44 1.7509c-32.94 0-59.645 26.68-59.645 59.589s26.704 59.59 59.645 59.59h-0.12584c32.94 0 59.647-26.68 59.647-59.59 0-32.909-26.704-59.589-59.647-59.589h0.12584zm-22.123 111.92c-13.903-5.83-23.932-16.767-30.251-30.226-6.1187-14.397-5.4388-29.777-0.0003-44.205 5.8383-13.9 16.788-23.914 30.251-30.223 7.005-2.9602 14.448-4.4611 22.123-4.4611h-0.12584c7.6746 0 15.118 1.501 22.123 4.4609 13.902 5.8286 23.933 16.764 30.251 30.223 6.1195 14.399 5.4392 29.776 0 44.206-5.8388 13.898-16.789 23.914-30.251 30.223-7.0055 2.9599-14.45 4.4622-22.123 4.4622h0.12583c-7.6885 0.16032-15-1.7813-22.123-4.4622z"/>
 <path fill-opacity=".55" fill="#333" d="m61.5 0c-33.931 0-61.5 27.532-61.5 61.436 0 33.903 27.569 61.436 61.501 61.436h-0.125c33.931 0 61.501-27.531 61.501-61.436 0-33.901-27.571-61.434-61.505-61.434h0.125zm0 6.4998h-0.125c7.439 0 14.629 1.4175 21.406 4.2811 13.416 5.6247 23.117 16.15 29.281 29.249 0.0101 0.0214 0.0212 0.0411 0.0312 0.0625 5.8775 13.88 5.243 28.685-0.0312 42.718-0.008 0.0218-0.023 0.0407-0.0312 0.0625-5.6407 13.377-16.169 23.04-29.25 29.187-0.009 0.004-0.0222-0.004-0.0312 0-0.013 0.006-0.0182 0.0251-0.0312 0.0312-6.763 2.8475-13.935 4.2811-21.344 4.2811h0.125c-0.0104-0.00009-0.0208-0.00009-0.0312 0-7.3314 0.15286-14.387-1.687-21.375-4.3124-0.0217-0.009-0.0408-0.0221-0.0625-0.0312-13.383-5.6307-23.064-16.141-29.219-29.218-0.004-0.009 0.004-0.0221 0-0.0312-0.006-0.0131-0.0251-0.0182-0.0312-0.0312-5.8764-13.879-5.2422-28.686 0.0312-42.718 0.009-0.0217 0.0221-0.0408 0.0312-0.0625 5.6399-13.379 16.168-23.041 29.25-29.187 0.0213-0.01 0.0412-0.0212 0.0625-0.0312 6.7588-2.8455 13.928-4.2499 21.344-4.2499v-0.00015z"/>
 <path opacity=".77404" fill="url(#linearGradient3022)" d="m61.44 3.7508c-32.94 0-59.645 26.68-59.645 59.589 0 8.6032 26.704-0.40767 59.645-0.40767h-0.13c32.94 0 59.647 14.925 59.647 0.40767 0-32.909-26.704-59.589-59.647-59.589h0.13z"/>
 <path opacity=".5" fill="url(#linearGradient3019)" d="m1.7996 69.682c4.0673 28.953 28.96 51.248 59.063 51.248h-0.13c30.101 0 54.965-22.295 59.032-51.248h-117.97 0.006z"/>
 <path opacity=".25" fill="url(#linearGradient3016)" d="m107.98 30.829c3.8282 7.5498 5.9997 16.079 5.9997 25.123 0 30.757-24.954 55.687-55.739 55.687h6.5301c-30.782 0-55.739-24.931-55.739-55.687 0-9.0353 2.1673-17.559 5.9913-25.106l-1.993-3.337c-5.8381 9.2097-9.233 20.12-9.233 31.831 0 32.911 26.704 59.59 59.647 59.59h-4.13c32.941 0 59.647-26.68 59.647-59.59 0-11.42-3.2207-22.087-8.7969-31.152l-0.1827 2.6403-1.9997-0.0008z"/>
 <path fill-opacity=".3" fill="#333" d="m61.88 3.7078c-21.347 0-40.431 11.075-50.303 27.952 0.3535 0.35317 1.2863 1.3749 2.1771 0.68392 11.608-16.875 28.164-23.438 48.125-24.569h-0.55001c20.741-0.18029 35.65 8.9424 48.123 24.569 0.89357 0.69092 1.825-0.33075 2.1785-0.68392-9.87-16.877-28.949-27.952-50.299-27.952h0.54941z"/>
</svg>
