<?xml version="1.0" encoding="UTF-8" standalone="no"?>
<svg xmlns="http://www.w3.org/2000/svg" xml:space="preserve" height="87.3" width="87.3" version="1.1" viewBox="0 0 87.3 87.3">
	<path opacity=".15" d="m87.302 82.729c0 2.524-2.049 4.571-4.573 4.571h-78.157c-2.526 0-4.573-2.047-4.573-4.571v-78.158c0-2.525 2.047-4.573 4.573-4.573h78.157c2.524 0 4.573 2.047 4.573 4.573v78.158z"/>
	<path opacity=".4" d="m86.77 82.251c0 2.494-2.022 4.519-4.519 4.519h-77.203c-2.495 0-4.517-2.022-4.517-4.519v-77.203c0-2.495 2.022-4.517 4.517-4.517h77.204c2.496 0 4.519 2.022 4.519 4.517v77.203z"/>
	<path d="m86.224 81.764c0 2.463-1.997 4.461-4.46 4.461h-76.227c-2.463 0-4.46-1.998-4.46-4.461v-76.228c0-2.463 1.997-4.46 4.46-4.46h76.227c2.463 0 4.46 1.997 4.46 4.46v76.228z"/>
<path id="bgColor00" fill="#0ca0ea" d="m85.632 81.233c0 2.431-1.971 4.397-4.398 4.397h-75.167c-2.429 0-4.398-1.969-4.398-4.397v-75.165c0-2.429 1.969-4.398 4.398-4.398h75.166c2.429 0 4.397 1.969 4.397 4.398v75.165h0.002z"/>
<linearGradient id="SVGID_1_" y2="-326.18" gradientUnits="userSpaceOnUse" x2="306" gradientTransform="matrix(1 0 0 -1 -262.35 -265.35)" y1="-268.43" x1="306">
	<stop stop-color="#fff" offset="0"/>
	<stop stop-color="#fff" stop-opacity="0" offset=".97580"/>
</linearGradient>
<path opacity=".75" fill="url(#SVGID_1_)" d="m83.727 42.173v-34.283c0-2.383-1.94-4.316-4.34-4.316h-71.473c-2.397 0-4.34 1.933-4.34 4.316v34.283s9.172 6.909 40.076 6.909 40.077-6.909 40.077-6.909z"/>
<radialGradient id="SVGID_2_" gradientUnits="userSpaceOnUse" cy="-1035.8" cx="774.39" gradientTransform="matrix(.3665 0 0 -.3665 -239.43 -312.75)" r="110.2">
	<stop stop-color="#fff" offset="0"/>
	<stop stop-color="#fff" stop-opacity="0" offset="1"/>
</radialGradient>
<path opacity=".25" fill="url(#SVGID_2_)" d="m85.63 81.232c0 2.43-1.969 4.398-4.397 4.398h-75.166c-2.43 0-4.398-1.969-4.398-4.398v-75.165c0-2.429 1.969-4.398 4.398-4.398h75.165c2.43 0 4.398 1.969 4.398 4.398v75.165z"/>
<linearGradient id="SVGID_3_" y2="-351.87" gradientUnits="userSpaceOnUse" x2="306" gradientTransform="matrix(1 0 0 -1 -262.35 -265.35)" y1="-266.58" x1="306">
	<stop stop-opacity=".5" offset="0"/>
	<stop stop-opacity="0.8" offset="1"/>
</linearGradient>
<path opacity=".8" fill="url(#SVGID_3_)" d="m81.233 1.669h-75.166c-2.429 0-4.398 1.969-4.398 4.398v75.166c0 2.431 1.969 4.397 4.398 4.397h75.166c2.429 0 4.397-1.969 4.397-4.397v-75.166c0.002-2.429-1.968-4.398-4.397-4.398zm2.481 77.848c0 2.316-1.879 4.195-4.197 4.195h-71.733c-2.318 0-4.197-1.879-4.197-4.195v-71.734c0-2.318 1.879-4.197 4.197-4.197h71.733c2.318 0 4.197 1.879 4.197 4.197v71.734z"/>
<linearGradient id="SVGID_4_" y2="-349.93" gradientUnits="userSpaceOnUse" x2="306" gradientTransform="matrix(1 0 0 -1 -262.35 -265.35)" y1="-268.51" x1="306">
	<stop stop-opacity="0.24" offset="0"/>
	<stop stop-opacity=".98440" offset=".97940"/>
	<stop offset="1"/>
</linearGradient>
<path opacity=".6" fill="url(#SVGID_4_)" d="m79.527 3.574h-71.754c-2.319 0-4.199 1.879-4.199 4.198v71.755c0 2.318 1.88 4.198 4.199 4.198h71.754c2.238 0 4.199-1.88 4.199-4.198v-71.755c0.001-2.318-1.879-4.198-4.199-4.198zm2.969 74.851c0 2.25-1.82 4.07-4.068 4.07h-69.554c-2.248 0-4.07-1.822-4.07-4.07v-69.551c0-2.248 1.822-4.07 4.07-4.07h69.553c2.248 0 4.068 1.822 4.068 4.07v69.551z"/>
<linearGradient id="SVGID_5_" y2="-348.67" gradientUnits="userSpaceOnUse" x2="306" gradientTransform="matrix(1 0 0 -1 -262.35 -265.35)" y1="-269.75" x1="306">
	<stop stop-opacity="0.24" offset="0"/>
	<stop stop-opacity=".98440" offset=".97940"/>
	<stop offset="1"/>
</linearGradient>
<path opacity=".3" fill="url(#SVGID_5_)" d="m78.427 4.803h-69.553c-2.248 0-4.07 1.822-4.07 4.069v69.555c0 2.246 1.822 4.068 4.07 4.068h69.553c2.248 0 4.07-1.822 4.07-4.068v-69.553c0.001-2.249-1.822-4.071-4.07-4.071zm2.877 72.557c0 2.177-1.766 3.942-3.943 3.942h-67.421c-2.178 0-3.945-1.766-3.945-3.942v-67.42c0-2.179 1.767-3.945 3.945-3.945h67.42c2.179 0 3.943 1.767 3.943 3.945l0.001 67.42z"/>
</svg>
