<?xml version="1.0" encoding="UTF-8" standalone="no"?>
<svg xmlns="http://www.w3.org/2000/svg" xml:space="preserve" height="87.3" width="87.3" version="1.1" viewBox="0 0 87.3 87.3">
	<path opacity=".15" d="m87.302 82.729c0 2.525-2.048 4.572-4.573 4.572h-78.157c-2.526 0-4.573-2.047-4.573-4.572v-78.158c0-2.525 2.047-4.573 4.573-4.573h78.157c2.525 0 4.573 2.047 4.573 4.573v78.158z"/>
	<path opacity=".4" d="m86.77 82.252c0 2.494-2.022 4.518-4.518 4.518h-77.204c-2.495 0-4.517-2.023-4.517-4.518v-77.204c0-2.495 2.022-4.517 4.517-4.517h77.204c2.495 0 4.518 2.022 4.518 4.517v77.204z"/>
	<path d="m86.224 81.764c0 2.463-1.997 4.461-4.46 4.461h-76.227c-2.463 0-4.46-1.998-4.46-4.461v-76.228c0-2.463 1.997-4.46 4.46-4.46h76.227c2.463 0 4.46 1.997 4.46 4.46v76.228z"/>
<path id="bgColor00" fill="#0ca0ea" d="m85.632 81.233c0 2.43-1.97 4.398-4.398 4.398h-75.167c-2.429 0-4.398-1.969-4.398-4.398v-75.165c0-2.429 1.969-4.398 4.398-4.398h75.166c2.429 0 4.398 1.969 4.398 4.398v75.165z"/>
<linearGradient id="SVGID_1_" y2="61.176" gradientUnits="userSpaceOnUse" x2="43.65" y1="2.3198" x1="43.65">
	<stop stop-color="#fff" offset="0"/>
	<stop stop-color="#fff" stop-opacity="0" offset=".97580"/>
</linearGradient>
<path fill="url(#SVGID_1_)" d="m84.265 42.158v-34.936c0-2.429-1.969-4.398-4.397-4.398h-72.434c-2.429 0-4.398 1.969-4.398 4.398v34.936s9.295 7.041 40.614 7.041 40.615-7.041 40.615-7.041z"/>
<radialGradient id="SVGID_2_" gradientUnits="userSpaceOnUse" cy="161.11" cx="58.264" gradientTransform="matrix(.3665 0 0 .3665 22.825 7.8132)" r="110.2">
	<stop stop-color="#fff" offset="0"/>
	<stop stop-color="#fff" stop-opacity="0" offset="1"/>
</radialGradient>
<path opacity=".4" fill="url(#SVGID_2_)" d="m85.427 81.232c0 2.43-1.97 4.398-4.398 4.398h-75.166c-2.429 0-4.398-1.969-4.398-4.398v-75.165c0-2.429 1.969-4.398 4.398-4.398h75.166c2.429 0 4.398 1.969 4.398 4.398v75.165z"/>
<linearGradient id="SVGID_3_" y2="86.524" gradientUnits="userSpaceOnUse" x2="43.65" y1="1.2319" x1="43.65">
	<stop stop-opacity="0.24" offset="0"/>
	<stop stop-opacity=".69050" offset=".97940"/>
	<stop stop-opacity="0.7" offset="1"/>
</linearGradient>
<path fill="url(#SVGID_3_)" d="m81.233 1.669h-75.166c-2.429 0-4.398 1.969-4.398 4.398v75.166c0 2.43 1.969 4.398 4.398 4.398h75.166c2.429 0 4.398-1.969 4.398-4.398v-75.166c0.001-2.429-1.969-4.398-4.398-4.398zm3.11 78.411c0 2.354-1.908 4.262-4.263 4.262h-72.859c-2.354 0-4.263-1.908-4.263-4.262v-72.86c0-2.354 1.909-4.263 4.263-4.263h72.859c2.354 0 4.263 1.908 4.263 4.263v72.86z"/>
<linearGradient id="SVGID_4_" y2="85.208" gradientUnits="userSpaceOnUse" x2="43.65" y1="2.5337" x1="43.65">
	<stop stop-opacity="0.24" offset="0"/>
	<stop stop-opacity=".98440" offset=".97940"/>
	<stop offset="1"/>
</linearGradient>
<path opacity="0.49" fill="url(#SVGID_4_)" d="m80.08 2.958h-72.859c-2.354 0-4.263 1.908-4.263 4.263v72.86c0 2.354 1.909 4.262 4.263 4.262h72.859c2.354 0 4.263-1.908 4.263-4.262v-72.861c0-2.354-1.908-4.262-4.263-4.262zm3.014 76.003c0 2.283-1.85 4.133-4.132 4.133h-70.623c-2.282 0-4.132-1.85-4.132-4.133v-70.623c0-2.282 1.85-4.132 4.132-4.132h70.623c2.282 0 4.132 1.85 4.132 4.132v70.623z"/>
<linearGradient id="SVGID_5_" y2="83.933" gradientUnits="userSpaceOnUse" x2="43.65" y1="3.7949" x1="43.65">
	<stop stop-opacity="0.24" offset="0"/>
	<stop stop-opacity=".98440" offset=".97940"/>
	<stop offset="1"/>
</linearGradient>
<path opacity=".3" fill="url(#SVGID_5_)" d="m78.962 4.206h-70.624c-2.282 0-4.132 1.85-4.132 4.132v70.625c0 2.281 1.85 4.131 4.132 4.131h70.624c2.282 0 4.133-1.85 4.133-4.131v-70.625c0-2.282-1.851-4.132-4.133-4.132zm2.922 73.673c0 2.211-1.793 4.004-4.005 4.004h-68.457c-2.212 0-4.005-1.793-4.005-4.004v-68.457c0-2.212 1.793-4.006 4.005-4.006h68.457c2.212 0 4.005 1.793 4.005 4.006v68.457z"/>
</svg>
