<?xml version="1.0" encoding="utf-8"?>
<!-- Generator: Adobe Illustrator 15.0.0, SVG Export Plug-In . SVG Version: 6.00 Build 0)  -->
<!DOCTYPE svg PUBLIC "-//W3C//DTD SVG 1.1//EN" "http://www.w3.org/Graphics/SVG/1.1/DTD/svg11.dtd">
<svg version="1.1" id="Layer_1" xmlns="http://www.w3.org/2000/svg" xmlns:xlink="http://www.w3.org/1999/xlink" x="0px" y="0px"
	 width="582.871px" height="582.869px" viewBox="0 0 582.871 582.869" enable-background="new 0 0 582.871 582.869"
	 xml:space="preserve">
<g>
	<g>
		<g>
			<path opacity="0.05" fill="#333333" enable-background="new    " d="M569.335,515.783c0,29.531-23.979,53.554-53.455,53.554
				H66.987c-29.476,0-53.456-24.021-53.456-53.554V67.085c0-29.528,23.98-53.554,53.456-53.554H515.88
				c29.477,0,53.455,24.024,53.455,53.554V515.783L569.335,515.783z M515.88,0H66.987C30.049,0,0,30.09,0,67.085v448.698
				c0,36.994,30.049,67.086,66.987,67.086H515.88c36.938,0,66.991-30.092,66.991-67.086V67.085C582.871,30.09,552.818,0,515.88,0z"
				/>
			<path opacity="0.24" fill="#292929" enable-background="new    " d="M569.335,515.783c0,29.531-23.979,53.554-53.455,53.554
				H66.987c-29.476,0-53.456-24.021-53.456-53.554V67.085c0-29.528,23.98-53.554,53.456-53.554H515.88
				c29.477,0,53.455,24.024,53.455,53.554V515.783L569.335,515.783z M515.88,1.91H66.987C31.103,1.91,1.91,31.144,1.91,67.085
				v448.698c0,35.939,29.192,65.176,65.077,65.176H515.88c35.886,0,65.08-29.234,65.08-65.176V67.085
				C580.96,31.144,551.765,1.91,515.88,1.91z"/>
			<path opacity="0.43" fill="#1F1F1F" enable-background="new    " d="M569.335,515.783c0,29.531-23.979,53.554-53.455,53.554
				H66.987c-29.476,0-53.456-24.021-53.456-53.554V67.085c0-29.528,23.98-53.554,53.456-53.554H515.88
				c29.477,0,53.455,24.024,53.455,53.554V515.783L569.335,515.783z M515.88,3.819H66.987C32.156,3.819,3.82,32.198,3.82,67.085
				v448.698c0,34.888,28.336,63.265,63.167,63.265H515.88c34.832,0,63.169-28.377,63.169-63.265V67.085
				C579.049,32.198,550.712,3.819,515.88,3.819z"/>
			<path opacity="0.62" fill="#141414" enable-background="new    " d="M569.335,515.783c0,29.531-23.979,53.554-53.455,53.554
				H66.987c-29.476,0-53.456-24.021-53.456-53.554V67.085c0-29.528,23.98-53.554,53.456-53.554H515.88
				c29.477,0,53.455,24.024,53.455,53.554V515.783L569.335,515.783z M515.88,5.729H66.987c-33.778,0-61.258,27.521-61.258,61.354
				v448.698c0,33.832,27.479,61.354,61.258,61.354H515.88c33.777,0,61.257-27.521,61.257-61.354V67.085
				C577.136,33.251,549.657,5.729,515.88,5.729z"/>
			<path opacity="0.81" fill="#0A0A0A" enable-background="new    " d="M569.335,515.783c0,29.531-23.979,53.554-53.455,53.554
				H66.987c-29.476,0-53.456-24.021-53.456-53.554V67.085c0-29.528,23.98-53.554,53.456-53.554H515.88
				c29.477,0,53.455,24.024,53.455,53.554V515.783L569.335,515.783z M515.88,7.639H66.987C34.263,7.639,7.64,34.306,7.64,67.085
				v448.698c0,32.777,26.623,59.441,59.348,59.441h448.893c32.725,0,59.346-26.664,59.346-59.441V67.085
				C575.225,34.306,548.604,7.639,515.88,7.639z"/>
			<path d="M569.335,515.783c0,29.531-23.979,53.554-53.455,53.554H66.987c-29.476,0-53.456-24.021-53.456-53.554V67.085
				c0-29.528,23.98-53.554,53.456-53.554H515.88c29.477,0,53.455,24.024,53.455,53.554V515.783L569.335,515.783z M515.88,9.549
				H66.987c-31.671,0-57.437,25.81-57.437,57.536v448.698c0,31.726,25.768,57.531,57.438,57.531h448.893
				c31.671,0,57.435-25.808,57.435-57.531V67.085C573.313,35.359,547.551,9.549,515.88,9.549z"/>
		</g>
		
			<radialGradient id="SVGID_1_" cx="609.5479" cy="306.7051" r="537.9612" gradientTransform="matrix(1 0 0 1 -381.6895 -244.0664)" gradientUnits="userSpaceOnUse">
			<stop  offset="0.0843" style="stop-color:#FFFFFF"/>
			<stop  offset="0.1386" style="stop-color:#FBFBFB"/>
			<stop  offset="0.1947" style="stop-color:#EEEEEE"/>
			<stop  offset="0.2514" style="stop-color:#DADADA"/>
			<stop  offset="0.2753" style="stop-color:#CFCFCF"/>
			<stop  offset="0.3249" style="stop-color:#BDBDBD"/>
			<stop  offset="0.5093" style="stop-color:#7E7E7E"/>
			<stop  offset="0.6653" style="stop-color:#505050"/>
			<stop  offset="0.785" style="stop-color:#333333"/>
			<stop  offset="0.8539" style="stop-color:#292929"/>
			<stop  offset="1" style="stop-color:#5C5C5C"/>
		</radialGradient>
		<path fill="url(#SVGID_1_)" d="M66.987,6.742C35.316,6.742,9.55,32.551,9.55,64.273v448.701c0,31.726,25.768,57.533,57.438,57.533
			h448.893c31.671,0,57.435-25.81,57.435-57.533V64.273c0-31.724-25.764-57.531-57.435-57.531H66.987z"/>
		
			<radialGradient id="SVGID_2_" cx="566.4717" cy="63.0044" r="629.0917" gradientTransform="matrix(1 0 0 1 -381.6895 -244.0664)" gradientUnits="userSpaceOnUse">
			<stop  offset="0.0843" style="stop-color:#FFFFFF"/>
			<stop  offset="0.1386" style="stop-color:#FBFBFB"/>
			<stop  offset="0.1947" style="stop-color:#EEEEEE"/>
			<stop  offset="0.2514" style="stop-color:#DADADA"/>
			<stop  offset="0.2753" style="stop-color:#CFCFCF"/>
			<stop  offset="0.3249" style="stop-color:#BDBDBD"/>
			<stop  offset="0.5093" style="stop-color:#7E7E7E"/>
			<stop  offset="0.6653" style="stop-color:#505050"/>
			<stop  offset="0.785" style="stop-color:#333333"/>
			<stop  offset="0.8539" style="stop-color:#292929"/>
			<stop  offset="1" style="stop-color:#5C5C5C"/>
		</radialGradient>
		<path fill="url(#SVGID_2_)" d="M66.987,10.725c-29.476,0-53.456,24.022-53.456,53.551v448.699
			c0,29.529,23.98,53.556,53.456,53.556H515.88c29.477,0,53.455-24.024,53.455-53.556v-448.7c0-29.527-23.979-53.551-53.455-53.551
			L66.987,10.725L66.987,10.725z"/>
		
			<linearGradient id="SVGID_3_" gradientUnits="userSpaceOnUse" x1="515.9307" y1="309.4346" x2="515.9307" y2="-92.8837" gradientTransform="matrix(1 0 0 -1 -224.5 323.3691)">
			<stop  offset="0" style="stop-color:#696969"/>
			<stop  offset="0.0829" style="stop-color:#757575"/>
			<stop  offset="0.166" style="stop-color:#7A7A7A"/>
			<stop  offset="0.2102" style="stop-color:#858585"/>
			<stop  offset="0.2873" style="stop-color:#A1A1A1"/>
			<stop  offset="0.3873" style="stop-color:#D0D0D0"/>
			<stop  offset="0.4775" style="stop-color:#FFFFFF"/>
			<stop  offset="0.573" style="stop-color:#EDEDED"/>
			<stop  offset="0.6067" style="stop-color:#383838"/>
			<stop  offset="0.6461" style="stop-color:#141414"/>
			<stop  offset="0.7303" style="stop-color:#828282"/>
			<stop  offset="0.8933" style="stop-color:#000000"/>
		</linearGradient>
		<path fill="url(#SVGID_3_)" d="M66.987,14.704c-27.28,0-49.479,22.237-49.479,49.569v448.701c0,27.334,22.197,49.57,49.479,49.57
			H515.88c27.283,0,49.474-22.236,49.474-49.57V64.273c0-27.332-22.188-49.569-49.474-49.569H66.987z"/>
		<path fill="#D9D9D9" d="M13.531,512.974c0,29.529,23.98,53.556,53.456,53.556H515.88c29.477,0,53.455-24.024,53.455-53.556V419.08
			H13.531V512.974z"/>
		<rect x="13.531" y="414.179" opacity="0.25" enable-background="new    " width="555.804" height="4.899"/>
		<g>
			<path fill="#FFFFFF" d="M16.081,419.756v93.037c0,29.256,23.761,53.059,52.966,53.059h444.771
				c29.207,0,52.963-23.803,52.963-53.059v-93.037H16.081L16.081,419.756z M557.223,512.793c0,27.082-21.991,49.114-49.02,49.114
				H74.666c-13.069,0-25.374-5.117-34.646-14.399c-9.27-9.289-14.376-21.619-14.376-34.716c0,0,5.614-81.86,5.614-89.092
				c7.722,0,514.031,0,521.753,0C553.01,430.931,557.223,512.793,557.223,512.793z"/>
		</g>
		<path opacity="0.5" fill="#FFFFFF" enable-background="new    " d="M291.43,474.004c105.539,0,202.341,7.952,277.904,21.2V419.08
			H13.531v76.125C89.092,481.957,185.894,474.004,291.43,474.004z"/>
	</g>
	<g>
		<path fill="#FFFFFF" d="M64.927,46.132c9.589,0,17.363,7.774,17.363,17.364s-7.774,17.365-17.363,17.365
			c-9.59,0-17.364-7.775-17.364-17.365S55.338,46.132,64.927,46.132L64.927,46.132z"/>
		
			<linearGradient id="SVGID_4_" gradientUnits="userSpaceOnUse" x1="362.2158" y1="875.584" x2="334.3487" y2="841.171" gradientTransform="matrix(1 0 0 1 -282.2266 -793.4863)">
			<stop  offset="0.02" style="stop-color:#FFFFFF"/>
			<stop  offset="0.1064" style="stop-color:#E5E5E5"/>
			<stop  offset="0.5853" style="stop-color:#4C4C4C"/>
			<stop  offset="0.8051" style="stop-color:#0B0B0B"/>
			<stop  offset="0.98" style="stop-color:#000000"/>
		</linearGradient>
		<path fill="url(#SVGID_4_)" d="M64.927,41.359c12.228,0,22.144,9.912,22.144,22.137c0,12.228-9.916,22.142-22.144,22.142
			c-12.224,0-22.141-9.914-22.141-22.142C42.787,51.271,52.704,41.359,64.927,41.359L64.927,41.359z"/>
		
			<linearGradient id="SVGID_5_" gradientUnits="userSpaceOnUse" x1="336.4883" y1="829.2617" x2="357.8202" y2="858.6226" gradientTransform="matrix(1 0 0 1 -282.2266 -780.4453)">
			<stop  offset="0.03" style="stop-color:#FFFFFF"/>
			<stop  offset="0.2368" style="stop-color:#FFFFFF"/>
			<stop  offset="0.782" style="stop-color:#191919"/>
			<stop  offset="0.97" style="stop-color:#000000"/>
		</linearGradient>
		<path fill="url(#SVGID_5_)" d="M64.927,45.35c10.021,0,18.148,8.126,18.148,18.146c0,10.021-8.129,18.146-18.148,18.146
			c-10.018,0-18.146-8.126-18.146-18.146S54.91,45.35,64.927,45.35L64.927,45.35z"/>
		
			<linearGradient id="SVGID_6_" gradientUnits="userSpaceOnUse" x1="332.3691" y1="840.8135" x2="361.9332" y2="830.6337" gradientTransform="matrix(1 0 0 1 -282.2266 -772.2266)">
			<stop  offset="0.06" style="stop-color:#F2F2F2"/>
			<stop  offset="0.456" style="stop-color:#CDCDCD"/>
			<stop  offset="0.5616" style="stop-color:#B0B0B0"/>
			<stop  offset="0.94" style="stop-color:#949494"/>
		</linearGradient>
		<path fill="url(#SVGID_6_)" d="M64.927,47.869c8.63,0,15.628,6.998,15.628,15.627c0,8.63-6.998,15.629-15.628,15.629
			c-8.631,0-15.632-6.999-15.632-15.629C49.296,54.867,56.297,47.869,64.927,47.869L64.927,47.869z"/>
		
			<linearGradient id="SVGID_7_" gradientUnits="userSpaceOnUse" x1="305.4365" y1="875.3486" x2="303.0139" y2="909.993" gradientTransform="matrix(1.0732 -0.2876 0.2588 0.9659 -492.5886 -711.2379)">
			<stop  offset="0.01" style="stop-color:#666666"/>
			<stop  offset="0.99" style="stop-color:#000000"/>
		</linearGradient>
		<path fill="url(#SVGID_7_)" d="M60.437,46.723c0.559-0.15,1.128-0.275,1.689-0.379l8.953,33.407
			c-0.539,0.191-1.094,0.367-1.655,0.521c-0.568,0.15-1.136,0.276-1.697,0.381l-8.949-33.41
			C59.313,47.049,59.867,46.875,60.437,46.723L60.437,46.723z"/>
		<polygon fill="#FFFFFF" points="63.702,47.914 71.654,77.607 71.185,80.537 62.027,46.371 		"/>
		<polygon points="58.777,47.254 67.723,80.639 66.051,79.086 58.104,49.432 		"/>
	</g>
	<g>
		
			<linearGradient id="SVGID_8_" gradientUnits="userSpaceOnUse" x1="221.062" y1="869.0625" x2="193.1948" y2="834.6496" gradientTransform="matrix(1 0 0 1 309.4805 -788.3828)">
			<stop  offset="0.02" style="stop-color:#FFFFFF"/>
			<stop  offset="0.0423" style="stop-color:#E5E5E5"/>
			<stop  offset="0.4727" style="stop-color:#4C4C4C"/>
			<stop  offset="0.7688" style="stop-color:#0B0B0B"/>
			<stop  offset="0.98" style="stop-color:#000000"/>
		</linearGradient>
		<path fill="url(#SVGID_8_)" d="M516.607,41.332c12.228,0,22.144,9.912,22.144,22.14c0,12.227-9.916,22.141-22.144,22.141
			s-22.141-9.914-22.141-22.141C494.468,51.244,504.382,41.332,516.607,41.332L516.607,41.332z"/>
		
			<linearGradient id="SVGID_9_" gradientUnits="userSpaceOnUse" x1="196.4624" y1="824.1367" x2="217.7931" y2="853.496" gradientTransform="matrix(1 0 0 1 309.4805 -775.3438)">
			<stop  offset="0.03" style="stop-color:#FFFFFF"/>
			<stop  offset="0.2368" style="stop-color:#FFFFFF"/>
			<stop  offset="0.782" style="stop-color:#191919"/>
			<stop  offset="0.97" style="stop-color:#000000"/>
		</linearGradient>
		<path fill="url(#SVGID_9_)" d="M516.607,45.325c10.021,0,18.146,8.128,18.146,18.146s-8.126,18.146-18.146,18.146
			c-10.018,0-18.146-8.128-18.146-18.146C498.462,53.453,506.592,45.325,516.607,45.325L516.607,45.325z"/>
		
			<linearGradient id="SVGID_10_" gradientUnits="userSpaceOnUse" x1="33.2744" y1="767.3193" x2="64.5278" y2="767.3193" gradientTransform="matrix(-0.6854 -0.7282 0.7282 -0.6854 -8.6377 625.0002)">
			<stop  offset="0.01" style="stop-color:#FFFFFF"/>
			<stop  offset="0.0884" style="stop-color:#FFFFFF"/>
			<stop  offset="0.2844" style="stop-color:#BABABA"/>
			<stop  offset="0.4412" style="stop-color:#FFFFFF"/>
			<stop  offset="0.5784" style="stop-color:#E5E5E5"/>
			<stop  offset="0.7156" style="stop-color:#D4D4D4"/>
			<stop  offset="0.99" style="stop-color:#FFFFFF"/>
		</linearGradient>
		<path fill="url(#SVGID_10_)" d="M505.224,74.182c-5.915-6.282-5.613-16.177,0.675-22.091c6.279-5.916,16.178-5.616,22.093,0.669
			c5.916,6.282,5.61,16.176-0.674,22.091C521.035,80.768,511.139,80.467,505.224,74.182L505.224,74.182z"/>
		
			<linearGradient id="SVGID_11_" gradientUnits="userSpaceOnUse" x1="216.0186" y1="766.0957" x2="234.3663" y2="778.9429" gradientTransform="matrix(0.8006 0.7704 -0.6934 0.7206 871.9846 -666.6897)">
			<stop  offset="0.04" style="stop-color:#666666"/>
			<stop  offset="0.96" style="stop-color:#191919"/>
		</linearGradient>
		<path fill="url(#SVGID_11_)" d="M528.648,50.957c0.42,0.408,0.819,0.826,1.205,1.258L505.867,77.14
			c-0.446-0.367-0.879-0.75-1.303-1.154c-0.424-0.406-0.82-0.826-1.201-1.256l23.983-24.921
			C527.79,50.17,528.226,50.555,528.648,50.957L528.648,50.957z"/>
		<polygon points="527.683,50.087 503.376,74.715 503.141,74.437 527.251,49.455 		"/>
		<polygon fill="#FFFFFF" points="529.361,54.438 508.073,76.568 505.88,77.125 529.84,52.227 		"/>
	</g>
</g>
<g>
	<path id="Bgcolor00" inkscape:label="#path3" fill="#FFFFFF" d="M290.434,37.79v0.01V37.79
		c-140.023,0-253.532,113.513-253.532,253.535c0,7.721,0.364,15.361,1.04,22.91c1.138,6.758,5.524,9.566,11.813,9.555
		c18.58-0.031,48.429,0.199,59.364,0.199c16.164,0,21.435,7.13,23.454,18.315c3.344,18.525,9.43,60.46,13.173,66.953
		c4.6,7.98,12.894,6.836,14.918,6.836c0.035,0,50.274-0.031,102.974-0.063c64.749,0.032,156.526,0.063,156.563,0.063
		c2.024,0,10.317,1.145,14.918-6.836c3.743-6.493,9.83-48.428,13.173-66.953c2.02-11.186,7.292-18.315,23.453-18.315
		c10.936,0,40.786-0.232,59.365-0.199c6.288,0.012,10.674-2.797,11.812-9.555c0.681-7.549,1.041-15.189,1.041-22.91
		C543.964,151.303,430.455,37.79,290.434,37.79z"/>
	<g id="g8817">
		<g id="g8819">
			<path id="path8821" opacity="0.05" fill="#4D4D4D" enable-background="new    " d="M529.642,311.177
				c-2.76,0.008-37.789,0.116-37.789,0.116l-20.105,0.076c-20.867,0-33.234,9.904-36.761,29.438l-2.889,17.031
				c-2.312,13.966-6.561,39.589-8.787,45.602c-0.502,0.1-1.385,0.085-1.872,0.066l-1.233-0.029c0,0-156.559-0.066-156.574-0.066
				l-102.968,0.066l-1.237,0.029c-0.486,0.019-1.369,0.033-1.874-0.066c-2.226-6.009-6.473-31.636-8.786-45.602l-2.889-17.031
				c-3.526-19.533-15.894-29.438-36.76-29.438l-20.105-0.076c0,0-30.702-0.098-37.789-0.116c-0.501-6.38-0.801-12.747-0.801-18.951
				c0-132.342,107.667-225.104,240.008-225.104h0.002c132.343,0,240.009,92.763,240.009,225.104
				C530.441,298.43,530.141,304.797,529.642,311.177z M290.433,37.788V37.8V37.788c-140.022,0-253.532,113.514-253.532,253.534
				c0,7.725,0.364,15.361,1.04,22.91c1.138,6.762,5.524,9.568,11.813,9.557c18.58-0.033,48.429,0.201,59.364,0.201
				c16.164,0,21.435,7.13,23.454,18.315c3.344,18.526,9.43,60.46,13.172,66.951c4.6,7.98,12.894,6.836,14.918,6.836
				c0.035,0,50.274-0.033,102.974-0.063c64.75,0.03,156.527,0.063,156.564,0.063c2.024,0,10.317,1.145,14.918-6.836
				c3.743-6.491,9.83-48.425,13.173-66.951c2.02-11.186,7.292-18.315,23.453-18.315c10.936,0,40.786-0.234,59.365-0.201
				c6.288,0.012,10.674-2.795,11.812-9.557c0.681-7.549,1.041-15.186,1.041-22.91C543.964,151.302,430.455,37.788,290.433,37.788z"
				/>
			<path id="path8823" opacity="0.2" fill="#4D4D4D" enable-background="new    " d="M290.433,61.678L290.433,61.678
				c129.93,0,236.296,91.712,241.985,219.471c0.201,4.599,0.275,9.255,0.213,13.945c-0.028,2.234-0.098,4.484-0.196,6.74
				c-0.282,4.335-1.091,8.136-2.499,11.44c-2.206,0.009-38.071,0.118-38.071,0.118l-20.117,0.079
				c-14.809,0-24.713,5.117-30.139,15.688c-2.078,3.273-4.111,10.607-4.949,15.247c-0.177,1.063-2.681,15.861-2.88,17.021
				c-1.698,10.12-3.854,24.018-6.073,32.86c-1.479,5.889-3.696,9.559-4.859,11.265c-0.404,0.079-1.266,0.063-1.655,0.048
				c0,0-1.073-0.024-1.239-0.024c-2.963,0-156.309-0.063-156.321-0.063l-102.969,0.063l-1.146,0.031
				c-0.491,0.017-1.327,0.035-1.878-0.048c-1.225-1.686-3.049-5.389-4.393-10.821c-2.207-8.915-4.471-23.218-6.202-33.551
				c-0.186-1.081-2.48-14.628-2.644-15.619l-0.246-1.449c-0.81-4.486-2.726-11.424-4.696-14.634
				c-5.397-10.786-15.371-16.013-30.343-16.013l-20.117-0.079c0,0-32.402-0.102-38.072-0.118c-1.405-3.286-2.216-7.065-2.494-11.348
				c-0.102-2.286-0.169-4.563-0.199-6.821c-0.063-4.727,0.011-9.408,0.218-14.032C54.18,153.353,160.528,61.678,290.433,61.678z
				 M290.433,37.788V37.8V37.788c-140.022,0-253.532,113.514-253.532,253.534c0,7.725,0.364,15.361,1.04,22.91
				c1.138,6.762,5.524,9.568,11.813,9.557c18.58-0.033,48.429,0.201,59.364,0.201c16.164,0,21.435,7.13,23.454,18.315
				c3.344,18.526,9.43,60.46,13.172,66.951c4.6,7.98,12.894,6.836,14.918,6.836c0.035,0,50.274-0.033,102.974-0.063
				c64.75,0.03,156.527,0.063,156.564,0.063c2.024,0,10.317,1.145,14.918-6.836c3.743-6.491,9.83-48.425,13.173-66.951
				c2.02-11.186,7.292-18.315,23.453-18.315c10.936,0,40.786-0.234,59.365-0.201c6.288,0.012,10.674-2.795,11.812-9.557
				c0.681-7.549,1.041-15.186,1.041-22.91C543.964,151.302,430.455,37.788,290.433,37.788z"/>
			<path id="path8825" opacity="0.35" fill="#4D4D4D" enable-background="new    " d="M290.433,56.233L290.433,56.233
				c132.106,0,240.077,96.98,244.343,227.459c0.155,4.706,0.168,9.477,0.045,14.269c-0.06,2.289-0.155,4.586-0.284,6.884
				c-0.435,4.582-1.815,8.053-4.306,10.53c-1.657,0.004-38.355,0.118-38.355,0.118l-20.128,0.079
				c-14.947,0-24.283,5.337-28.988,16.777c-1.559,2.455-3.798,12.175-4.427,15.654c-0.353,2.127-2.474,14.695-2.873,17.012
				c-1.916,11.294-4.072,25.345-6.357,32.751c-1.854,6.007-5.193,8.644-6.722,9.896c-0.303,0.06-1.145,0.041-1.437,0.031
				c0,0-0.915-0.02-1.244-0.02c-5.928-0.002-156.058-0.063-156.068-0.063l-102.97,0.063l-1.054,0.027
				c-0.497,0.021-1.286,0.037-1.881-0.027c-1.676-1.281-4.279-4.226-5.897-9.572c-2.269-7.493-4.553-22.011-6.505-33.57
				c-0.371-2.16-2.317-13.68-2.645-15.66l-0.245-1.444c-0.607-3.365-2.7-12.426-4.177-14.835
				c-4.683-11.605-14.07-17.022-29.14-17.022l-20.126-0.077c0,0-34.103-0.105-38.355-0.118c-2.49-2.461-3.869-5.917-4.296-10.421
				c-0.132-2.332-0.23-4.661-0.29-6.971c-0.125-4.831-0.11-9.622,0.046-14.347C50.389,153.188,158.346,56.233,290.433,56.233z
				 M290.433,37.788V37.8V37.788c-140.022,0-253.532,113.514-253.532,253.534c0,7.725,0.364,15.361,1.04,22.91
				c1.138,6.762,5.524,9.568,11.813,9.557c18.58-0.033,48.429,0.201,59.364,0.201c16.164,0,21.435,7.13,23.454,18.315
				c3.344,18.526,9.43,60.46,13.172,66.951c4.6,7.98,12.894,6.836,14.918,6.836c0.035,0,50.274-0.033,102.974-0.063
				c64.75,0.03,156.527,0.063,156.564,0.063c2.024,0,10.317,1.145,14.918-6.836c3.743-6.491,9.83-48.425,13.173-66.951
				c2.02-11.186,7.292-18.315,23.453-18.315c10.936,0,40.786-0.234,59.365-0.201c6.288,0.012,10.674-2.795,11.812-9.557
				c0.681-7.549,1.041-15.186,1.041-22.91C543.964,151.302,430.455,37.788,290.433,37.788z"/>
			<path id="path8827" opacity="0.5" fill="#4D4D4D" enable-background="new    " d="M290.433,50.791L290.433,50.791
				c134.282,0,243.859,102.249,246.702,235.446c0.104,4.812,0.06,9.701-0.125,14.596c-0.089,2.339-0.213,4.685-0.371,7.025
				c-0.591,4.83-2.54,7.97-6.112,9.618c-1.104,0.004-38.639,0.12-38.639,0.12l-20.141,0.081c-15.084,0-23.853,5.555-27.835,17.868
				c-1.039,1.638-3.485,13.738-3.906,16.059c-0.527,3.192-2.267,13.526-2.868,17.005c-2.127,12.466-4.397,26.646-6.639,32.638
				c-2.291,6.118-6.692,7.731-8.584,8.531c-0.201,0.04-1.024,0.021-1.217,0.015c0,0-0.755-0.015-1.25-0.015
				c-8.891-0.002-155.808-0.062-155.813-0.062l-102.972,0.062l-0.962,0.027c-0.502,0.019-1.243,0.041-1.886-0.009
				c-2.126-0.879-5.465-3.066-7.403-8.326c-2.242-6.083-4.635-20.802-6.809-33.589c-0.556-3.24-2.154-12.729-2.646-15.699
				l-0.245-1.443c-0.404-2.241-2.672-13.425-3.656-15.032c-3.967-12.421-12.772-18.029-27.938-18.029l-20.14-0.081
				c0,0-35.803-0.112-38.637-0.12c-3.572-1.638-5.522-4.767-6.1-9.49c-0.163-2.382-0.289-4.758-0.379-7.122
				c-0.189-4.938-0.232-9.84-0.127-14.665C46.597,153.021,156.165,50.791,290.433,50.791z M290.433,37.788V37.8V37.788
				c-140.022,0-253.532,113.514-253.532,253.534c0,7.725,0.364,15.361,1.04,22.91c1.138,6.762,5.524,9.568,11.813,9.557
				c18.58-0.033,48.429,0.201,59.364,0.201c16.164,0,21.435,7.13,23.454,18.315c3.344,18.526,9.43,60.46,13.172,66.951
				c4.6,7.98,12.894,6.836,14.918,6.836c0.035,0,50.274-0.033,102.974-0.063c64.75,0.03,156.527,0.063,156.564,0.063
				c2.024,0,10.317,1.145,14.918-6.836c3.743-6.491,9.83-48.425,13.173-66.951c2.02-11.186,7.292-18.315,23.453-18.315
				c10.936,0,40.786-0.234,59.365-0.201c6.288,0.012,10.674-2.795,11.812-9.557c0.681-7.549,1.041-15.186,1.041-22.91
				C543.964,151.302,430.455,37.788,290.433,37.788z"/>
			<path id="path8829" opacity="0.65" fill="#4D4D4D" enable-background="new    " d="M290.433,45.346L290.433,45.346
				c136.459,0,247.639,107.518,249.062,243.435c0.052,4.918-0.05,9.923-0.297,14.92c-0.118,2.395-0.271,4.787-0.458,7.17
				c-0.742,5.077-3.264,7.887-7.918,8.706c-0.554,0-38.922,0.12-38.922,0.12l-20.152,0.08c-15.221,0-23.423,5.774-26.683,18.959
				c-0.521,0.819-3.174,15.304-3.384,16.465c-0.705,4.257-2.061,12.361-2.861,16.998c-2.345,13.638-4.82,27.911-6.925,32.524
				c-2.824,6.191-8.188,6.819-10.443,7.168c-0.102,0.019-0.904-0.002-1.002-0.005c0,0-0.595-0.006-1.254-0.006
				c-11.854-0.006-155.555-0.064-155.56-0.064l-102.972,0.064l-0.871,0.022c-0.507,0.021-1.201,0.044-1.89,0.011
				c-2.577-0.475-6.579-1.933-8.909-7.078c-2.13-4.707-4.716-19.596-7.112-33.604c-0.742-4.32-1.99-11.78-2.646-15.741l-0.244-1.438
				c-0.202-1.122-2.644-14.431-3.137-15.233c-3.252-13.24-11.472-19.042-26.736-19.042l-20.151-0.08c0,0-37.503-0.116-38.92-0.12
				c-4.656-0.815-7.175-3.618-7.902-8.562c-0.192-2.43-0.349-4.855-0.469-7.273c-0.251-5.044-0.352-10.056-0.3-14.982
				C42.806,152.855,153.982,45.346,290.433,45.346z M290.433,37.788V37.8V37.788c-140.022,0-253.532,113.514-253.532,253.534
				c0,7.725,0.364,15.361,1.04,22.91c1.138,6.762,5.524,9.568,11.813,9.557c18.58-0.033,48.429,0.201,59.364,0.201
				c16.164,0,21.435,7.13,23.454,18.315c3.344,18.526,9.43,60.46,13.172,66.951c4.6,7.98,12.894,6.836,14.918,6.836
				c0.035,0,50.274-0.033,102.974-0.063c64.75,0.03,156.527,0.063,156.564,0.063c2.024,0,10.317,1.145,14.918-6.836
				c3.743-6.491,9.83-48.425,13.173-66.951c2.02-11.186,7.292-18.315,23.453-18.315c10.936,0,40.786-0.234,59.365-0.201
				c6.288,0.012,10.674-2.795,11.812-9.557c0.681-7.549,1.041-15.186,1.041-22.91C543.964,151.302,430.455,37.788,290.433,37.788z"
				/>
			<path id="path8831" opacity="0.8" fill="#4D4D4D" enable-background="new    " d="M540.84,313.88
				c-0.896,5.329-3.987,7.807-9.727,7.794l-39.203,0.122l-20.163,0.083c-15.36,0-22.996,5.992-25.532,20.052l-2.861,16.869
				c-3.133,18.915-7.422,44.822-10.063,49.402c-3.544,6.151-9.685,5.906-12.306,5.801l-0.781-0.022c0,0-156.564-0.061-156.566-0.061
				l-102.973,0.061l-0.78,0.022c-2.623,0.105-8.762,0.351-12.307-5.801c-2.641-4.58-6.931-30.487-10.063-49.402l-2.862-16.869
				c-2.537-14.058-10.173-20.052-25.533-20.052l-20.163-0.083l-39.203-0.122c-5.738,0.013-8.829-2.465-9.706-7.63
				c-0.686-7.639-1.031-15.283-1.031-22.72c0-138.633,112.784-251.42,251.417-251.42l0,0c138.634,0,251.421,112.788,251.421,251.42
				C541.852,298.759,541.503,306.403,540.84,313.88z M290.433,37.788V37.8V37.788c-140.022,0-253.532,113.514-253.532,253.534
				c0,7.725,0.364,15.361,1.04,22.91c1.138,6.762,5.524,9.568,11.813,9.557c18.58-0.033,48.429,0.201,59.364,0.201
				c16.164,0,21.435,7.13,23.454,18.315c3.344,18.526,9.43,60.46,13.172,66.951c4.6,7.98,12.894,6.836,14.918,6.836
				c0.035,0,50.274-0.033,102.974-0.063c64.75,0.03,156.527,0.063,156.564,0.063c2.024,0,10.317,1.145,14.918-6.836
				c3.743-6.491,9.83-48.425,13.173-66.951c2.02-11.186,7.292-18.315,23.453-18.315c10.936,0,40.786-0.234,59.365-0.201
				c6.288,0.012,10.674-2.795,11.812-9.557c0.681-7.549,1.041-15.186,1.041-22.91C543.964,151.302,430.455,37.788,290.433,37.788z"
				/>
		</g>
		
			<linearGradient id="path8840_1_" gradientUnits="userSpaceOnUse" x1="481.54" y1="320.7529" x2="535.7147" y2="-146.9003" gradientTransform="matrix(1 0 0 -1 -224.5 323.3691)">
			<stop  offset="0.0056" style="stop-color:#DEDEDE"/>
			<stop  offset="0.2865" style="stop-color:#4D4D4D"/>
			<stop  offset="0.8371" style="stop-color:#000000"/>
		</linearGradient>
		<path id="path8840" fill="url(#path8840_1_)" d="M290.433,37.788V37.8V37.788c-140.022,0-253.532,113.514-253.532,253.534
			c0,7.725,0.364,15.361,1.04,22.91c1.138,6.762,5.524,9.568,11.813,9.557c18.58-0.033,48.429,0.201,59.364,0.201
			c16.164,0,21.435,7.13,23.454,18.315c3.344,18.526,9.43,60.46,13.172,66.951c4.6,7.98,12.894,6.836,14.918,6.836
			c0.035,0,50.274-0.033,102.974-0.063c64.75,0.03,156.527,0.063,156.564,0.063c2.024,0,10.317,1.145,14.918-6.836
			c3.743-6.491,9.83-48.425,13.173-66.951c2.02-11.186,7.292-18.315,23.453-18.315c10.936,0,40.786-0.234,59.365-0.201
			c6.288,0.012,10.674-2.795,11.812-9.557c0.681-7.549,1.041-15.186,1.041-22.91C543.964,151.302,430.455,37.788,290.433,37.788z
			 M538.731,313.617c-0.738,4.223-2.944,5.956-7.614,5.95l-39.218,0.12l-20.152,0.079c-16.376,0-24.892,6.722-27.611,21.793
			l-2.865,16.898c-2.754,16.624-7.36,44.442-9.812,48.692c-2.553,4.434-6.504,4.897-10.392,4.744l-0.862-0.022
			c0,0-156.563-0.064-156.569-0.064l-102.972,0.064l-0.864,0.022c-3.889,0.155-7.837-0.311-10.393-4.746
			c-2.449-4.248-7.056-32.066-9.809-48.69l-2.866-16.898c-2.721-15.071-11.237-21.793-27.612-21.793l-20.152-0.079l-39.219-0.12
			c-4.667,0.009-6.874-1.728-7.614-5.95c-0.665-7.498-1.007-14.995-1.007-22.293c0-137.468,111.839-249.307,249.305-249.307h0.002
			c137.469,0,249.309,111.839,249.309,249.307C539.74,298.622,539.396,306.122,538.731,313.617z"/>
	</g>
</g>
</svg>
