<?xml version="1.0" encoding="UTF-8" standalone="no"?>
<svg xmlns:rdf="http://www.w3.org/1999/02/22-rdf-syntax-ns#" xmlns="http://www.w3.org/2000/svg" height="100" width="100" version="1.0" xmlns:cc="http://creativecommons.org/ns#" xmlns:xlink="http://www.w3.org/1999/xlink" xmlns:dc="http://purl.org/dc/elements/1.1/">
 <defs>
  <linearGradient id="linearGradient3739" y2="2700.5" gradientUnits="userSpaceOnUse" x2="-2109.7" gradientTransform="matrix(.9265 .3762 -.3762 .9265 3195.3 -1414.1)" y1="2590" x1="-2122.5">
   <stop stop-color="#DEDEDE" offset=".0056"/>
   <stop stop-color="#4D4D4D" offset=".2865"/>
   <stop offset=".8371"/>
  </linearGradient>
  <linearGradient id="linearGradient3741" y2="2592.8" gradientUnits="userSpaceOnUse" x2="-2108.4" gradientTransform="matrix(.9265 .3762 -.3762 .9265 3195.3 -1414.1)" y1="2695.6" x1="-2123.7">
   <stop stop-color="#8A8A8A" offset=".0056"/>
   <stop stop-color="#4D4D4D" offset=".2865"/>
   <stop offset=".8371"/>
  </linearGradient>
 </defs>
 <g transform="translate(-188.14 -188.5)">
  <path d="m285.57 258.61c-10.31 25.41-39.27 37.64-64.68 27.32-25.41-10.31-37.64-39.27-27.33-64.68 10.32-25.41 39.28-37.64 64.69-27.33 25.4 10.32 37.64 39.28 27.32 64.69z"/>
  <circle cx="239.67" cy="240.18" r="46.405" fill="url(#linearGradient3739)"/>
  <path fill="url(#linearGradient3741)" d="m280.39 256.71c-9.13 22.49-34.73 33.33-57.19 24.21l-0.11-0.04c-22.46-9.12-33.26-34.74-24.13-57.23s34.73-33.33 57.19-24.21l0.11 0.05c22.46 9.12 33.26 34.74 24.13 57.22z"/>
 </g>
</svg>
