<?xml version="1.0" encoding="UTF-8" standalone="no"?>
<svg xmlns="http://www.w3.org/2000/svg" xml:space="preserve" height="279.23" width="582.87" version="1.1" viewBox="0 0 582.871 279.229">
	<path opacity=".05" fill="#333" d="m569.33 212.14c0 29.528-23.979 53.551-53.454 53.551h-448.89c-29.479 0-53.461-24.021-53.461-53.551v-145.06c0-29.527 23.98-53.554 53.461-53.554h448.89c29.478 0 53.453 24.023 53.453 53.554v145.06zm-53.45-212.14h-448.89c-36.942 0-66.99 30.093-66.99 67.085v145.06c0 36.992 30.049 67.084 66.988 67.084h448.89c36.938 0 66.99-30.092 66.99-67.084v-145.06c0-36.987-30.05-67.08-66.99-67.08z"/>
	<path opacity="0.24" fill="#292929" d="m569.33 212.14c0 29.528-23.979 53.551-53.454 53.551h-448.89c-29.479 0-53.461-24.021-53.461-53.551v-145.06c0-29.527 23.98-53.554 53.461-53.554h448.89c29.478 0 53.453 24.023 53.453 53.554v145.06zm-53.45-210.23h-448.89c-35.888 0-65.08 29.236-65.08 65.175v145.06c0 35.938 29.192 65.173 65.078 65.173h448.89c35.886 0 65.08-29.232 65.08-65.173v-145.06c0-35.934-29.2-65.17-65.08-65.17z"/>
	<path opacity="0.43" fill="#1f1f1f" d="m569.33 212.14c0 29.528-23.979 53.551-53.454 53.551h-448.89c-29.479 0-53.461-24.021-53.461-53.551v-145.06c0-29.527 23.98-53.554 53.461-53.554h448.89c29.478 0 53.453 24.023 53.453 53.554v145.06zm-53.45-208.32h-448.89c-34.835 0-63.17 28.378-63.17 63.264v145.06c0 34.886 28.335 63.264 63.168 63.264h448.89c34.831 0 63.169-28.378 63.169-63.264v-145.06c0-34.881-28.34-63.259-63.17-63.259z"/>
	<path opacity="0.62" fill="#141414" d="m569.33 212.14c0 29.528-23.979 53.551-53.454 53.551h-448.89c-29.479 0-53.461-24.021-53.461-53.551v-145.06c0-29.527 23.98-53.554 53.461-53.554h448.89c29.478 0 53.453 24.023 53.453 53.554v145.06zm-53.45-206.41h-448.89c-33.781 0-61.26 27.522-61.26 61.354v145.06c0 33.83 27.479 61.354 61.258 61.354h448.89c33.777 0 61.257-27.521 61.257-61.354v-145.06c0-33.827-27.48-61.349-61.26-61.349z"/>
	<path opacity="0.81" fill="#0a0a0a" d="m569.33 212.14c0 29.528-23.979 53.551-53.454 53.551h-448.89c-29.479 0-53.461-24.021-53.461-53.551v-145.06c0-29.527 23.98-53.554 53.461-53.554h448.89c29.478 0 53.453 24.023 53.453 53.554v145.06zm-53.45-204.5h-448.89c-32.728 0-59.35 26.664-59.35 59.443v145.06c0 32.775 26.622 59.439 59.348 59.439h448.89c32.727 0 59.346-26.664 59.346-59.439v-145.06c-0.01-32.774-26.63-59.438-59.35-59.438z"/>
	<path d="m569.33 212.14c0 29.528-23.979 53.551-53.454 53.551h-448.89c-29.479 0-53.461-24.021-53.461-53.551v-145.06c0-29.527 23.98-53.554 53.461-53.554h448.89c29.478 0 53.453 24.023 53.453 53.554v145.06zm-53.45-202.59h-448.89c-31.674 0-57.44 25.807-57.44 57.533v145.06c0 31.725 25.768 57.528 57.438 57.528h448.89c31.672 0 57.435-25.807 57.435-57.528v-145.06c-0.01-31.721-25.77-57.528-57.44-57.528z"/>
<linearGradient id="SVGID_1_" y2="935.98" gradientUnits="userSpaceOnUse" x2="454.58" gradientTransform="translate(-163.15 -663.5)" y1="667.62" x1="454.58">
	<stop stop-color="#696969" offset="0"/>
	<stop stop-color="#6e6e6e" offset=".1198"/>
	<stop stop-color="#7a7a7a" offset=".2472"/>
	<stop stop-color="#fff" offset=".47750"/>
	<stop stop-color="#ededed" offset="0.573"/>
	<stop stop-color="#383838" offset=".6067"/>
	<stop stop-color="#141414" offset=".64610"/>
	<stop stop-color="#828282" offset=".73030"/>
	<stop offset=".8933"/>
</linearGradient>
<path fill="url(#SVGID_1_)" d="m66.988 6.743c-31.672 0-57.438 25.81-57.438 57.529v145.06c0 31.724 25.768 57.531 57.438 57.531h448.89c31.672 0 57.435-25.811 57.435-57.531v-145.06c0-31.72-25.77-57.525-57.44-57.525l-448.89-0.002z"/>
<linearGradient id="SVGID_2_" y2="927.81" gradientUnits="userSpaceOnUse" x2="454.58" gradientTransform="translate(-163.15 -663.5)" y1="672.61" x1="454.58">
	<stop stop-color="#fff" offset="0"/>
	<stop stop-color="#c0c0c0" offset=".161"/>
	<stop stop-color="#868686" offset=".3272"/>
	<stop stop-color="#565656" offset=".48820"/>
	<stop stop-color="#313131" offset=".63980"/>
	<stop stop-color="#161616" offset=".77990"/>
	<stop stop-color="#060606" offset=".90430"/>
	<stop offset="1"/>
</linearGradient>
<path fill="url(#SVGID_2_)" d="m66.988 10.725c-29.477 0-53.457 24.023-53.457 53.552v145.06c0 29.529 23.98 53.554 53.457 53.554h448.89c29.478 0 53.453-24.021 53.453-53.554v-145.06c0-29.525-23.979-53.552-53.453-53.552l-448.89 0.001z"/>
<linearGradient id="SVGID_3_" y2="847.62" gradientUnits="userSpaceOnUse" x2="454.58" gradientTransform="translate(-163.15 -663.5)" y1="666.62" x1="454.58">
	<stop stop-color="#696969" offset="0"/>
	<stop stop-color="#7a7a7a" offset=".14910"/>
	<stop stop-color="#888" offset=".1999"/>
	<stop stop-color="#ababab" offset=".29520"/>
	<stop stop-color="#e5e5e5" offset=".42360"/>
	<stop stop-color="#fff" offset=".47750"/>
	<stop stop-color="#ededed" offset="0.573"/>
	<stop stop-color="#383838" offset=".6067"/>
	<stop stop-color="#141414" offset=".64610"/>
	<stop stop-color="#828282" offset=".73030"/>
	<stop offset=".8933"/>
</linearGradient>
<path fill="url(#SVGID_3_)" d="m66.988 14.704c-27.281 0-49.479 22.236-49.479 49.568v145.06c0 27.332 22.197 49.566 49.479 49.566h448.89c27.283 0 49.475-22.234 49.475-49.566v-145.06c0-27.332-22.188-49.568-49.475-49.568l-448.89-0.002z"/>
<linearGradient id="SVGID_4_" y2="950.12" gradientUnits="userSpaceOnUse" x2="454.58" gradientTransform="translate(-163.15 -663.5)" y1="834.62" x1="454.58">
	<stop stop-color="#696969" offset="0"/>
	<stop stop-color="#7a7a7a" offset=".14910"/>
	<stop stop-color="#888" offset=".1999"/>
	<stop stop-color="#ababab" offset=".29520"/>
	<stop stop-color="#e5e5e5" offset=".42360"/>
	<stop stop-color="#fff" offset=".47750"/>
	<stop stop-color="#ededed" offset="0.573"/>
	<stop stop-color="#383838" offset=".65510"/>
	<stop stop-color="#141414" offset=".86870"/>
	<stop offset=".9957"/>
</linearGradient>
<path fill="url(#SVGID_4_)" d="m13.531 209.34c0 29.528 23.98 53.554 53.457 53.554h448.89c29.478 0 53.453-24.021 53.453-53.554v-42.64h-555.8v42.634z"/>
<rect opacity=".25" height="4.899" width="555.8" y="161.8" x="13.531"/>
		<linearGradient id="SVGID_5_" y2="935.66" gradientUnits="userSpaceOnUse" x2="454.58" gradientTransform="translate(-163.15 -663.5)" y1="773.62" x1="454.58">
		<stop stop-color="#696969" offset="0"/>
		<stop stop-color="#6e6e6e" offset=".1198"/>
		<stop stop-color="#7a7a7a" offset=".2472"/>
		<stop stop-color="#fff" offset=".47750"/>
		<stop stop-color="#ededed" offset="0.573"/>
		<stop stop-color="#383838" offset=".6067"/>
		<stop stop-color="#141414" offset=".64610"/>
		<stop stop-color="#828282" offset=".72930"/>
		<stop stop-color="#727272" offset=".75310"/>
		<stop stop-color="#414141" offset=".83380"/>
		<stop stop-color="#1e1e1e" offset=".9048"/>
		<stop stop-color="#080808" offset=".96260"/>
		<stop offset="1"/>
	</linearGradient>
	<path fill="url(#SVGID_5_)" d="m16.082 167.38v41.772c0 29.258 23.766 53.061 52.965 53.061h444.77c29.207 0 52.963-23.803 52.963-53.061v-41.77h-550.7zm541.14 41.774c0 27.082-21.991 49.115-49.02 49.115h-433.53c-13.068 0-25.373-5.115-34.643-14.398-9.273-9.289-14.381-21.615-14.381-34.717 0 0 5.613-30.597 5.613-37.827h521.75c0.001 7.231 4.213 37.827 4.213 37.827z"/>
<path opacity=".2" fill="#fff" d="m291.43 182.19c105.54 0 202.34 17.813 277.9 31.063v-46.55h-555.8v46.552c75.56-13.249 172.37-31.063 277.9-31.063z"/>
	<path id="bgColor00" fill="#fff" d="m539.54 149.73c0 6.436-5.373 11.65-12 11.65h-471.21c-6.627 0-12-5.216-12-11.65v-106.49c0-6.435 5.373-11.65 12-11.65h471.2c6.628 0 12 5.216 12 11.65v106.49z"/>
	<g opacity=".05">
			<linearGradient id="SVGID_6_" y2="160.6" gradientUnits="userSpaceOnUse" x2="297.94" gradientTransform="matrix(1 0 0 -1 -6 184.23)" y1="-12.886" x1="297.94">
			<stop stop-color="#fff" offset="0"/>
			<stop stop-color="#dcdcdc" offset=".0932"/>
			<stop stop-color="#9a9a9a" offset=".28420"/>
			<stop stop-color="#636363" offset="0.466"/>
			<stop stop-color="#383838" offset=".63350"/>
			<stop stop-color="#191919" offset=".78350"/>
			<stop stop-color="#070707" offset=".91070"/>
			<stop offset="1"/>
		</linearGradient>
		<path fill="url(#SVGID_6_)" d="m61.985 55.528c-5.305 0-9.621 4.315-9.621 9.621v60.619c0 5.305 4.315 9.62 9.621 9.62h459.9c5.305 0 9.62-4.315 9.62-9.62v-60.621c0-5.306-4.315-9.621-9.62-9.621h-459.9zm466.95 108.27h-474c-7.72 0-14-6.28-14-14v-107.68c0-7.721 6.28-14 14-14h474c7.721 0 14 6.279 14 14v107.69c0 7.718-6.513 12.966-14 13.999z"/>
	</g>
	<g opacity=".1">
		<path fill="url(#SVGID_6_)" d="m61.985 49.528c-5.305 0-9.621 4.315-9.621 9.621v73.619c0 5.305 4.315 9.62 9.621 9.62h459.9c5.305 0 9.62-4.315 9.62-9.62v-73.621c0-5.306-4.315-9.621-9.62-9.621h-459.9zm466.95 114.27h-474c-7.72 0-14-6.28-14-14v-107.68c0-7.721 6.28-14 14-14h474c7.721 0 14 6.279 14 14v107.69c0 7.718-4.43 11.999-14 13.999z"/>
	</g>
	<g opacity=".25">
		<path fill="url(#SVGID_6_)" d="m61.985 43.528c-5.305 0-9.621 4.315-9.621 9.621v86.619c0 5.305 4.315 9.62 9.621 9.62h459.9c5.305 0 9.62-4.315 9.62-9.62v-86.621c0-5.306-4.315-9.621-9.62-9.621h-459.9zm466.95 120.27h-474c-7.72 0-14-6.28-14-14v-107.68c0-7.721 6.28-14 14-14h474c7.721 0 14 6.279 14 14v107.69c0 7.718-6.117 12.82-14 13.999z"/>
	</g>
	<g opacity=".5">
		<path fill="url(#SVGID_6_)" d="m58.985 38.528c-5.305 0-9.621 4.315-9.621 9.621v97.619c0 5.305 4.315 9.62 9.621 9.62h465.9c5.305 0 9.62-4.315 9.62-9.62v-97.621c0-5.306-4.315-9.621-9.62-9.621h-465.9zm469.95 125.27h-474c-7.72 0-14-6.28-14-14v-107.68c0-7.721 6.28-14 14-14h474c7.721 0 14 6.279 14 14v107.69c0 7.718-9.14 13.628-14 13.999z"/>
	</g>
		<path fill="url(#SVGID_6_)" d="m528.94 163.8h-474c-7.72 0-14-6.28-14-14v-107.68c0-7.721 6.28-14 14-14h474c7.721 0 14 6.279 14 14v107.69c0 7.719-6.281 13.999-14 13.999zm-472.26-129.41c-5.404 0-9.8 4.396-9.8 9.8v104.53c0 5.403 4.396 9.8 9.8 9.8h470.52c5.402 0 9.8-4.396 9.8-9.8v-104.53c0-5.403-4.396-9.8-9.8-9.8l-470.52-0.001z"/>
			<linearGradient id="SVGID_11_" y2="16.112" gradientUnits="userSpaceOnUse" x2="297.94" gradientTransform="matrix(1 0 0 -1 -6 184.23)" y1="205.11" x1="297.94">
			<stop stop-color="#e8e8e8" offset="0.254"/>
			<stop stop-color="#ededed" offset=".60770"/>
			<stop stop-color="#383838" offset=".65190"/>
			<stop stop-color="#141414" offset=".70170"/>
			<stop stop-color="#828282" offset=".7845"/>
			<stop offset=".8933"/>
		</linearGradient>
		<path fill="url(#SVGID_11_)" d="m528.94 163.8h-474c-7.72 0-14-6.28-14-14v-107.68c0-7.721 6.28-14 14-14h474c7.721 0 14 6.279 14 14v107.69c0 7.719-6.281 13.999-14 13.999zm-474-131.69c-5.514 0-10 4.485-10 10v107.69c0 5.514 4.486 10 10 10h474c5.515 0 10-4.486 10-10v-107.68c0-5.515-4.485-10-10-10h-474z"/>
</svg>
