<?xml version="1.0" encoding="UTF-8" standalone="no"?>
<svg id="svg3048" xmlns:rdf="http://www.w3.org/1999/02/22-rdf-syntax-ns#" xmlns="http://www.w3.org/2000/svg" version="1.1" xml:space="preserve" height="57.207px" width="555.1px" enable-background="new 0 0 555.098 57.207" y="0px" x="0px" xmlns:cc="http://creativecommons.org/ns#" xmlns:dc="http://purl.org/dc/elements/1.1/" viewBox="0 0 555.098 57.207"><metadata id="metadata3109"><rdf:RDF><cc:Work rdf:about=""><dc:format>image/svg+xml</dc:format><dc:type rdf:resource="http://purl.org/dc/dcmitype/StillImage"/><dc:title/></cc:Work></rdf:RDF></metadata>
<g id="g3144" transform="matrix(2.5739887,0,0,1.3922238,21.460312,21.484557)"><g id="g3113" transform="matrix(0,-1,1,0,-0.071947,10.229)"><rect id="bgColor00" opacity="0.99" height="195.27" width="6.8666" y="1.5021" x="2.1458" fill="none"/><path id="path3116" fill="#666" d="M7.889,0.566h-5.621c-0.939,0-1.701,0.762-1.701,1.701v193.73c0,0.94,0.762,1.71,1.701,1.71h5.621c0.939,0,1.701-0.77,1.701-1.71v-193.73c0-0.942-0.761-1.704-1.701-1.704zm1.133,195.44c0,0.62-0.508,1.13-1.133,1.13h-5.621c-0.627,0-1.135-0.51-1.135-1.13v-193.74c0-0.627,0.508-1.136,1.135-1.136h5.621c0.625,0,1.133,0.509,1.133,1.134v193.74z"/><g id="g3118" fill="#333">
	<path id="path3120" opacity="0.05" d="M4.292,194.49c-0.686-0.31-1.059-0.66-1.059-1.27v-188.56c0-0.611,0.291-1.365,1.646-1.794l4.523-1.359c-0.281-0.556-0.85-0.94-1.514-0.94h-5.62c-0.939,0-1.701,0.762-1.701,1.701v193.74c0,0.93,0.762,1.7,1.701,1.7h5.621c0.77,0,1.412-0.52,1.621-1.22l-5.218-2z"/>
	<path id="path3122" opacity="0.1286" d="m2.268,0.566c-0.939,0-1.701,0.762-1.701,1.701v193.73c0,0.89,0.695,1.62,1.565,1.66,0.039,0.03,1.402,0.05,1.452,0.05h3.883c0.659,0,1.405-0.45,1.584-1.05l-5.049-1.79c-0.646-0.27-1.069-0.64-1.069-1.25v-189.3c0-0.533,0.262-1.152,1.105-1.527,0.139-0.069,0.386-0.141,0.567-0.199l4.503-1.221c-0.241-0.477-0.911-0.806-1.48-0.806h-5.36v-0.001z"/>
	<path id="path3124" opacity="0.2071" d="m2.268,0.566c-0.939,0-1.701,0.762-1.701,1.701v193.73c0,0.84,0.629,1.54,1.429,1.62,0.078,0.06,1.268,0.09,1.369,0.09h3.68c0.55,0,1.399-0.37,1.549-0.87l-4.88-1.59c-0.606-0.23-1.081-0.62-1.081-1.23v-190.04c0-0.55,0.317-1.171,1.124-1.484,0.116-0.058,0.423-0.127,0.575-0.175l4.483-1.083c-0.201-0.397-0.974-0.672-1.447-0.672h-5.1z"/>
	<path id="path3126" opacity="0.2857" d="m2.268,0.566c-0.939,0-1.701,0.762-1.701,1.701v193.73c0,0.79,0.563,1.45,1.293,1.58,0.116,0.08,1.134,0.13,1.285,0.13h3.477c0.439,0,1.393-0.3,1.512-0.7l-4.71-1.39c-0.567-0.17-1.091-0.59-1.091-1.21v-190.78c0-0.559,0.372-1.18,1.143-1.431,0.093-0.046,0.461-0.112,0.582-0.151l4.463-0.945c-0.161-0.317-1.035-0.537-1.414-0.537h-4.839z"/>
	<path id="path3128" opacity="0.3643" d="m2.268,0.566c-0.939,0-1.701,0.762-1.701,1.701v193.73c0,0.74,0.497,1.36,1.158,1.54,0.155,0.1,1,0.17,1.202,0.17h3.274c0.33,0,1.385-0.23,1.475-0.53l-4.54-1.18c-0.527-0.13-1.102-0.57-1.102-1.19v-191.52c0-0.575,0.427-1.198,1.161-1.386,0.07-0.035,0.5-0.099,0.59-0.127l4.442-0.808c-0.121-0.238-1.097-0.403-1.382-0.403h-4.577z"/>
	<path id="path3130" opacity="0.4429" d="m2.268,0.566c-0.939,0-1.701,0.762-1.701,1.701v193.73c0,0.69,0.43,1.28,1.022,1.5,0.194,0.13,0.866,0.21,1.118,0.21h3.072c0.22,0,1.378-0.15,1.438-0.35l-4.37-0.98c-0.487-0.09-1.113-0.55-1.113-1.17v-192.26c0-0.593,0.481-1.218,1.179-1.343,0.046-0.023,0.537-0.084,0.597-0.103l4.422-0.669c-0.08-0.159-1.157-0.269-1.348-0.269h-4.316z"/>
	<path id="path3132" opacity="0.5214" d="m2.268,0.566c-0.939,0-1.701,0.762-1.701,1.701v193.73c0,0.64,0.364,1.2,0.886,1.46,0.233,0.15,0.732,0.25,1.035,0.25h2.869c0.11,0,1.372-0.08,1.402-0.18l-4.201-0.77c-0.448-0.05-1.124-0.53-1.124-1.15v-193c-0.001-0.613,0.536-1.239,1.197-1.302,0.023-0.012,0.575-0.07,0.605-0.079l4.402-0.531c-0.04-0.079-1.22-0.134-1.314-0.134h-4.056v-0.001z"/>
	<path id="path3134" opacity="0.6" d="m2.268,197.14c-0.408,0-1.135-0.51-1.135-1.13v-193.74c0-0.627,0.592-1.255,1.217-1.255l4.994-0.448h-5.076c-0.939,0-1.701,0.762-1.701,1.701v193.74c0,0.93,0.762,1.7,1.701,1.7h4.031l-4.031-0.57z"/>
</g><path id="path3136" opacity="0.1" fill="#333" d="M7.889,0h-5.621c-1.252,0-2.268,1.018-2.268,2.268v193.74c0,1.25,1.016,2.26,2.268,2.26h5.621c1.25,0,2.268-1.01,2.268-2.26v-193.74c0-1.252-1.018-2.27-2.268-2.27zm1.699,196.01c0,0.93-0.76,1.7-1.699,1.7h-5.621c-0.939,0-1.701-0.77-1.701-1.7v-193.74c0-0.941,0.762-1.703,1.701-1.703h5.621c0.939,0,1.699,0.762,1.699,1.701v193.74z"/></g></g></svg>
