<?xml version="1.0" encoding="UTF-8" standalone="no"?>
<svg xmlns:rdf="http://www.w3.org/1999/02/22-rdf-syntax-ns#" xmlns="http://www.w3.org/2000/svg" xml:space="preserve" height="42.94" width="34.25" version="1.1" xmlns:cc="http://creativecommons.org/ns#" xmlns:dc="http://purl.org/dc/elements/1.1/" viewBox="0 0 34.25 42.94">
	<path opacity=".05" d="m-0.001 40.68 0.144 0.762c0.321 0.896 1.172 1.5 2.118 1.5h11.707s0.029-0.34 0.056-0.652c0.087-0.037 0.199-0.094 0.468-0.094 0 0 0.063 0.008 0.112 0.014 0.252 0.199 0.923 0.732 0.923 0.732h12.375c1.367 0 6.342-1.486 6.342-5.875 0-2.92 0.008-32.622 0.008-32.622 0-2.131-4.271-4.429-6.35-4.429l-12.355 0.001s-0.557 0.413-0.752 0.559c-0.132 0.019-0.305 0.044-0.305 0.044-0.21 0-0.412-0.042-0.553-0.107-0.027-0.257-0.057-0.513-0.057-0.513l-1.048 0.019h-7.547l0.067 0.067c-0.399-0.051-0.885-0.069-1.58-0.069h-1.511c-1.247-0.001-2.262 1.014-2.262 2.261v38.402z"/>
	<g opacity=".9571">
		<path opacity=".1857" d="m0.335 41.385c0.151 0.42 0.448 0.773 0.816 1 0.319 0.225 0.751 0.354 1.235 0.354h11.165c0.022 0 0.067-0.291 0.109-0.561 0.09-0.031 0.202-0.078 0.445-0.078 0.004 0 0.061 0.006 0.107 0.01 0.272 0.172 0.886 0.629 0.902 0.629 0-0.014 0.695-0.072 0.695-0.072h1.17c0.045-0.02 1.721-0.035 1.778-0.035 0.01 0 0.848 0.008 0.848 0.008l0.303 0.002s1.648 0.072 1.68 0.096h5.074c1.338 0 5.088-0.975 5.918-3.738 0.164-0.395 0.271-0.85 0.297-1.357 0.01-0.129 0.018-0.289 0.021-0.467 0-4.082 0.008-33.041 0.008-33.041 0-0.666-0.453-1.334-1.119-1.892-1.213-1.137-3.494-2.025-4.947-2.025-0.291 0-7.133 0.001-7.16 0.001-0.027 0.021-1.389 0.075-1.389 0.075l-0.374 0.002-0.843 0.008c-0.002 0.001-0.077 0.001-0.079 0.001-0.063 0-1.707-0.014-1.75-0.032-0.008 0-0.589 0.353-0.756 0.478-0.113 0.015-0.263 0.02-0.265 0.002-0.046-0.006-0.091-0.015-0.135-0.023-0.137-0.013-0.272-0.043-0.387-0.085-0.042-0.22-0.089-0.438-0.116-0.438-0.034 0-0.973 0.016-1.018 0.016h-7.349c-0.005 0 0.042 0.051 0.043 0.058-0.411-0.042-0.89-0.059-1.541-0.059h-1.462c-0.501 0-0.957 0.197-1.28 0.507-0.473 0.351-0.778 1.018-0.778 1.827v38.116c0.003 0.012 0.134 0.713 0.134 0.713z"/>
	</g>
	<g opacity=".8714">
		<path opacity=".4571" d="m0.724 41.271c0.133 0.365 0.437 0.676 0.798 0.826 0.212 0.15 0.612 0.236 1.118 0.236h10.081c0.065 0 0.144-0.193 0.217-0.373 0.097-0.021 0.206-0.055 0.4-0.055 0.011 0 0.058 0.006 0.098 0.008 0.308 0.113 0.807 0.42 0.856 0.42 0-0.043 0.464-0.217 0.464-0.217h1.033c0.137-0.061 1.377-0.104 1.548-0.104 0.024 0.002 0.736 0.021 0.736 0.021l0.256 0.008s1.313 0.219 1.404 0.291h4.443c1.621 0 4.957-0.65 5.512-2.494 0.213-0.264 0.383-0.617 0.457-1.043 0.029-0.164 0.055-0.33 0.066-0.482 0-2.773 0.004-34.798 0.004-34.798 0-0.6-0.441-1.171-1.057-1.542-0.809-0.758-2.881-1.351-4.447-1.351h-6.254c-0.082 0.062-1.161 0.226-1.161 0.226l-0.326 0.006-0.73 0.025c-0.008 0.001-0.063 0.001-0.069 0.001-0.188 0-1.398-0.041-1.529-0.097-0.025 0-0.653 0.229-0.765 0.313-0.075 0.01-0.18-0.028-0.186-0.08-0.031-0.016-0.063-0.035-0.093-0.053-0.106-0.009-0.234-0.029-0.366-0.058-0.07-0.146-0.154-0.293-0.233-0.293-0.103 0-0.823 0.011-0.959 0.011h-6.947c-0.015 0 0.004 0.033-0.007 0.039-0.435-0.028-0.901-0.038-1.464-0.038h-1.361c-0.489 0-0.919 0.258-1.134 0.618-0.315 0.236-0.52 0.92-0.52 1.87v37.542c0.007 0.037 0.117 0.617 0.117 0.617z"/>
	</g>
	<g opacity=".8286">
		<path opacity=".5929" d="m0.917 41.215c0.125 0.338 0.431 0.627 0.79 0.74 0.159 0.111 0.542 0.176 1.059 0.176h9.539c0.086 0 0.182-0.146 0.27-0.279 0.1-0.016 0.208-0.039 0.378-0.039 0.015 0 0.057 0.002 0.092 0.004 0.327 0.086 0.768 0.314 0.834 0.314 0-0.057 0.348-0.289 0.348-0.289h0.965c0.182-0.078 1.205-0.137 1.433-0.137 0.034 0.002 0.68 0.027 0.68 0.027l0.231 0.01s1.148 0.291 1.267 0.389h4.131c1.766 0 4.893-0.488 5.309-1.871 0.236-0.197 0.438-0.502 0.539-0.887 0.037-0.182 0.068-0.352 0.086-0.488 0-2.123 0.004-35.679 0.004-35.679 0-0.565-0.438-1.091-1.025-1.367-0.605-0.569-2.574-1.015-4.197-1.015-1.16 0-5.69 0.001-5.8 0.001-0.11 0.081-1.05 0.3-1.05 0.3l-0.304 0.006-0.673 0.035h-0.063c-0.25 0-1.245-0.056-1.42-0.127-0.033-0.001-0.686 0.168-0.769 0.229-0.057 0.008-0.139-0.052-0.147-0.121-0.025-0.021-0.05-0.047-0.074-0.068-0.091-0.007-0.215-0.021-0.355-0.043-0.084-0.109-0.187-0.221-0.293-0.221-0.137 0-0.748 0.009-0.929 0.009h-6.746c-0.021 0-0.015 0.025-0.032 0.028-0.443-0.019-0.906-0.028-1.423-0.028h-1.31c-0.483 0-0.9 0.288-1.062 0.677-0.237 0.176-0.39 0.866-0.39 1.89v37.255c0.008 0.049 0.107 0.569 0.107 0.569z"/>
	</g>
	<g opacity=".7857">
		<path opacity=".7286" d="m1.11 41.156c0.116 0.311 0.425 0.578 0.78 0.654 0.107 0.076 0.474 0.119 1.001 0.119h8.997c0.108 0 0.22-0.098 0.324-0.188 0.104-0.01 0.21-0.025 0.356-0.025 0.019 0 0.055 0.002 0.087 0.002 0.345 0.057 0.729 0.209 0.812 0.209 0-0.07 0.232-0.359 0.232-0.359h0.897c0.228-0.1 1.032-0.172 1.317-0.172 0.042 0.002 0.624 0.035 0.624 0.035l0.21 0.012s0.979 0.367 1.129 0.486h3.815c1.906 0 4.826-0.326 5.105-1.246 0.262-0.133 0.492-0.389 0.617-0.732 0.049-0.195 0.088-0.371 0.107-0.494 0-1.471 0.002-36.56 0.002-36.56 0-0.532-0.428-1.008-0.992-1.192-0.404-0.38-2.268-0.677-3.947-0.677-1.451 0-5.209 0.001-5.346 0.001-0.137 0.103-0.934 0.375-0.934 0.375l-0.281 0.009-0.616 0.043c-0.011 0.001-0.046 0.001-0.058 0.001-0.313 0-1.091-0.068-1.31-0.159-0.041-0.001-0.718 0.105-0.773 0.147-0.038 0.005-0.097-0.074-0.107-0.162-0.018-0.027-0.036-0.058-0.054-0.085-0.075-0.004-0.195-0.014-0.345-0.027-0.099-0.073-0.22-0.146-0.352-0.146-0.171 0-0.673 0.006-0.899 0.006h-6.546c-0.025 0-0.034 0.018-0.057 0.02-0.455-0.016-0.911-0.022-1.385-0.022h-1.259c-0.478 0-0.881 0.318-0.989 0.732-0.157 0.118-0.26 0.816-0.26 1.91v36.969c0.011 0.059 0.098 0.516 0.098 0.516z"/>
	</g>
	<g opacity=".7429">
		<path opacity=".8643" d="m1.305 41.102c0.107 0.281 0.419 0.529 0.771 0.566 0.053 0.037 0.404 0.059 0.942 0.059h8.455c0.13 0 0.258-0.049 0.377-0.094 0.106-0.004 0.211-0.012 0.333-0.012h0.083c0.362 0.029 0.69 0.105 0.789 0.105 0-0.084 0.116-0.434 0.116-0.434h0.829c0.273-0.119 0.859-0.205 1.202-0.205 0.05 0.002 0.567 0.041 0.567 0.041l0.187 0.014s0.813 0.439 0.992 0.582h3.501c2.047 0 4.762-0.162 4.898-0.623 0.287-0.064 0.549-0.271 0.699-0.576 0.059-0.213 0.105-0.391 0.129-0.5 0-0.816 0.002-37.439 0.002-37.439 0-0.499-0.424-0.928-0.963-1.02-0.201-0.189-1.959-0.338-3.697-0.338h-4.893c-0.163 0.122-0.82 0.45-0.82 0.45l-0.257 0.009-0.561 0.053h-0.052c-0.375 0-0.936-0.082-1.198-0.189-0.049-0.001-0.75 0.046-0.778 0.065-0.019 0.004-0.056-0.1-0.068-0.202-0.011-0.034-0.022-0.069-0.033-0.101-0.061-0.002-0.176-0.008-0.335-0.015-0.112-0.036-0.252-0.073-0.411-0.073-0.205 0-0.598 0.003-0.87 0.003h-6.345c-0.031 0-0.053 0.009-0.082 0.01-0.468-0.008-0.918-0.01-1.348-0.01h-1.209c-0.472 0-0.862 0.35-0.917 0.788-0.079 0.059-0.13 0.766-0.13 1.93v36.684c0.018 0.075 0.095 0.472 0.095 0.472z"/>
	</g>
	<g opacity=".7">
		<path d="m1.417 40.625c0.017 0.084 0.082 0.42 0.082 0.42 0.098 0.254 0.413 0.479 0.762 0.479h10.383v-0.504h0.761c0.319-0.139 0.687-0.24 1.087-0.24 0.059 0.002 0.512 0.051 0.512 0.051l0.164 0.016s0.645 0.512 0.854 0.68h7.883c0.313 0 0.604-0.158 0.779-0.42 0.068-0.229 0.123-0.412 0.15-0.508v-38.319c0-0.466-0.416-0.845-0.932-0.845h-7.887c-0.189 0.144-0.707 0.525-0.707 0.525l-0.232 0.01-0.504 0.061c-0.016 0.001-0.031 0.001-0.047 0.001-0.438 0-0.782-0.096-1.088-0.223-0.058-0.001-0.782-0.016-0.782-0.016s-0.025-0.22-0.041-0.359h-10.354c-0.466 0-0.844 0.379-0.844 0.845 0.001-0.001 0.001 38.237 0.001 38.346z"/>
	</g>
<linearGradient id="path50_1_" x1="269.23" gradientUnits="userSpaceOnUse" y1="-297.88" gradientTransform="matrix(0 -1 -1 0 -280.18 316.21)" x2="334.64" y2="-305.99">
	<stop stop-color="#b0b0b0" offset="0"/>
	<stop stop-color="#adadad" offset=".3248"/>
	<stop stop-color="#a3a3a3" offset=".5837"/>
	<stop stop-color="#929292" offset=".8191"/>
	<stop stop-color="#808080" offset="1"/>
</linearGradient>
<path d="m21.002 1.13h-5.079l-3.532 2.871v33.813l4.677 0.068 4.209 0.416 7.643 2.941c0.115-0.172 0.199-0.363 0.199-0.58v-38.401c0-0.622-0.545-1.127-1.217-1.127l-6.9-0.001z" fill="url(#path50_1_)"/>
<linearGradient id="path57_1_" x1="282.67" gradientUnits="userSpaceOnUse" y1="-290.67" gradientTransform="matrix(0 -1 -1 0 -280.18 316.21)" x2="272.72" y2="-305.56">
	<stop stop-color="#f2f2f2" offset=".1292"/>
	<stop stop-color="#c7c7c7" offset=".8764"/>
</linearGradient>
<path d="m17.068 37.883-4.678-0.068v1.102l3.532 2.871h11.98c0.436 0 0.803-0.225 1.016-0.547l-7.643-2.941-4.207-0.417z" fill="url(#path57_1_)"/>
<linearGradient id="path66_1_" x1="267.73" gradientUnits="userSpaceOnUse" y1="-281.99" gradientTransform="matrix(0 -1 -1 0 -280.18 316.21)" x2="335.35" y2="-290.36">
	<stop stop-color="#fff" offset="0"/>
	<stop stop-color="#808080" offset=".9326"/>
	<stop stop-color="#4f4f4f" offset="1"/>
</linearGradient>
<path d="m1.132 2.257v38.403c0 0.133 0.033 0.258 0.076 0.377l3.587-3.332 4.745 0.068v-33.771l3.293-2.871h-10.572c-0.623-0.001-1.129 0.504-1.129 1.126z" fill="url(#path66_1_)"/>
<linearGradient id="path73_1_" x1="276.45" gradientUnits="userSpaceOnUse" y1="-279.58" gradientTransform="matrix(0 -1 -1 0 -280.18 316.21)" x2="276.45" y2="-300.14">
	<stop stop-color="#fff" offset="0"/>
	<stop stop-color="#c7c7c7" offset=".7022"/>
</linearGradient>
<path d="m1.208 41.037c0.156 0.434 0.562 0.75 1.052 0.75h3.024l7.638 0.02-3.388-2.943 0.006-1.088-4.745-0.068-3.587 3.329z" fill="url(#path73_1_)"/>
<polygon points="9.541 38.863 12.928 41.828 12.928 41.281 10.099 38.896 10.099 4.033 12.914 1.543 12.866 1.113 9.541 4.002" fill="#a1a1a1"/>
<path id="bgColor00" d="m14.491 1.732c-0.415 0-0.789-0.088-1.073-0.228l-0.456-0.009-2.91 2.536 0.047 34.832 2.829 2.418h0.465c0.286-0.146 0.672-0.238 1.099-0.238 0.2 0 0.39 0.021 0.566 0.059l-2.667-2.186v-34.914l2.871-2.381c-0.23 0.069-0.491 0.111-0.771 0.111z" fill="#f00"/>
<linearGradient id="path86_1_" x1="294.78" gradientUnits="userSpaceOnUse" y1="-311.92" gradientTransform="matrix(0 -1 -1 0 -280.18 316.21)" x2="294.78" y2="-295.86">
	<stop stop-color="#fff" offset="0"/>
	<stop stop-color="#808080" offset=".7584"/>
	<stop stop-color="#3b3b3b" offset=".8596"/>
</linearGradient>
<path d="m27.084 2.298c1.279-0.232 1.207 1.094 1.207 1.094v35.598c0 0.805-0.104 1.908-1.324 1.502l-5.398-2.211-3.127-0.291v-33.598l3.127-0.275 5.515-1.819z" fill="url(#path86_1_)"/>
<linearGradient id="path93_1_" x1="294.72" gradientUnits="userSpaceOnUse" y1="-281.33" gradientTransform="matrix(0 -1 -1 0 -280.18 316.21)" x2="294.72" y2="-285.77">
	<stop stop-color="#fff" offset="0"/>
	<stop stop-color="#c7c7c7" offset=".7022"/>
</linearGradient>
<path d="m1.56 3.428v35.972c0 0.939-0.153 1.615 0.373 1.668l1.89-2.207 0.246-0.926v-33.041l-0.246-0.926-1.994-2.064c-0.371 0-0.269 0.586-0.269 1.524z" fill="url(#path93_1_)"/>
<g fill="#fbfbfb">
	<rect y="4.65" width="5.202" x="4.326" height="33.424"/>
	<polygon opacity=".3" points="9.527 38.76 9.527 38.074 4.326 38.074 4.326 4.65 9.527 4.65 9.527 3.964 4.053 3.964 4.053 38.76"/>
</g>
<g fill="#fbfbfb">
	<rect y="4.65" width="5.202" x="12.377" height="33.424"/>
	<polygon opacity=".3" points="12.377 38.76 12.377 38.074 17.58 38.074 17.58 4.65 12.377 4.65 12.377 3.964 18.258 3.964 18.258 38.76"/>
</g>
<polygon points="12.382 38.879 12.066 38.879 12.066 4.23 12.388 4.247" fill="#4d4d4d"/>
</svg>
