<?xml version="1.0" encoding="UTF-8" standalone="no"?>
<!DOCTYPE svg  PUBLIC '-//W3C//DTD SVG 1.1//EN'  'http://www.w3.org/Graphics/SVG/1.1/DTD/svg11.dtd'>
<svg xmlns="http://www.w3.org/2000/svg" xml:space="preserve" height="28.17px" viewBox="0 0 61.29 28.17" width="61.29px" version="1.1" y="0px" x="0px" xmlns:xlink="http://www.w3.org/1999/xlink" enable-background="new 0 0 61.29 28.17">
		<g opacity=".05">
				<linearGradient id="path3112_2_" y2="-1079.2" gradientUnits="userSpaceOnUse" x2="905.15" gradientTransform="matrix(4.4897e-11 -1 -1 -4.4897e-11 -1014.7 919.23)" y1="-1009.8" x1="905.15">
				<stop stop-color="#6B6B6B" offset="0"/>
				<stop stop-color="#707070" offset=".2295"/>
				<stop stop-color="#7A7A7A" offset=".4326"/>
				<stop stop-color="#333" offset=".8483"/>
			</linearGradient>
			<path d="m0.281 23.635c0 2.768 3.278 4.535 5.534 4.535h2.449c0.254-0.01 17.558-0.813 20.288-0.813 2.733 0 21.767 0.805 21.957 0.813l5.522 0.001c2.258 0 5.535-1.768 5.535-4.535v-19.102c0.001-2.769-3.276-4.534-5.534-4.534h-5.449c-0.23 0.006-18.172 0.526-21.917 0.526-3.742 0-20.183-0.52-20.349-0.526h-2.502c-2.256 0-5.534 1.769-5.534 4.534v19.101z" fill="url(#path3112_2_)"/>
		</g>
		<g opacity=".1857">
				<linearGradient id="path3125_2_" y2="-1078.4" gradientUnits="userSpaceOnUse" x2="905.15" gradientTransform="matrix(4.4897e-11 -1 -1 -4.4897e-11 -1014.7 919.23)" y1="-1010.1" x1="905.15">
				<stop stop-color="#5C5C5C" offset="0"/>
				<stop stop-color="#616161" offset=".2514"/>
				<stop stop-color="#696969" offset=".4326"/>
				<stop stop-color="#2C2C2C" offset=".8483"/>
			</linearGradient>
			<path opacity=".9857" d="m0.524 23.635c0 2.597 3.134 4.292 5.291 4.292h2.449c0.217-0.008 17.546-0.815 20.288-0.815 2.744 0 21.804 0.808 21.97 0.813l5.079 0.001c2.158 0 5.291-1.693 5.291-4.292v-19.1c0-2.6-3.133-4.293-5.291-4.293h-5.021c-0.196 0.006-18.164 0.529-21.917 0.529-3.751 0-20.212-0.523-20.354-0.529h-2.494c-2.157 0-5.291 1.693-5.291 4.293v19.101z" enable-background="new    " fill="url(#path3125_2_)"/>
		</g>
		<g opacity=".3214">
				<linearGradient id="path3138_2_" y2="-1077.7" gradientUnits="userSpaceOnUse" x2="905.15" gradientTransform="matrix(4.4897e-11 -1 -1 -4.4897e-11 -1014.7 919.23)" y1="-1010.5" x1="905.15">
				<stop stop-color="#4C4C4C" offset="0"/>
				<stop stop-color="#525252" offset=".2801"/>
				<stop stop-color="#575757" offset=".4326"/>
				<stop stop-color="#242424" offset=".8483"/>
			</linearGradient>
			<path opacity=".9714" d="m0.766 23.635c0 2.425 2.99 4.05 5.049 4.05h2.449c0.18-0.008 17.536-0.814 20.288-0.814 2.754 0 21.84 0.808 21.979 0.814h4.643c2.061 0 5.051-1.625 5.051-4.05v-19.101c0-2.428-2.99-4.051-5.051-4.051h-4.592c-0.164 0.004-18.152 0.53-21.917 0.53-3.761 0-20.244-0.525-20.361-0.529h-2.489c-2.059 0-5.049 1.623-5.049 4.051v19.1z" enable-background="new    " fill="url(#path3138_2_)"/>
		</g>
		<g opacity=".4571">
				<linearGradient id="path3151_2_" y2="-1077" gradientUnits="userSpaceOnUse" x2="905.15" gradientTransform="matrix(4.4897e-11 -1 -1 -4.4897e-11 -1014.7 919.23)" y1="-1010.8" x1="905.15">
				<stop stop-color="#3D3D3D" offset="0"/>
				<stop stop-color="#424242" offset=".3196"/>
				<stop stop-color="#464646" offset=".4326"/>
				<stop stop-color="#1D1D1D" offset=".8483"/>
			</linearGradient>
			<path opacity=".9571" d="m1.01 23.635c0 2.252 2.846 3.808 4.807 3.808h2.447c0.145-0.006 17.527-0.816 20.288-0.816 2.765 0 21.877 0.811 21.987 0.813h4.203c1.961 0 4.808-1.554 4.808-3.807v-19.101c0-2.254-2.847-3.807-4.808-3.807h-4.162c-0.133 0.004-18.146 0.528-21.917 0.528s-20.274-0.524-20.37-0.527h-2.478c-1.959 0-4.807 1.553-4.807 3.807l0.002 19.102z" enable-background="new    " fill="url(#path3151_2_)"/>
		</g>
		<g opacity=".5929">
				<linearGradient id="path3164_2_" y2="-1076.3" gradientUnits="userSpaceOnUse" x2="905.15" gradientTransform="matrix(4.4897e-11 -1 -1 -4.4897e-11 -1014.7 919.23)" y1="-1011.1" x1="905.15">
				<stop stop-color="#2E2E2E" offset="0"/>
				<stop stop-color="#333" offset=".379"/>
				<stop stop-color="#343434" offset=".4326"/>
				<stop stop-color="#161616" offset=".8483"/>
			</linearGradient>
			<path opacity=".9429" d="m1.253 23.635c0 2.081 2.702 3.563 4.563 3.563h2.449c0.108-0.005 17.516-0.815 20.287-0.815 2.772 0 21.916 0.812 21.998 0.814h3.767c1.86 0 4.563-1.481 4.563-3.563v-19.1c0-2.082-2.701-3.563-4.563-3.563h-3.734c-0.1 0.005-18.133 0.528-21.917 0.528-3.78 0-20.307-0.523-20.378-0.528h-2.473c-1.861 0-4.563 1.479-4.563 3.563l0.001 19.101z" enable-background="new    " fill="url(#path3164_2_)"/>
		</g>
		<g opacity=".7286">
				<linearGradient id="path3175_2_" y2="-1075.6" gradientUnits="userSpaceOnUse" x2="905.15" gradientTransform="matrix(4.4897e-11 -1 -1 -4.4897e-11 -1014.7 919.23)" y1="-1011.4" x1="905.15">
				<stop stop-color="#1F1F1F" offset="0"/>
				<stop stop-color="#232323" offset=".4326"/>
				<stop stop-color="#0F0F0F" offset=".8483"/>
			</linearGradient>
			<path opacity=".9286" d="m1.495 23.635c0 1.909 2.559 3.32 4.32 3.32h2.449c0.073-0.003 17.507-0.813 20.288-0.813 2.782 0 21.955 0.812 22.008 0.813h3.326c1.767 0 4.319-1.411 4.319-3.32v-19.101c0-1.909-2.559-3.319-4.319-3.319h-3.306c-0.065 0.002-18.125 0.529-21.917 0.529s-20.338-0.527-20.386-0.529h-2.462c-1.762 0-4.32 1.41-4.32 3.319v19.101z" enable-background="new    " fill="url(#path3175_2_)"/>
		</g>
		<g opacity=".8643">
				<linearGradient id="path3186_2_" y2="-1074.9" gradientUnits="userSpaceOnUse" x2="905.15" gradientTransform="matrix(4.4897e-11 -1 -1 -4.4897e-11 -1014.7 919.23)" y1="-1011.7" x1="905.15">
				<stop stop-color="#0F0F0F" offset="0"/>
				<stop stop-color="#111" offset=".4326"/>
				<stop stop-color="#070707" offset=".8483"/>
			</linearGradient>
			<path opacity=".9143" d="m1.739 23.635c0 1.737 2.414 3.077 4.078 3.077h2.447c0.038-0.001 17.497-0.813 20.288-0.813 2.793 0 21.989 0.813 22.021 0.813h2.889c1.664 0 4.076-1.34 4.076-3.077v-19.101c0-1.737-2.412-3.076-4.076-3.076h-2.879c-0.033 0.001-18.113 0.527-21.917 0.527-3.801 0-20.37-0.526-20.395-0.527h-2.456c-1.664 0-4.078 1.339-4.078 3.076l0.002 19.101z" enable-background="new    " fill="url(#path3186_2_)"/>
		</g>
		<path opacity=".9" enable-background="new    " d="m1.981 4.534v19.101c0 1.564 2.27 2.834 3.834 2.834h2.449s17.485-0.813 20.288-0.813c2.804 0 22.03 0.813 22.03 0.813h2.445c1.565 0 3.838-1.27 3.838-2.834v-19.101c0-1.565-2.271-2.834-3.838-2.834h-2.445s-18.105 0.527-21.918 0.527-20.401-0.527-20.401-0.527h-2.448c-1.564 0-3.834 1.269-3.834 2.834z"/>
	<path id="bgColor00_3_" d="m2.113 4.599v19.1c0 1.563 2.27 2.834 3.834 2.834h2.449s17.485-0.814 20.288-0.814c2.801 0 22.028 0.814 22.028 0.814h2.448c1.564 0 3.834-1.271 3.834-2.834v-19.1c0-1.566-2.27-2.834-3.834-2.834h-2.448s-18.104 0.526-21.916 0.526-20.4-0.526-20.4-0.526h-2.449c-1.564 0-3.834 1.263-3.834 2.834z"/>
		<linearGradient id="path4053_2_" y2="-396.64" gradientUnits="userSpaceOnUse" x2="328.17" gradientTransform="matrix(4.4897e-11 -1 -1 -4.4897e-11 -335.61 342.34)" y1="-334.46" x1="328.17">
		<stop stop-color="#fff" stop-opacity=".59" offset=".0545"/>
		<stop stop-color="#fff" stop-opacity=".24" offset=".1394"/>
		<stop stop-color="#fff" stop-opacity=".5" offset=".4364"/>
		<stop stop-color="#fff" stop-opacity=".12" offset=".8909"/>
		<stop stop-color="#fff" stop-opacity="0" offset="1"/>
	</linearGradient>
	<path d="m5.947 1.765c-1.564 0-3.834 1.266-3.834 2.834v19.1c0 1.563 2.27 2.834 3.834 2.834h2.449s17.485-0.814 20.288-0.814c2.801 0 21.997 0.995 21.997 0.995l2.522-0.082c1.722 0 3.865-1.437 3.865-3.001v-19.095c0-1.566-2.301-2.906-3.865-2.906h-2.492s-18.102 0.662-21.914 0.662-20.4-0.527-20.4-0.527h-2.45zm45.988 0.563c0.824 0 1.271 0.362 1.271 2.269v19.101c0 1.906-0.447 2.268-1.271 2.268 0 0-19.354-0.553-22.941-0.553s-21.823 0.554-21.823 0.554c-0.822 0-1.268-0.361-1.268-2.269v-19.102c0-1.907 0.445-2.269 1.268-2.269 0 0 17.676 0.666 21.487 0.666 3.811 0.001 23.277-0.665 23.277-0.665z" fill="url(#path4053_2_)"/>
		<linearGradient id="path3222_2_" y2="-1085.5" gradientUnits="userSpaceOnUse" x2="905.08" gradientTransform="matrix(4.4897e-11 -1 -1 -4.4897e-11 -1014.7 919.23)" y1="-1011.3" x1="905.08">
		<stop stop-color="#fff" stop-opacity="0" offset="0"/>
		<stop stop-color="#fff" stop-opacity=".7" offset="1"/>
	</linearGradient>
	<path d="m5.903 23.698c0 1.906 0.445 2.269 1.268 2.269 0 0 18.235-0.554 21.823-0.554s22.941 0.553 22.941 0.553c0.822 0 1.271-0.36 1.271-2.268v-19.101c0-1.904-0.445-2.269-1.271-2.269 0 0-19.467 0.666-23.277 0.666-3.812 0-21.487-0.666-21.487-0.666-0.822 0-1.268 0.36-1.268 2.269v19.101z" fill="url(#path3222_2_)"/>
	<rect id="bgColor00_1_" height="21.131" width="1.713" y="3.586" x="28.728" fill="#f00"/>
	<polygon opacity=".27" enable-background="new    " points="29.683 24.355 29.683 4.022 30.508 3.614 30.508 24.806" fill="#707070"/>
	<g fill="#fff">
		<polygon opacity=".15" enable-background="new    " points="7.257 3.381 7.257 24.836 6.694 25.33 6.694 2.903"/>
		<polygon opacity=".25" enable-background="new    " points="7.882 2.903 7.882 25.33 6.694 25.33 7.257 24.836 7.257 3.381 6.694 2.903"/>
	</g>
	<g fill="#fff">
		<polygon opacity=".15" enable-background="new    " points="9.884 3.53 9.884 24.652 9.266 25.14 9.266 3.063"/>
		<polygon opacity=".25" enable-background="new    " points="10.569 3.063 10.569 25.14 9.266 25.14 9.884 24.652 9.884 3.53 9.266 3.063"/>
	</g>
	<g fill="#fff">
		<polygon opacity=".15" enable-background="new    " points="12.659 3.618 12.659 24.62 12.026 25.104 12.026 3.151"/>
		<polygon opacity=".25" enable-background="new    " points="13.362 3.151 13.362 25.104 12.026 25.104 12.659 24.62 12.659 3.618 12.026 3.151"/>
	</g>
	<g fill="#fff">
		<polygon opacity=".15" enable-background="new    " points="15.734 3.573 15.734 24.578 14.978 25.063 14.978 3.106"/>
		<polygon opacity=".25" enable-background="new    " points="16.573 3.106 16.573 25.063 14.978 25.063 15.734 24.578 15.734 3.573 14.978 3.106"/>
	</g>
	<g fill="#fff">
		<polygon opacity=".15" enable-background="new    " points="19.288 3.751 19.288 24.564 18.488 25.042 18.488 3.289"/>
		<polygon opacity=".25" enable-background="new    " points="20.175 3.289 20.175 25.042 18.488 25.042 19.288 24.564 19.288 3.751 18.488 3.289"/>
	</g>
	<g fill="#fff">
		<polygon opacity=".15" enable-background="new    " points="27.094 4.008 27.094 24.269 26.294 24.733 26.294 3.56"/>
		<polygon opacity=".25" enable-background="new    " points="27.98 3.56 27.98 24.733 26.294 24.733 27.094 24.269 27.094 4.008 26.294 3.56"/>
	</g>
	<polygon opacity=".1" enable-background="new    " points="32.204 4.013 32.204 24.273 31.368 24.738 31.368 3.563" fill="#020202"/>
	<polygon opacity=".25" enable-background="new    " points="33.133 3.563 33.133 24.738 31.368 24.738 32.204 24.273 32.204 4.013 31.368 3.563" fill="#fff"/>
	<polygon opacity=".1" enable-background="new    " points="35.944 3.879 35.944 24.398 35.108 24.869 35.108 3.424" fill="#020202"/>
	<polygon opacity=".25" enable-background="new    " points="36.872 3.424 36.872 24.869 35.108 24.869 35.944 24.398 35.944 3.879 35.108 3.424" fill="#fff"/>
	<polygon opacity=".15" enable-background="new    " points="39.702 3.718 39.702 24.552 38.866 25.03 38.866 3.256" fill="#020202"/>
	<polygon opacity=".25" enable-background="new    " points="40.629 3.256 40.629 25.03 38.866 25.03 39.702 24.552 39.702 3.718 38.866 3.256" fill="#fff"/>
	<polygon opacity=".35" enable-background="new    " points="43.272 3.731 43.272 24.729 42.522 25.211 42.522 3.267" fill="#020202"/>
	<polygon opacity=".35" enable-background="new    " points="44.106 3.267 44.106 25.211 42.522 25.211 43.272 24.729 43.272 3.731 42.522 3.267" fill="#fff"/>
	<polygon opacity=".35" enable-background="new    " points="46.327 3.672 46.327 24.669 45.659 25.151 45.659 3.206" fill="#020202"/>
	<polygon opacity=".35" enable-background="new    " points="47.069 3.206 47.069 25.151 45.659 25.151 46.327 24.669 46.327 3.672 45.659 3.206" fill="#fff"/>
	<polygon opacity=".35" enable-background="new    " points="49.12 3.638 49.12 24.728 48.485 25.211 48.485 3.17" fill="#020202"/>
	<polygon opacity=".4" enable-background="new    " points="49.825 3.17 49.825 25.211 48.485 25.211 49.12 24.728 49.12 3.638 48.485 3.17" fill="#fff"/>
	<polygon opacity=".35" enable-background="new    " points="51.78 3.464 51.78 24.899 51.217 25.393 51.217 2.987" fill="#020202"/>
	<polygon opacity=".4" enable-background="new    " points="52.403 2.987 52.403 25.393 51.217 25.393 51.78 24.899 51.78 3.464 51.217 2.987" fill="#fff"/>
	<g fill="#fff">
		<polygon opacity=".15" enable-background="new    " points="23.047 3.923 23.047 24.47 22.211 24.942 22.211 3.467"/>
		<polygon opacity=".25" enable-background="new    " points="23.974 3.467 23.974 24.942 22.211 24.942 23.047 24.47 23.047 3.923 22.211 3.467"/>
	</g>
</svg>
