<?xml version="1.0" encoding="UTF-8" standalone="no"?>
<svg xmlns:rdf="http://www.w3.org/1999/02/22-rdf-syntax-ns#" xmlns="http://www.w3.org/2000/svg" xml:space="preserve" overflow="visible" height="52.368" viewBox="0 0 37.632 52.368" width="37.63" version="1.0" enable-background="new 0 0 37.632 52.368" xmlns:cc="http://creativecommons.org/ns#" xmlns:xlink="http://www.w3.org/1999/xlink" xmlns:dc="http://purl.org/dc/elements/1.1/"><defs><linearGradient id="linearGradient10920" y2="71.984" gradientUnits="userSpaceOnUse" x2="-32.638" gradientTransform="translate(51.451 -46.906)" y1="99.259" x1="-32.638"><stop offset="0"/><stop stop-opacity="0" offset="1"/></linearGradient></defs>
<path id="bgColor00" fill="#f00" d="m16.812 0.125c-2.538 0.275-5.871 0.952-6.8432 2.125-0.78 0.948-1.6563 11.594-1.6563 11.594s-0.5497 28.37-0.4687 32.312c0.076 3.944 1.3864 5.047 3.3122 5.375h0.063l-1.031-6.281c-0.026-0.163 0.06-0.315 0.218-0.344 0.163-0.026 0.342 0.091 0.375 0.25l1.063 6.469c5.751 0.97 8.189 0.97 13.937 0l1.094-6.469c0.026-0.159 0.185-0.277 0.344-0.25 0.164 0.029 0.245 0.181 0.219 0.344l-1.032 6.281h0.063c1.925-0.328 3.23-1.43 3.312-5.375 0.081-3.941-0.469-32.312-0.469-32.312s-0.882-10.646-1.656-11.594c-0.971-1.173-4.302-1.85-6.844-2.125 1.405 1.763 2.488 3.65 3.376 5.625 0.986 2.206 1.722 4.52 2.374 6.938 0.034 0.158-0.06 0.3-0.218 0.343-0.048 0.013-0.11 0.043-0.156 0.031-4.91-0.77-9.842-0.77-14.75 0-0.046 0.012-0.078-0.018-0.126-0.031-0.156-0.043-0.259-0.185-0.218-0.343 0.649-2.418 1.387-4.732 2.375-6.938 0.885-1.976 1.947-3.863 3.343-5.625zm2 13.219c2.714 0 5.441 0.58 7.969 1.718l-2 4.938c-3.83-0.763-8.111-0.763-11.937 0l-2-4.938c2.529-1.138 5.255-1.718 7.968-1.718zm-9.0932 5.156s1.3682 3.542 1.5312 4.406c0.161 0.861-0.137 7.502-0.219 8.813-0.086 1.318-1.6248 5.719-1.6248 5.719l0.3126-18.938zm18.187 0l0.313 18.938s-1.544-4.401-1.625-5.719c-0.079-1.311-0.386-7.952-0.219-8.813 0.164-0.865 1.531-4.406 1.531-4.406zm-15.5 19.594c3.791 0.984 9.055 0.984 12.844 0l1.406 5.187c-3.442 1.79-12.246 1.79-15.687 0l1.437-5.187zm-0.629-25.691c0.609-2.242 1.307-4.39 2.216-6.423 0.943-2.103 2.118-4.088 3.663-5.936 0.782-0.06 1.533-0.06 2.321 0 1.546 1.848 2.72 3.833 3.661 5.936 0.911 2.033 1.604 4.181 2.218 6.423-4.722-0.675-9.36-0.675-14.079 0z"/>
<path opacity=".5" d="m16.812 0.125c-2.538 0.275-5.871 0.952-6.8432 2.125-0.78 0.948-1.6563 11.594-1.6563 11.594s-0.5497 28.37-0.4687 32.312c0.076 3.944 1.3864 5.047 3.3122 5.375h0.063l-1.031-6.281c-0.026-0.163 0.06-0.315 0.218-0.344 0.163-0.026 0.342 0.091 0.375 0.25l1.063 6.469c5.751 0.97 8.189 0.97 13.937 0l1.094-6.469c0.026-0.159 0.185-0.277 0.344-0.25 0.164 0.029 0.245 0.181 0.219 0.344l-1.032 6.281h0.063c1.925-0.328 3.23-1.43 3.312-5.375 0.081-3.941-0.469-32.312-0.469-32.312s-0.882-10.646-1.656-11.594c-0.971-1.173-4.302-1.85-6.844-2.125 1.405 1.763 2.488 3.65 3.376 5.625 0.986 2.206 1.722 4.52 2.374 6.938 0.034 0.158-0.06 0.3-0.218 0.343-0.048 0.013-0.11 0.043-0.156 0.031-4.91-0.77-9.842-0.77-14.75 0-0.046 0.012-0.078-0.018-0.126-0.031-0.156-0.043-0.259-0.185-0.218-0.343 0.649-2.418 1.387-4.732 2.375-6.938 0.885-1.976 1.947-3.863 3.343-5.625zm2 13.219c2.714 0 5.441 0.58 7.969 1.718l-2 4.938c-3.83-0.763-8.111-0.763-11.937 0l-2-4.938c2.529-1.138 5.255-1.718 7.968-1.718zm-9.0932 5.156s1.3682 3.542 1.5312 4.406c0.161 0.861-0.137 7.502-0.219 8.813-0.086 1.318-1.6248 5.719-1.6248 5.719l0.3126-18.938zm18.187 0l0.313 18.938s-1.544-4.401-1.625-5.719c-0.079-1.311-0.386-7.952-0.219-8.813 0.164-0.865 1.531-4.406 1.531-4.406zm-15.5 19.594c3.791 0.984 9.055 0.984 12.844 0l1.406 5.187c-3.442 1.79-12.246 1.79-15.687 0l1.437-5.187zm-0.629-25.691c0.609-2.242 1.307-4.39 2.216-6.423 0.943-2.103 2.118-4.088 3.663-5.936 0.782-0.06 1.533-0.06 2.321 0 1.546 1.848 2.72 3.833 3.661 5.936 0.911 2.033 1.604 4.181 2.218 6.423-4.722-0.675-9.36-0.675-14.079 0z" fill="url(#linearGradient10920)"/></svg>
