<?xml version="1.0" encoding="utf-8"?>
<!-- Generator: Adobe Illustrator 12.0.0, SVG Export Plug-In . SVG Version: 6.00 Build 51448)  -->
<!DOCTYPE svg PUBLIC "-//W3C//DTD SVG 1.1//EN" "http://www.w3.org/Graphics/SVG/1.1/DTD/svg11.dtd" [
	<!ENTITY ns_svg "http://www.w3.org/2000/svg">
	<!ENTITY ns_xlink "http://www.w3.org/1999/xlink">
]>
<svg  version="1.1" id="Livello_1" xmlns="&ns_svg;" xmlns:xlink="&ns_xlink;" width="85.039" height="85.039"
	 viewBox="0 0 85.039 85.039" overflow="visible" enable-background="new 0 0 85.039 85.039" xml:space="preserve">
<rect x="42.519" y="-42.519" fill="none" width="0.002" height="85.039"/>
<rect y="58.777" fill="#FFFFFF" width="85.039" height="6.498"/>
<rect y="52.271" fill="#BD0930" width="85.039" height="6.506"/>
<rect y="71.775" fill="#FFFFFF" width="85.039" height="6.5"/>
<rect y="78.275" fill="#BD0930" width="85.039" height="6.764"/>
<rect y="65.275" fill="#BD0930" width="85.039" height="6.5"/>
<polygon fill="#FFFFFF" points="37.843,45.826 0,45.826 0,52.271 85.039,52.271 85.039,45.771 37.843,45.771 "/>
<rect x="37.843" y="26.266" fill="#BD0930" width="47.196" height="6.5"/>
<rect x="37.843" y="6.762" fill="#FFFFFF" width="47.196" height="6.498"/>
<rect x="37.843" y="13.26" fill="#BD0930" width="47.196" height="6.506"/>
<rect x="37.843" y="39.266" fill="#BD0930" width="47.196" height="6.505"/>
<rect x="37.843" y="19.766" fill="#FFFFFF" width="47.196" height="6.5"/>
<rect x="37.843" y="32.766" fill="#FFFFFF" width="47.196" height="6.5"/>
<polygon fill="#FFFFFF" points="25.568,3.777 25.222,2.701 24.868,3.777 23.735,3.777 24.652,4.445 24.3,5.523 25.222,4.855 
	26.138,5.523 25.785,4.445 26.701,3.777 "/>
<polygon fill="#FFFFFF" points="25.222,14.326 26.138,14.988 25.785,13.91 26.701,13.242 25.568,13.242 25.222,12.166 
	24.868,13.242 23.735,13.242 24.652,13.91 24.3,14.988 "/>
<polygon fill="#FFFFFF" points="24.3,24.459 25.222,23.791 26.138,24.459 25.785,23.381 26.701,22.713 25.568,22.713 25.222,21.637 
	24.868,22.713 23.735,22.713 24.652,23.381 "/>
<polygon fill="#FFFFFF" points="24.3,34.146 25.222,33.477 26.138,34.146 25.785,33.063 26.701,32.4 25.568,32.4 25.222,31.316 
	24.868,32.4 23.735,32.4 24.652,33.063 "/>
<polygon fill="#FFFFFF" points="25.568,41.643 25.222,40.564 24.868,41.643 23.735,41.643 24.652,42.311 24.3,43.389 25.222,42.719 
	26.138,43.389 25.785,42.311 26.701,41.643 "/>
<polygon fill="#FFFFFF" points="17.081,3.777 16.731,2.701 16.382,3.777 15.246,3.777 16.163,4.445 15.813,5.523 16.731,4.855 
	17.647,5.523 17.298,4.445 18.218,3.777 "/>
<polygon fill="#FFFFFF" points="18.218,13.242 17.081,13.242 16.731,12.166 16.382,13.242 15.246,13.242 16.163,13.91 
	15.813,14.988 16.731,14.326 17.647,14.988 17.298,13.91 "/>
<polygon fill="#FFFFFF" points="17.081,22.713 16.731,21.637 16.382,22.713 15.246,22.713 16.163,23.381 15.813,24.459 
	16.731,23.791 17.647,24.459 17.298,23.381 18.218,22.713 "/>
<polygon fill="#FFFFFF" points="15.813,34.146 16.731,33.477 17.647,34.146 17.298,33.063 18.218,32.4 17.081,32.4 16.731,31.316 
	16.382,32.4 15.246,32.4 16.163,33.063 "/>
<polygon fill="#FFFFFF" points="17.081,41.643 16.731,40.564 16.382,41.643 15.246,41.643 16.163,42.311 15.813,43.389 
	16.731,42.719 17.647,43.389 17.298,42.311 18.218,41.643 "/>
<polygon fill="#FFFFFF" points="8.595,3.777 8.249,2.701 7.893,3.777 6.763,3.777 7.679,4.445 7.326,5.523 8.249,4.855 9.165,5.523 
	8.812,4.445 9.728,3.777 "/>
<polygon fill="#FFFFFF" points="7.326,14.988 8.249,14.326 9.165,14.988 8.812,13.91 9.728,13.242 8.595,13.242 8.249,12.166 
	7.893,13.242 6.763,13.242 7.679,13.91 "/>
<polygon fill="#FFFFFF" points="8.595,22.713 8.249,21.637 7.893,22.713 6.763,22.713 7.679,23.381 7.326,24.459 8.249,23.791 
	9.165,24.459 8.812,23.381 9.728,22.713 "/>
<polygon fill="#FFFFFF" points="7.326,34.146 8.249,33.477 9.165,34.146 8.812,33.063 9.728,32.4 8.595,32.4 8.249,31.316 
	7.893,32.4 6.763,32.4 7.679,33.063 "/>
<polygon fill="#FFFFFF" points="8.595,41.643 8.249,40.564 7.893,41.643 6.763,41.643 7.679,42.311 7.326,43.389 8.249,42.719 
	9.165,43.389 8.812,42.311 9.728,41.643 "/>
<polygon fill="#FFFFFF" points="0.325,4.445 1.241,3.777 0.105,3.777 0,3.453 0,5.033 0.675,5.523 "/>
<polygon fill="#FFFFFF" points="0.325,13.91 1.241,13.242 0.105,13.242 0,12.918 0,14.502 0.675,14.988 "/>
<polygon fill="#FFFFFF" points="0.325,23.381 1.241,22.713 0.105,22.713 0,22.389 0,23.969 0.675,24.459 "/>
<polygon fill="#FFFFFF" points="0.325,33.063 1.241,32.4 0.105,32.4 0,32.073 0,33.654 0.675,34.146 "/>
<polygon fill="#FFFFFF" points="0.325,42.311 1.241,41.643 0.105,41.643 0,41.317 0,42.896 0.675,43.389 "/>
<polygon fill="#FFFFFF" points="29.898,8.514 29.548,7.43 29.196,8.514 28.063,8.514 28.981,9.176 28.63,10.258 29.548,9.59 
	30.465,10.258 30.114,9.176 31.034,8.514 "/>
<polygon fill="#FFFFFF" points="31.034,18.281 29.898,18.281 29.548,17.203 29.196,18.281 28.063,18.281 28.981,18.949 
	28.63,20.027 29.548,19.357 30.465,20.027 30.114,18.949 "/>
<polygon fill="#FFFFFF" points="29.812,27.857 29.462,26.779 29.112,27.857 27.976,27.857 28.896,28.525 28.546,29.602 
	29.462,28.934 30.381,29.602 30.031,28.525 30.947,27.857 "/>
<polygon fill="#FFFFFF" points="29.728,37.322 29.378,36.244 29.028,37.322 27.893,37.322 28.812,37.99 28.462,39.066 
	29.378,38.398 30.298,39.066 29.944,37.99 30.864,37.322 "/>
<polygon fill="#FFFFFF" points="21.409,8.514 21.059,7.43 20.709,8.514 19.576,8.514 20.492,9.176 20.14,10.258 21.059,9.59 
	21.978,10.258 21.625,9.176 22.544,8.514 "/>
<polygon fill="#FFFFFF" points="20.14,20.027 21.059,19.357 21.978,20.027 21.625,18.949 22.544,18.281 21.409,18.281 
	21.059,17.203 20.709,18.281 19.576,18.281 20.492,18.949 "/>
<polygon fill="#FFFFFF" points="21.325,27.857 20.976,26.779 20.622,27.857 19.489,27.857 20.409,28.525 20.06,29.602 
	20.976,28.934 21.895,29.602 21.545,28.525 22.461,27.857 "/>
<polygon fill="#FFFFFF" points="21.241,37.322 20.892,36.244 20.539,37.322 19.406,37.322 20.322,37.99 19.973,39.066 
	20.892,38.398 21.808,39.066 21.458,37.99 22.374,37.322 "/>
<polygon fill="#FFFFFF" points="12.922,8.172 12.569,7.096 12.22,8.172 11.087,8.172 12.006,8.834 11.653,9.918 12.569,9.25 
	13.491,9.918 13.139,8.834 14.055,8.172 "/>
<polygon fill="#FFFFFF" points="12.922,17.939 12.569,16.863 12.22,17.939 11.087,17.939 12.006,18.609 11.653,19.686 
	12.569,19.023 13.491,19.686 13.139,18.609 14.055,17.939 "/>
<polygon fill="#FFFFFF" points="12.835,27.516 12.489,26.439 12.136,27.516 11.003,27.516 11.919,28.186 11.566,29.262 
	12.489,28.594 13.405,29.262 13.052,28.186 13.972,27.516 "/>
<polygon fill="#FFFFFF" points="11.485,38.732 12.401,38.064 13.321,38.732 12.972,37.65 13.888,36.986 12.751,36.986 12.401,35.91 
	12.05,36.986 10.917,36.986 11.835,37.65 "/>
<polygon fill="#FFFFFF" points="4.436,8.08 4.085,7.002 3.735,8.08 2.601,8.08 3.519,8.748 3.167,9.826 4.085,9.156 5.002,9.826 
	4.651,8.748 5.571,8.08 "/>
<polygon fill="#FFFFFF" points="4.436,17.848 4.085,16.77 3.735,17.848 2.601,17.848 3.519,18.516 3.167,19.594 4.085,18.924 
	5.002,19.594 4.651,18.516 5.571,17.848 "/>
<polygon fill="#FFFFFF" points="4.349,27.424 4.002,26.346 3.649,27.424 2.517,27.424 3.433,28.092 3.083,29.17 4.002,28.5 
	4.918,29.17 4.568,28.092 5.484,27.424 "/>
<polygon fill="#FFFFFF" points="4.269,36.889 3.915,35.811 3.565,36.889 2.43,36.889 3.349,37.557 2.999,38.635 3.915,37.965 
	4.831,38.635 4.481,37.557 5.401,36.889 "/>
<polygon fill="#FFFFFF" points="34.055,3.777 33.708,2.701 33.355,3.777 32.223,3.777 33.139,4.445 32.789,5.523 33.708,4.855 
	34.624,5.523 34.274,4.445 35.19,3.777 "/>
<polygon fill="#FFFFFF" points="35.19,13.242 34.055,13.242 33.708,12.166 33.355,13.242 32.223,13.242 33.139,13.91 32.789,14.988 
	33.708,14.326 34.624,14.988 34.274,13.91 "/>
<polygon fill="#FFFFFF" points="34.055,22.713 33.708,21.637 33.355,22.713 32.223,22.713 33.139,23.381 32.789,24.459 
	33.708,23.791 34.624,24.459 34.274,23.381 35.19,22.713 "/>
<polygon fill="#FFFFFF" points="35.19,32.4 34.055,32.4 33.708,31.316 33.355,32.4 32.223,32.4 33.139,33.063 32.789,34.146 
	33.708,33.477 34.624,34.146 34.274,33.063 "/>
<polygon fill="#FFFFFF" points="34.055,41.643 33.708,40.564 33.355,41.643 32.223,41.643 33.139,42.311 32.789,43.389 
	33.708,42.719 34.624,43.389 34.274,42.311 35.19,41.643 "/>
<path fill="#102A64" d="M0,0.002v3.452l0.105,0.324h1.136L0.325,4.445l0.35,1.078L0,5.033v7.885l0.105,0.324h1.136L0.325,13.91
	l0.35,1.078L0,14.502v7.887l0.105,0.324h1.136l-0.916,0.668l0.35,1.078L0,23.969v8.104L0.105,32.4h1.136l-0.916,0.662l0.35,1.084
	L0,33.654v7.663l0.105,0.325h1.136L0.325,42.31l0.35,1.079L0,42.896v2.93h37.843V0.002H0z M26.139,24.459l-0.916-0.668L24.3,24.459
	l0.353-1.078l-0.917-0.668h1.132l0.354-1.076l0.347,1.076h1.133l-0.916,0.668L26.139,24.459z M26.139,14.988l-0.916-0.662
	L24.3,14.988l0.353-1.078l-0.918-0.668h1.133l0.354-1.076l0.347,1.076h1.133l-0.916,0.668L26.139,14.988z M5.002,9.826l-0.917-0.67
	l-0.918,0.67l0.352-1.078L2.601,8.08h1.135l0.35-1.078l0.35,1.078h1.136l-0.92,0.668L5.002,9.826z M4.831,38.635l-0.916-0.67
	l-0.916,0.67l0.35-1.078L2.43,36.889h1.136l0.35-1.078l0.354,1.078h1.133l-0.92,0.668L4.831,38.635z M4.57,28.092l0.348,1.078
	L4.002,28.5l-0.919,0.67l0.35-1.078l-0.916-0.668H3.65l0.353-1.078l0.347,1.078h1.136L4.57,28.092z M4.653,18.516l0.349,1.078
	l-0.917-0.67l-0.918,0.67l0.352-1.078l-0.918-0.668h1.135l0.35-1.078l0.351,1.078h1.136L4.653,18.516z M9.165,43.389l-0.916-0.669
	l-0.923,0.669l0.353-1.078l-0.916-0.668h1.13l0.356-1.078l0.346,1.078h1.133l-0.916,0.668L9.165,43.389z M8.812,33.062l0.354,1.084
	l-0.916-0.67l-0.923,0.67l0.353-1.084L6.763,32.4h1.13l0.356-1.084L8.595,32.4h1.133L8.812,33.062z M8.812,23.381l0.353,1.078
	l-0.916-0.668l-0.923,0.668l0.353-1.078l-0.916-0.668h1.13l0.356-1.076l0.346,1.076h1.133L8.812,23.381z M8.812,13.91l0.354,1.078
	L8.25,14.326l-0.923,0.662L7.68,13.91l-0.917-0.668h1.13l0.356-1.076l0.346,1.076h1.133L8.812,13.91z M8.812,4.445l0.353,1.078
	L8.249,4.855L7.326,5.523l0.353-1.078L6.763,3.777h1.13l0.356-1.076l0.346,1.076h1.133L8.812,4.445z M13.323,38.732l-0.92-0.668
	l-0.916,0.668l0.35-1.082l-0.918-0.664h1.131l0.352-1.076l0.35,1.076h1.137l-0.916,0.664L13.323,38.732z M13.053,28.186l0.352,1.076
	l-0.916-0.668l-0.923,0.668l0.353-1.076l-0.916-0.67h1.133l0.354-1.076l0.346,1.076h1.137L13.053,28.186z M13.14,18.61l0.351,1.076
	l-0.922-0.662l-0.916,0.662l0.353-1.076l-0.919-0.67h1.133l0.35-1.076l0.353,1.076h1.133L13.14,18.61z M13.14,8.834l0.351,1.084
	L12.569,9.25l-0.916,0.668l0.353-1.084l-0.919-0.662h1.133l0.35-1.076l0.353,1.076h1.133L13.14,8.834z M17.647,43.389l-0.916-0.669
	l-0.919,0.669l0.351-1.078l-0.917-0.668h1.136l0.35-1.078l0.35,1.078h1.137l-0.92,0.668L17.647,43.389z M17.299,33.062l0.35,1.084
	l-0.916-0.67l-0.919,0.67l0.351-1.084L15.246,32.4h1.136l0.35-1.084l0.35,1.084h1.137L17.299,33.062z M17.299,23.381l0.348,1.078
	l-0.916-0.668l-0.919,0.668l0.351-1.078l-0.917-0.668h1.136l0.35-1.076l0.35,1.076h1.137L17.299,23.381z M17.299,13.91l0.348,1.078
	l-0.916-0.662l-0.919,0.662l0.351-1.078l-0.917-0.668h1.136l0.35-1.076l0.35,1.076h1.137L17.299,13.91z M17.299,4.445l0.348,1.078
	l-0.916-0.668l-0.919,0.668l0.351-1.078l-0.917-0.668h1.136l0.35-1.076l0.35,1.076h1.137L17.299,4.445z M21.808,39.066l-0.916-0.668
	l-0.919,0.668l0.35-1.076l-0.916-0.668h1.133l0.353-1.078l0.35,1.078h1.133L21.46,37.99L21.808,39.066z M21.547,28.526l0.348,1.076
	l-0.919-0.668l-0.916,0.668l0.35-1.076l-0.92-0.668h1.133l0.354-1.078l0.35,1.078h1.136L21.547,28.526z M21.626,18.949l0.353,1.078
	l-0.919-0.67l-0.919,0.67l0.353-1.078l-0.918-0.668h1.133l0.35-1.078l0.351,1.078h1.135L21.626,18.949z M21.627,9.176l0.351,1.082
	L21.059,9.59l-0.919,0.668l0.353-1.082l-0.916-0.662h1.133l0.35-1.084l0.351,1.084h1.135L21.627,9.176z M24.868,32.4l0.354-1.084
	l0.347,1.084h1.133l-0.916,0.662l0.353,1.084l-0.916-0.67l-0.922,0.67l0.353-1.084L23.735,32.4H24.868z M26.138,43.389l-0.916-0.669
	L24.3,43.389l0.353-1.078l-0.917-0.668h1.133l0.354-1.078l0.347,1.078h1.133l-0.916,0.668L26.138,43.389z M25.787,4.445l0.351,1.078
	l-0.916-0.668L24.3,5.523l0.353-1.078l-0.917-0.668h1.133l0.354-1.076l0.347,1.076h1.133L25.787,4.445z M30.298,39.066l-0.92-0.668
	l-0.916,0.668l0.35-1.076l-0.919-0.668h1.136l0.35-1.078l0.35,1.078h1.137l-0.92,0.668L30.298,39.066z M30.033,28.526l0.348,1.076
	l-0.919-0.668l-0.916,0.668l0.35-1.076l-0.92-0.668h1.137l0.35-1.078l0.35,1.078h1.136L30.033,28.526z M30.116,18.949l0.349,1.078
	l-0.917-0.67l-0.918,0.67l0.352-1.078l-0.918-0.668h1.133l0.352-1.078l0.351,1.078h1.136L30.116,18.949z M30.116,9.176l0.349,1.082
	L29.548,9.59l-0.918,0.668l0.352-1.082l-0.918-0.662h1.133l0.352-1.084L29.9,8.514h1.136L30.116,9.176z M34.624,43.389l-0.916-0.669
	l-0.919,0.669l0.35-1.078l-0.916-0.668h1.133l0.353-1.078l0.347,1.078h1.136l-0.916,0.668L34.624,43.389z M34.276,33.062
	l0.348,1.084l-0.916-0.67l-0.919,0.67l0.35-1.084L32.223,32.4h1.133l0.353-1.084l0.347,1.084h1.136L34.276,33.062z M34.276,23.381
	l0.348,1.078l-0.916-0.668l-0.919,0.668l0.35-1.078l-0.916-0.668h1.133l0.353-1.076l0.347,1.076h1.136L34.276,23.381z M34.276,13.91
	l0.348,1.078l-0.916-0.662l-0.919,0.662l0.35-1.078l-0.916-0.668h1.133l0.353-1.076l0.347,1.076h1.136L34.276,13.91z M34.276,4.445
	l0.348,1.078l-0.916-0.668l-0.919,0.668l0.35-1.078l-0.916-0.668h1.133l0.353-1.076l0.347,1.076h1.136L34.276,4.445z"/>
<rect x="37.843" y="0.002" fill="#BD0930" width="47.196" height="6.76"/>
</svg>
