<?xml version="1.0" encoding="UTF-8" standalone="no"?>
<!DOCTYPE svg  PUBLIC '-//W3C//DTD SVG 1.1//EN'  'http://www.w3.org/Graphics/SVG/1.1/DTD/svg11.dtd' [
	<!ENTITY ns_svg "http://www.w3.org/2000/svg">
	<!ENTITY ns_xlink "http://www.w3.org/1999/xlink">
]>
<svg xmlns="http://www.w3.org/2000/svg" xml:space="preserve" height="85.039" viewBox="0 0 85.039 85.039" width="85.039" version="1.1" overflow="visible" xmlns:xlink="http://www.w3.org/1999/xlink" enable-background="new 0 0 85.039 85.039">
<path d="m0 0v85.039h85.039v-85.039h-85.039zm45.034 32.89l-2.303-1.684-2.309 1.678 0.885-2.712-2.303-1.677 2.847 0.006 0.885-2.718 0.874 2.712 2.854 0.006-2.31 1.671 0.88 2.718zm-3.926-19.381l2.005 2.018 2.545-1.294-1.301 2.538 2.012 2.019-2.811-0.452-1.306 2.544-0.434-2.822-2.816-0.446 2.538-1.287-0.432-2.818zm-9.638-7.361l2.643 1.053 1.82-2.191-0.18 2.847 2.644 1.053-2.761 0.699-0.186 2.848-1.523-2.408-2.76 0.706 1.819-2.197-1.516-2.41zm1.49 31.887l-1.515-2.409 2.65 1.052 1.819-2.191-0.186 2.842 2.649 1.059-2.768 0.699-0.18 2.848-1.521-2.408-2.768 0.699 1.82-2.191zm-22.276-20.497l2.681-8.232 2.674 8.232h8.66l-7.008 5.101 2.674 8.233-7-5.089-7.008 5.089 2.674-8.233-7.007-5.101h8.66z" fill="#DB2B19"/>
<polygon points="16.039 17.538 13.365 9.306 10.684 17.538 2.024 17.538 9.031 22.639 6.357 30.872 13.365 25.783 20.365 30.872 17.691 22.639 24.699 17.538" fill="#FFDD06"/>
<polygon points="33.927 10.048 35.451 12.456 35.636 9.608 38.397 8.909 35.753 7.856 35.933 5.01 34.113 7.201 31.47 6.148 32.987 8.557 31.167 10.754" fill="#FFDD06"/>
<polygon points="41.82 18.059 42.253 20.881 43.559 18.337 46.369 18.789 44.357 16.771 45.658 14.232 43.113 15.526 41.108 13.509 41.542 16.325 39.003 17.612" fill="#FFDD06"/>
<polygon points="41.306 30.172 40.421 32.884 42.73 31.206 45.033 32.89 44.154 30.172 46.463 28.501 43.609 28.495 42.736 25.783 41.851 28.501 39.003 28.495" fill="#FFDD06"/>
<polygon points="33.91 39.525 35.431 41.934 35.611 39.086 38.378 38.387 35.729 37.328 35.915 34.486 34.095 36.678 31.445 35.626 32.962 38.033 31.142 40.225" fill="#FFDD06"/>
</svg>
