<?xml version="1.0" encoding="UTF-8" standalone="no"?>
<svg xmlns:rdf="http://www.w3.org/1999/02/22-rdf-syntax-ns#" xmlns="http://www.w3.org/2000/svg" xml:space="preserve" overflow="visible" height="54.484" viewBox="0 0 54.484 54.484" width="54.484" version="1.1" enable-background="new 0 0 54.484 54.484" xmlns:cc="http://creativecommons.org/ns#" xmlns:dc="http://purl.org/dc/elements/1.1/">
<path id="bgColor00" d="m27.242 0c-15.044 0-27.242 12.198-27.242 27.242 0 15.047 12.198 27.242 27.242 27.242 15.043 0 27.242-12.195 27.242-27.242 0-15.044-12.199-27.242-27.242-27.242m0 49.787c-12.432 0-22.545-10.112-22.545-22.545 0-12.43 10.113-22.543 22.545-22.543 12.431 0 22.545 10.113 22.545 22.543 0 12.433-10.114 22.545-22.545 22.545m-3.252-4.683h7.013v-6.781h-7.013v6.781zm11.715-32.383c-2.336-1.688-5.272-2.533-8.803-2.533-2.69 0-4.955 0.595-6.803 1.784-2.921 1.859-4.476 5.019-4.662 9.473h6.773c0-1.299 0.379-2.548 1.136-3.751 0.757-1.206 2.04-1.807 3.848-1.807 1.841 0 3.106 0.487 3.8 1.465 0.694 0.977 1.041 2.061 1.041 3.247 0 1.032-0.311 1.979-0.934 2.837-0.344 0.5-0.797 0.963-1.356 1.385l-1.708 1.336c-1.682 1.315-2.726 2.474-3.131 3.483-0.408 1.006-0.658 2.833-0.75 5.474h6.357c0.015-1.249 0.115-2.172 0.303-2.766 0.296-0.94 0.896-1.759 1.801-2.463l1.658-1.289c1.686-1.313 2.824-2.393 3.416-3.237 1.013-1.39 1.519-3.103 1.519-5.134 0-3.315-1.168-5.814-3.505-7.504"/>
</svg>
