<?xml version="1.0" encoding="UTF-8" standalone="no"?>
<!DOCTYPE svg  PUBLIC '-//W3C//DTD SVG 1.0//EN'  'http://www.w3.org/TR/2001/REC-SVG-20010904/DTD/svg10.dtd' [
	<!ENTITY ns_extend "http://ns.adobe.com/Extensibility/1.0/">
	<!ENTITY ns_ai "http://ns.adobe.com/AdobeIllustrator/10.0/">
	<!ENTITY ns_graphs "http://ns.adobe.com/Graphs/1.0/">
	<!ENTITY ns_vars "http://ns.adobe.com/Variables/1.0/">
	<!ENTITY ns_imrep "http://ns.adobe.com/ImageReplacement/1.0/">
	<!ENTITY ns_sfw "http://ns.adobe.com/SaveForWeb/1.0/">
	<!ENTITY ns_custom "http://ns.adobe.com/GenericCustomNamespace/1.0/">
	<!ENTITY ns_adobe_xpath "http://ns.adobe.com/XPath/1.0/">
	<!ENTITY ns_svg "http://www.w3.org/2000/svg">
	<!ENTITY ns_xlink "http://www.w3.org/1999/xlink">
]>
<svg xmlns="http://www.w3.org/2000/svg" xml:space="preserve" height="40.101" viewBox="0 0 81.393 40.101" width="81.393" version="1.0" enable-background="new 0 0 81.393 40.101" overflow="visible" xmlns:xlink="http://www.w3.org/1999/xlink">
			<radialGradient id="XMLID_5_" gradientUnits="userSpaceOnUse" cy="989.64" cx="-389.33" gradientTransform="translate(429.68 -932.47)" r="53.676">
			<stop stop-color="#0F0F0F" offset=".3989"/>
			<stop stop-color="#5E5E5E" offset=".573"/>
			<stop stop-color="#ABABAB" offset=".7697"/>
			<stop stop-color="#E8E8E8" offset=".9382"/>
			<stop stop-color="#737373" offset="1"/>
		</radialGradient>
		<path d="m0.353 16.792c0.353 0.352 22.674 22.577 22.977 22.879 4.644-4.477 10.482-6.768 17.381-6.768 3.761 0 10.971 0.911 17.255 6.865 0.312-0.308 22.703-22.408 23.068-22.768-11.665-11.111-25.312-16.755-40.573-16.755-7.023 0-24.945 1.625-40.108 16.547z" fill="url(#XMLID_5_)"/>
		<path d="m40.461 0.001c-10.454 0-26.879 3.305-40.461 16.786l0.347 0.346 22.965 22.867c5.981-5.879 12.753-6.852 17.399-6.852 4.556 0 11.388 1.275 17.267 6.952l23.065-22.766h0.001l0.348-0.344c-14.9-14.292-30.447-16.989-40.931-16.989zm-39.765 16.788c15.061-14.7 32.799-16.298 39.765-16.298 6.458 0 12.732 1.045 18.647 3.108 7.791 2.715 15.049 7.223 21.58 13.398l-22.717 22.423c-6.307-5.873-13.495-6.761-17.26-6.761-3.031 0-5.762 0.406-8.35 1.245-3.359 1.086-6.399 2.906-9.043 5.41l-22.622-22.525z" fill="#A1A1A1"/>
		<linearGradient id="XMLID_6_" y2="502.69" gradientUnits="userSpaceOnUse" x2="-56.602" gradientTransform="matrix(.9637 -.2669 .2669 .9637 -67.236 -470.76)" y1="500.45" x1="-52.233">
		<stop stop-color="#DADBDB" offset="0"/>
		<stop stop-color="#5A5A5A" offset="1"/>
	</linearGradient>
	<path opacity=".5" d="m1.768 17.738l21.566 21.747c0.557-0.503 0.904-1.419 1.67-1.507-2.038-2.335-7.838-8.284-10.553-11.154-5.28-5.584-10.217-10.233-12.683-9.086z" fill="url(#XMLID_6_)"/>
	<g opacity=".4">
		<path d="m68.014 15.772c7.229 5.226 6.183 7.806 6.183 7.806l6.589-6.487c-13.382-13.583-32.151-16.939-39.946-16.92-10.453 0.025-26.143 3.337-40.334 16.615l7.906 7.907s-1.135-4.966 0.811-6.387c13.886-10.135 38.34-15.684 58.791-2.534z" fill="#fff"/>
	</g>
		<linearGradient id="XMLID_7_" y2="1514.5" gradientUnits="userSpaceOnUse" x2="-585.03" gradientTransform="matrix(.9649 .2627 -.2627 .9649 1028.4 -1292.5)" y1="1537.5" x1="-575.08">
		<stop stop-color="#DADBDB" offset="0"/>
		<stop stop-color="#BDBDBD" offset="1"/>
	</linearGradient>
	<path opacity=".5" d="m79.488 18.113l-21.468 21.842c-0.559-0.5-0.912-1.415-1.678-1.499 3.521-3.91 4.283-4.837 6.984-7.72 5.257-5.606 13.691-13.759 16.162-12.623z" fill="url(#XMLID_7_)"/>
	<g opacity=".7">
		<path d="m40.529 1.97c9.83 0 22.518 2.45 38.33 15.223l0.405-0.305c-15.508-13.075-28.744-15.711-38.735-15.711-9.962 0-25.428 3.243-37.895 15.103l0.406 0.406c15.61-12.975 27.675-14.716 37.489-14.716z" fill="#fff"/>
	</g>
	<g opacity=".15">
			<radialGradient id="XMLID_8_" gradientUnits="userSpaceOnUse" cy="899.58" cx="-387.43" gradientTransform="translate(429.68 -932.47)" r="127.87">
			<stop stop-color="#0F0F0F" offset=".3989"/>
			<stop stop-color="#5E5E5E" offset=".573"/>
			<stop stop-color="#ABABAB" offset=".7697"/>
			<stop stop-color="#E8E8E8" offset=".9382"/>
			<stop stop-color="#737373" offset="1"/>
		</radialGradient>
		<path d="m65.444 26.583c-3.91-2.666-11.683-9.688-25.561-9.688-7.62 0-17.728 3.504-24.53 9.688-0.714 0.283 4.805 8.826 4.107 9.158l3.852 3.751c5.676-5.271 12.868-6.805 17.416-6.805 4.461 0 12.283 1.736 17.25 7.007l3.617-3.936c-0.704-0.311 4.484-8.741 3.849-9.175z" fill="url(#XMLID_8_)"/>
	</g>
		<g opacity=".05">
			<path d="m57.678 32.846c-4.938-3.547-10.993-5.636-17.536-5.636-6.396 0-12.324 1.997-17.199 5.398l-13.259-15.201c8.468-6.413 19.018-10.219 30.458-10.219 12.142 0 23.28 4.285 31.991 11.425l-14.455 14.233zm-17.217-32.846c-10.453 0-26.879 3.306-40.461 16.786l23.313 23.212c5.98-5.878 12.753-6.85 17.398-6.85 4.557 0 11.389 1.275 17.268 6.952l23.414-23.111c-14.901-14.292-30.448-16.989-40.932-16.989z" fill="#4D4D4D"/>
		</g>
		<g opacity=".105">
			<path d="m57.705 33.405c-5.082-3.748-11.239-5.715-17.505-5.715-6.437 0-12.356 2.01-17.216 5.49-0.167-0.165-13.891-15.631-14.068-15.807 9.089-7.16 20.288-10.738 31.259-10.738 12.386 0 23.719 4.383 32.684 11.845-0.182 0.18-14.989 14.763-15.154 14.925zm-17.244-33.405c-10.453 0-26.879 3.306-40.461 16.786l23.313 23.212c5.98-5.878 12.753-6.85 17.398-6.85 4.557 0 11.389 1.275 17.268 6.952l23.414-23.111c-14.901-14.292-30.448-16.989-40.932-16.989z" fill="#4D4D4D"/>
		</g>
		<g opacity=".16">
			<path d="m57.732 33.966c-5.225-3.949-11.486-5.794-17.475-5.794-6.478 0-12.387 2.022-17.232 5.58-0.333-0.332-14.524-16.061-14.878-16.413 9.71-7.907 21.558-11.258 32.061-11.258 12.63 0 24.156 4.482 33.376 12.267-0.364 0.359-15.522 15.293-15.852 15.618zm-17.271-33.966c-10.453 0-26.879 3.306-40.461 16.786l23.313 23.212c5.98-5.878 12.753-6.85 17.398-6.85 4.557 0 11.389 1.275 17.268 6.952l23.414-23.111c-14.901-14.292-30.448-16.989-40.932-16.989z" fill="#4D4D4D"/>
		</g>
		<g opacity=".215">
			<path d="m57.76 34.525c-5.368-4.15-11.732-5.873-17.443-5.873-6.519 0-12.419 2.035-17.249 5.672-0.502-0.498-15.157-16.491-15.688-17.019 10.331-8.653 22.828-11.777 32.861-11.777 12.873 0 24.595 4.58 34.068 12.687-0.545 0.539-16.055 15.823-16.549 16.31zm-17.299-34.525c-10.453 0-26.879 3.306-40.461 16.786l23.313 23.212c5.98-5.878 12.753-6.85 17.398-6.85 4.557 0 11.389 1.275 17.268 6.952l23.414-23.11c-14.901-14.293-30.448-16.99-40.932-16.99z" fill="#4D4D4D"/>
		</g>
		<g opacity=".27">
			<path d="m57.787 35.086c-5.512-4.352-11.979-5.952-17.412-5.952-6.56 0-12.451 2.047-17.266 5.763-0.667-0.665-15.79-16.921-16.497-17.625 10.952-9.4 24.098-12.297 33.662-12.297 13.117 0 25.033 4.679 34.761 13.108-0.728 0.718-16.589 16.353-17.248 17.003zm-17.326-35.086c-10.453 0-26.879 3.306-40.461 16.786l23.313 23.212c5.98-5.878 12.753-6.85 17.398-6.85 4.557 0 11.389 1.275 17.268 6.952l23.414-23.11c-14.901-14.293-30.448-16.99-40.932-16.99z" fill="#4D4D4D"/>
		</g>
		<g opacity=".325">
			<path d="m57.814 35.646c-5.654-4.553-12.225-6.031-17.382-6.031-6.601 0-12.482 2.06-17.282 5.854-0.834-0.83-16.422-17.35-17.307-18.23 11.574-10.148 25.369-12.818 34.465-12.818 13.361 0 25.471 4.777 35.453 13.529-0.91 0.898-17.123 16.883-17.947 17.696zm-17.353-35.646c-10.453 0-26.879 3.306-40.461 16.786l23.313 23.212c5.98-5.878 12.753-6.85 17.398-6.85 4.557 0 11.389 1.275 17.268 6.952l23.414-23.11c-14.901-14.293-30.448-16.99-40.932-16.99z" fill="#4D4D4D"/>
		</g>
		<g opacity=".38">
			<path d="m57.842 36.206c-5.798-4.754-12.472-6.111-17.351-6.111-6.642 0-12.514 2.073-17.299 5.945-1.002-0.996-17.054-17.78-18.116-18.837 12.194-10.893 26.638-13.335 35.266-13.335 13.604 0 25.908 4.875 36.145 13.949-1.092 1.078-17.657 17.413-18.645 18.389zm-17.381-36.206c-10.453 0-26.879 3.306-40.461 16.786l23.313 23.213c5.98-5.879 12.753-6.851 17.398-6.851 4.557 0 11.389 1.275 17.268 6.952l23.414-23.11c-14.901-14.293-30.448-16.99-40.932-16.99z" fill="#4D4D4D"/>
		</g>
		<g opacity=".435">
			<path d="m57.869 36.766c-5.941-4.955-12.718-6.189-17.319-6.189-6.684 0-12.546 2.085-17.316 6.036-1.168-1.163-17.687-18.21-18.926-19.443 12.815-11.641 27.908-13.856 36.067-13.856 13.849 0 26.347 4.974 36.837 14.371-1.274 1.257-18.19 17.943-19.343 19.081zm-17.408-36.766c-10.453 0-26.879 3.306-40.461 16.786l23.313 23.213c5.98-5.879 12.753-6.851 17.398-6.851 4.557 0 11.389 1.275 17.268 6.952l23.414-23.11c-14.901-14.293-30.448-16.99-40.932-16.99z" fill="#4D4D4D"/>
		</g>
		<g opacity=".49">
			<path d="m57.896 37.326c-6.085-5.156-12.964-6.27-17.288-6.27-6.725 0-12.578 2.098-17.333 6.128-1.335-1.329-18.319-18.64-19.735-20.049 13.437-12.386 29.178-14.374 36.868-14.374 14.092 0 26.785 5.072 37.529 14.791-1.456 1.437-18.722 18.473-20.041 19.774zm-17.435-37.326c-10.453 0-26.879 3.306-40.461 16.786l23.313 23.213c5.98-5.879 12.753-6.851 17.398-6.851 4.557 0 11.389 1.275 17.268 6.952l23.414-23.11c-14.901-14.293-30.448-16.99-40.932-16.99z" fill="#4D4D4D"/>
		</g>
		<g opacity=".545">
			<path d="m57.924 37.886c-6.228-5.357-13.211-6.348-17.258-6.348-6.765 0-12.609 2.11-17.349 6.218-1.502-1.495-18.953-19.07-20.545-20.654 14.058-13.134 30.449-14.894 37.669-14.894 14.336 0 27.223 5.17 38.222 15.212-1.639 1.616-19.257 19.003-20.739 20.466zm-17.463-37.886c-10.453 0-26.879 3.306-40.461 16.786l23.313 23.213c5.98-5.879 12.753-6.851 17.398-6.851 4.557 0 11.389 1.275 17.268 6.952l23.414-23.11c-14.901-14.293-30.448-16.99-40.932-16.99z" fill="#4D4D4D"/>
		</g>
		<g opacity=".6">
			<path d="m57.951 38.446c-6.371-5.559-13.457-6.428-17.227-6.428-6.807 0-12.641 2.123-17.366 6.31-1.669-1.661-19.585-19.5-21.354-21.261 14.679-13.879 31.719-15.413 38.471-15.413 14.58 0 27.661 5.269 38.914 15.633-1.821 1.796-19.79 19.533-21.438 21.159zm-17.49-38.446c-10.453 0-26.879 3.306-40.461 16.786l23.313 23.213c5.98-5.879 12.753-6.851 17.398-6.851 4.557 0 11.389 1.275 17.268 6.952l23.414-23.11c-14.901-14.293-30.448-16.99-40.932-16.99z" fill="#4D4D4D"/>
		</g>
</svg>
