<?xml version="1.0" encoding="UTF-8" standalone="no"?>
<svg xmlns:rdf="http://www.w3.org/1999/02/22-rdf-syntax-ns#" xmlns="http://www.w3.org/2000/svg" xml:space="preserve" height="260.32px" viewBox="0 0 260.326 260.323" width="260.33px" version="1.0" enable-background="new 0 0 260.326 260.323" y="0px" x="0px" xmlns:cc="http://creativecommons.org/ns#" xmlns:dc="http://purl.org/dc/elements/1.1/">
		<circle cy="130.16" cx="130.16" r="120.89" fill="#C9C9C9"/>
		<path d="m130.16 0c-71.884 0-130.16 58.274-130.16 130.16 0 71.89 58.276 130.16 130.16 130.16 71.885 0 130.16-58.273 130.16-130.16 0.01-71.886-58.27-130.16-130.16-130.16zm0 259.34c-17.441 0-34.359-3.414-50.283-10.15-15.381-6.508-29.197-15.82-41.063-27.684-11.861-11.865-21.176-25.68-27.685-41.063-6.735-15.926-10.147-32.843-10.147-50.282s3.412-34.354 10.147-50.28c6.509-15.381 15.823-29.196 27.685-41.06 11.873-11.873 25.685-21.188 41.066-27.694 15.924-6.736 32.842-10.149 50.283-10.149 71.227 0 129.18 57.945 129.18 129.17 0 71.23-57.95 129.18-129.18 129.18z" fill="#3F3F3F"/>
				<linearGradient id="SVGID_1_" y2=".4937" gradientUnits="userSpaceOnUse" x2="130.16" y1="259.83" x1="130.16">
					<stop stop-color="#858585" offset="0"/>
					<stop stop-color="#4D4D4D" offset=".0843"/>
					<stop stop-color="#7A7A7A" offset=".2303"/>
					<stop stop-color="#3F3F3F" offset=".3371"/>
					<stop stop-color="#C2C2C2" offset=".4494"/>
					<stop stop-color="#292929" offset=".618"/>
					<stop stop-color="#E8E8E8" offset=".8202"/>
					<stop stop-color="#BEBEBE" offset=".8933"/>
					<stop stop-color="#454545" offset="1"/>
				</linearGradient>
				<path d="m221.86 38.472c-24.492-24.49-57.057-37.979-91.692-37.979-71.502 0-129.67 58.169-129.67 129.67s58.168 129.67 129.67 129.67c71.5 0 129.67-58.168 129.67-129.67-0.01-34.635-13.49-67.196-37.98-91.688zm-91.7 212.59c-66.765 0-120.89-54.127-120.89-120.89 0-66.769 54.126-120.89 120.89-120.89 66.768 0 120.89 54.123 120.89 120.89 0.01 66.76-54.12 120.89-120.89 120.89z" fill="url(#SVGID_1_)"/>
			<path d="m128.25 128.1l0.008 0.006c-0.143-0.236-0.262-0.476-0.396-0.72 0.14 0.24 0.26 0.48 0.39 0.71z" fill="none"/>
			<path d="m47.059 42.396c-0.797 0.759-1.603 1.492-2.384 2.271-1.398 1.399-2.754 2.83-4.066 4.276 27.861 26.252 55.308 49.446 82.919 76.271-26.574-27.715-49.777-55.386-76.471-82.814z" fill="none"/>
			<path d="m216.99 46.063c-0.445-0.458-0.869-0.939-1.324-1.396-0.912-0.908-1.848-1.768-2.779-2.641-25.287 29.338-59.047 59.206-82.667 88.162 0.112 0.111 0.043 0.219 0.112 0.321 25.6-29.48 58.25-54.049 86.66-84.447z" fill="#ECECEC"/>
			<path d="m210.84 40.099c-23.77 28.489-57.624 60.961-79.423 88.465-0.45 0.046-0.569 0.999-1.19 0.972-0.107 0.108-0.215 0.218-0.322 0.325 0.104 0.108 0.215 0.222 0.322 0.328 23.619-28.956 57.379-58.824 82.667-88.162-0.69-0.647-1.37-1.3-2.06-1.929z" fill="#F1F1F1"/>
			<path d="m210.84 40.099c-1.688-1.506-3.404-2.954-5.152-4.35-23.977 30.821-52.254 63.289-74.271 92.814 21.79-27.5 55.65-59.972 79.42-88.461z" fill="#F3F3F3"/>
			<path d="m131.41 128.56c22.017-29.525 50.294-61.993 74.271-92.814-2.449-1.968-4.961-3.811-7.521-5.552-23.295 32.87-43.127 65.592-67.94 99.338 0.62 0.03 0.74-0.92 1.19-0.97z" fill="#F6F6F6"/>
			<path d="m198.16 30.197c-1.85-1.263-3.717-2.474-5.619-3.622-22.217 33.552-38.555 68.299-61.778 101.99-0.457 0.435-0.492 0.864-1.078 1.297 0.066 0.061 0.139 0.114 0.213 0 0.107-0.107 0.215-0.217 0.322-0.325 24.83-33.751 44.66-66.473 67.95-99.343z" fill="#F3F3F3"/>
			<path d="m132.82 129.11c0.254-0.259 0.509-0.139 0.756-0.545 31.192-26.093 62.44-46.824 93.762-70.357-0.92-1.246-1.883-2.48-2.861-3.699-30.846 27.011-62.334 46.947-91.764 74.487 0.03 0.04 0.06 0.08 0.1 0.12z" fill="#D1D1D1"/>
			<path d="m135.31 127.48c31.975-24.019 62.821-43.089 94.395-65.947-0.197-0.271-0.385-0.549-0.578-0.818-31.904 22.372-63.522 43.339-94.463 67.199 0.22 0.26 0.43-0.33 0.65-0.43z" fill="#C5C5C5"/>
			<path d="m192.54 26.575c-1.982-1.197-3.979-2.347-6.023-3.415-20.563 36.101-36.002 72.785-55.754 105.4 23.22-33.686 39.56-68.433 61.77-101.98z" fill="#F1F1F1"/>
			<path d="m131.41 130.29c36.491-20.362 67.785-39.988 103.8-60.002-0.65-1.14-1.316-2.259-1.998-3.367-33.084 19.793-64.115 40.115-97.368 60.23-0.182 0.141-0.362 0.443-0.543 0.329-0.216 0.099-0.432 0.682-0.646 0.434-0.363-0.27-0.717 0.911-1.086 0.646-0.247 0.406-0.502 0.286-0.756 0.545-0.034-0.039-0.068-0.074-0.107-0.114-0.578 0.483-1.155 0.845-1.732 1.08-0.182 0.183-0.358 0.362-0.539 0.541-0.097 0.15-0.047 0.293 0.004 0.438 0.038-0.039 0.072-0.071 0.104-0.106-0.1-0.54 0.67-0.3 0.89-0.65z" fill="#B4B4B4"/>
			<path d="m233.22 66.925c-0.6-0.977-1.193-1.955-1.828-2.918-31.117 20.008-64.004 41.735-95.54 63.148 33.25-20.12 64.28-40.442 97.37-60.235z" fill="#bbb"/>
			<path d="m131.85 130.3c0.073-0.073 0.142-0.146 0.22-0.22 35.259-17.593 69.125-38.714 104.96-56.53-0.582-1.094-1.205-2.176-1.814-3.254-36.018 20.014-67.311 39.64-103.8 60.002 0.14 0.14 0.28-0.09 0.43 0z" fill="#ACACAC"/>
			<path d="m132.93 129.86c36.416-15.6 70.107-36.156 106.41-51.693-0.738-1.55-1.498-3.088-2.311-4.621-35.84 17.816-69.707 38.938-104.96 56.53 0.28-0.04 0.57 0.04 0.86-0.22z" fill="#A3A3A3"/>
			<path d="m179.34 19.698c-2.711-1.206-5.453-2.316-8.229-3.313-13.788 38.123-27.189 75.227-40.559 111.96 17.9-35.355 31.17-71.55 48.79-108.64z" fill="#E3E3E3"/>
			<path d="m186.52 23.16c-2.359-1.248-4.76-2.38-7.182-3.462-17.618 37.092-30.885 73.287-48.788 108.65-0.602 0.471-0.373 0.937-0.975 1.402-0.039 0.038-0.073 0.075-0.111 0.109 0.072 0.061 0.15 0.114 0.223 0 0.586-0.433 0.621-0.862 1.078-1.297 19.75-32.615 35.19-69.299 55.75-105.4z" fill="#ECECEC"/>
			<path d="m133.58 129.65c37.311-13.924 70.768-33.879 107.45-47.731-0.539-1.257-1.098-2.509-1.688-3.747-36.303 15.537-69.994 36.094-106.41 51.693 0.22 0.08 0.43-0.02 0.65-0.21z" fill="#9B9B9B"/>
			<path d="m242.99 86.699c-0.611-1.608-1.27-3.2-1.963-4.785-36.682 13.853-70.139 33.808-107.45 47.731 36.46-11.12 72.11-30.695 109.41-42.941z" fill="#929292"/>
			<path d="m132.93 129.86c-0.293 0.264-0.581 0.184-0.866 0.216-0.078 0.073-0.146 0.146-0.22 0.22 0.254 0.19 0.509-0.069 0.759-0.109 37.924-10.036 75.297-26.545 112.44-37.736-0.635-1.935-1.316-3.854-2.053-5.751-37.303 12.246-72.947 31.818-109.41 42.946-0.22 0.19-0.43 0.29-0.65 0.21z" fill="#898989"/>
			<path d="m154.56 124.88c26.63-6.091 61.566-17.48 92.796-24.508-0.674-2.661-1.451-5.309-2.307-7.926-37.143 11.191-74.516 27.7-112.44 37.736 7.15-1.44 15.85-3.46 21.95-5.3z" fill="#828282"/>
			<path d="m161.95 13.513c-2.541-0.684-5.091-1.303-7.659-1.821-6.589 38.383-18.643 78.421-24.604 117.74 9.84-38.718 22.29-77.679 32.26-115.92z" fill="#D1D1D1"/>
			<path d="m129.58 129.75c0.602-0.466 0.373-0.932 0.975-1.402 13.37-36.736 26.771-73.84 40.559-111.96-3.024-1.084-6.085-2.031-9.163-2.873-9.966 38.238-22.416 77.199-32.264 115.92-0.08 0.1-0.22 0.21-0.12 0.31z" fill="#D9D9D9"/>
			<path d="m132.6 130.19c-0.25 0.04-0.505 0.3-0.759 0.109-0.143-0.087-0.289 0.145-0.432-0.002-0.22 0.351-0.997 0.104-0.866 0.652 0.47-0.211 0.936-0.008 1.405-0.321 38.113-6.648 77.478-10.344 118.01-16.732-0.611-4.54-1.482-9.05-2.615-13.517-31.23 7.027-66.166 18.417-92.796 24.508-6.08 1.83-14.78 3.85-21.94 5.3z" fill="#7E7E7E"/>
			<path d="m210.02 123.05c12.418-0.048 26.906-1.848 40.568-3.579-0.164-1.862-0.381-3.722-0.627-5.58-40.535 6.389-79.9 10.084-118.01 16.732 27.32-3.77 52.95-4.74 78.07-7.57z" fill="#828282"/>
			<path d="m129.68 129.43c5.962-39.315 18.016-79.354 24.604-117.74-2.191-0.444-4.394-0.845-6.604-1.163-4.498 39.296-14.079 77.049-17.996 116.52-0.312 0.908-0.173 1.806-0.33 2.707 0.038 0.038 0.072 0.073 0.107 0.105 0.038-0.034 0.072-0.071 0.111-0.109-0.09-0.1 0.05-0.21 0.11-0.32z" fill="#C9C9C9"/>
			<path d="m147.68 10.528c-2.191-0.323-4.395-0.571-6.597-0.77-2.276 38.532-9.905 78.488-11.399 117.29 3.92-39.473 13.51-77.226 18-116.52z" fill="#C5C5C5"/>
			<path d="m129.04 129.64c0.107 0.064 0.216 0.207 0.32 0.111 0.157-0.901 0.019-1.799 0.33-2.707 1.494-38.801 9.123-78.757 11.399-117.29-9.347-0.844-18.773-0.606-28.089 0.718 3.547 38.149 13.79 78.304 16.039 117.66-0.22 0.51 0.26 1.01 0 1.51z" fill="#C1C1C1"/>
			<path d="m131.95 130.62c-0.47 0.313-0.936 0.11-1.405 0.321 0.25 0.184 0.512-0.082 0.758 0.104 41.903-4.213 80.567-3.312 119.65-6.196-0.074-1.791-0.197-3.587-0.359-5.382-13.662 1.731-28.15 3.531-40.568 3.579-25.12 2.84-50.75 3.81-78.07 7.58z" fill="#898989"/>
			<path d="m129.04 128.13c-2.249-39.354-12.492-79.508-16.039-117.66-1.541 0.216-3.085 0.491-4.625 0.769 4.471 38.864 17.307 78.452 20.557 116.78 0.02 0.04 0.07 0.08 0.1 0.11z" fill="#C5C5C5"/>
			<path d="m132.71 131.16c40.27-2.675 80.444-0.258 118.34-2.479-0.016-1.273-0.039-2.552-0.096-3.828-39.08 2.885-77.744 1.983-119.65 6.196 0.47 0.17 0.95-0.06 1.41 0.11z" fill="#929292"/>
			<path d="m135.52 131.37c39.837-0.991 78.453 1.756 115.51 0.982 0.02-1.225 0.035-2.449 0.02-3.674-37.893 2.222-78.066-0.195-118.34 2.479 0.94 0.24 1.88 0.1 2.81 0.21z" fill="#9B9B9B"/>
			<path d="m135.52 131.37c39.492 1.885 78.271 4.072 115.35 5.596 0.082-1.537 0.135-3.073 0.158-4.613-37.06 0.77-75.67-1.98-115.51-0.99z" fill="#A3A3A3"/>
			<path d="m132.5 131.59c41.093 3.232 81.765 5.642 118.14 8.632 0.092-1.09 0.174-2.17 0.234-3.256-37.08-1.523-75.859-3.711-115.35-5.596-0.933-0.117-1.872 0.023-2.808-0.212-0.466-0.171-0.939 0.06-1.406-0.111-0.246-0.187-0.508 0.079-0.758-0.104-0.031 0.035-0.065 0.067-0.104 0.106 0.431 0.381 0.857 0.185 1.297 0.431 0.25-0.03 0.5 0.08 0.76 0.11z" fill="#ACACAC"/>
			<path d="m134.77 132.13c35.114 3.89 71.69 6.959 104.12 10.278-0.141-0.228-0.438-0.115-0.326-0.325 1.121 0.591 4.117 1.227 4.875 0.541 2.148 0.789 4.463 1.015 6.832 1.233 0.143-1.211 0.262-2.42 0.361-3.629-36.375-2.99-77.047-5.399-118.14-8.632 0.77 0.27 1.52 0.5 2.28 0.54z" fill="#B4B4B4"/>
			<path d="m238.57 142.08c-0.111 0.21 0.186 0.098 0.326 0.325-32.436-3.319-69.012-6.389-104.12-10.278 0.646 0.349 1.301 0.103 1.944 0.438 30.315 4.714 62.312 7.486 89.855 11.355-0.123-0.182 0.115-0.36 0.107-0.541 6.182 1.334 15.875 2.572 23.223 3.643 0.146-1.057 0.262-2.11 0.377-3.168-2.369-0.219-4.684-0.444-6.832-1.233-0.78 0.69-3.77 0.05-4.89-0.54z" fill="#bbb"/>
			<path d="m226.57 143.92c-27.543-3.869-59.54-6.642-89.855-11.355 1.086 0.251 2.165 0.176 3.243 0.646 37.62 6.862 72.69 9.433 109.56 16.261 0.131-0.816 0.273-1.633 0.387-2.449-7.348-1.07-17.041-2.309-23.223-3.643-0.01 0.18-0.25 0.36-0.12 0.54z" fill="#C1C1C1"/>
			<path d="m249.31 150.63c0.064-0.387 0.135-0.774 0.199-1.161-36.865-6.828-71.936-9.398-109.56-16.261 38.08 7.51 74.73 10.96 109.36 17.42z" fill="#C5C5C5"/>
			<path d="m136.71 132.56c-0.644-0.336-1.298-0.09-1.944-0.438-0.763-0.034-1.514-0.268-2.272-0.533-0.254-0.038-0.505-0.146-0.755-0.11 40.297 10.762 76.426 13.918 116.76 23.443 0.301-1.431 0.563-2.859 0.809-4.294-34.637-6.46-71.281-9.912-109.36-17.422-1.07-0.47-2.15-0.39-3.24-0.65z" fill="#C9C9C9"/>
			<path d="m130.12 131.81c0.031-0.033 0.065-0.067 0.1-0.103 0.217-0.079 0.432 0.025 0.651 0.212 36.915 14.953 72.595 34.605 108.31 50.571 2.119-4.405 3.955-8.915 5.504-13.504-32.811-10.534-69.066-22.665-99.971-33.39 33.061 10.159 67.545 19.413 101.34 29.135 0.963-3.238 1.764-6.51 2.445-9.801-40.336-9.525-76.465-12.682-116.76-23.443-0.439-0.246-0.866-0.05-1.297-0.431-0.004 0.25-0.266 0.505-0.543 0.753 0.038 0.04 0.072 0.073 0.111 0.111 0.03-0.05 0.07-0.08 0.11-0.12z" fill="#D1D1D1"/>
			<path d="m128.93 128.02c-3.25-38.328-16.086-77.916-20.557-116.78-2.434 0.444-4.86 0.947-7.271 1.544 7.434 38.678 21.47 76.726 27.72 115.13 0.04 0.04 0.07 0.08 0.11 0.11z" fill="#C9C9C9"/>
			<path d="m101.1 12.789c-2.699 0.665-5.363 1.448-8.01 2.303 10.76 37.36 25.328 75.349 35.729 112.82-6.25-38.395-20.28-76.443-27.72-115.12z" fill="#D1D1D1"/>
			<path d="m244.69 168.98c0.477-1.413 0.947-2.826 1.371-4.255-33.797-9.722-68.281-18.976-101.34-29.135 30.9 10.74 67.16 22.87 99.97 33.4z" fill="#D9D9D9"/>
			<path d="m133.8 133.76c33.846 14.813 70.092 36.033 103.59 52.361 0.627-1.205 1.209-2.414 1.797-3.633-35.713-15.966-71.393-35.618-108.31-50.571 0.97 0.43 1.94 1.59 2.92 1.84z" fill="#C9C9C9"/>
			<path d="m128.5 128.46c0.266 0.395 0.331 0.793 0.543 1.185 0.258-0.499-0.216-1.006 0-1.51-0.031-0.035-0.077-0.075-0.107-0.108-0.039-0.038-0.074-0.073-0.108-0.109-10.401-37.476-24.97-75.464-35.729-112.82-3.223 1.036-6.408 2.195-9.55 3.507 14.983 37.15 30.057 73.305 44.794 109.63 0.05 0.07 0.1 0.15 0.16 0.23z" fill="#D9D9D9"/>
			<path d="m80.581 33.084c16.641 32.117 29.626 62.954 47.283 94.305 0.135 0.244 0.254 0.483 0.396 0.72 0.022 0.043 0.049 0.079 0.076 0.119-14.74-36.327-29.814-72.481-44.797-109.63-2.899 1.207-5.753 2.531-8.562 3.978 1.652 3.05 3.324 6.112 4.906 9.137 0.244 0.464 0.46 0.913 0.694 1.369z" fill="#E3E3E3"/>
			<path d="m71.551 30.833c0.832 1.336 1.675 2.677 2.483 4.011 0.404 0.666 0.786 1.331 1.183 1.985 0.971 1.613 1.948 3.232 2.888 4.85 0.128 0.22 0.255 0.443 0.386 0.665 17.021 29.171 30.766 58.712 49.585 85.493 0.055 0.087 0.119 0.182 0.178 0.266-0.135-0.23-0.254-0.47-0.389-0.714-17.657-31.351-30.643-62.188-47.283-94.305-0.234-0.456-0.45-0.905-0.693-1.371-1.582-3.024-3.254-6.087-4.906-9.137-2.164 1.109-4.305 2.276-6.419 3.522 0.416 0.65 0.851 1.299 1.263 1.952 0.583 0.914 1.146 1.85 1.719 2.772z" fill="#ECECEC"/>
			<path d="m134.34 134.08c33.6 15.627 67.838 36.294 102.17 53.638 0.293-0.531 0.598-1.057 0.879-1.598-33.496-16.328-69.743-37.549-103.59-52.361 0.18 0.14 0.35 0.43 0.54 0.32z" fill="#C5C5C5"/>
			<path d="m129.04 129.64c-0.212-0.392-0.277-0.79-0.543-1.185-0.051-0.079-0.104-0.158-0.158-0.231-0.027-0.04-0.054-0.076-0.076-0.119l-0.008-0.006c-0.059-0.084-0.123-0.179-0.178-0.266-18.819-26.781-32.563-56.322-49.585-85.493-0.131-0.222-0.258-0.445-0.386-0.665-0.939-1.617-1.917-3.236-2.888-4.85-0.396-0.654-0.778-1.319-1.183-1.985-0.809-1.334-1.651-2.675-2.483-4.011-0.573-0.922-1.136-1.858-1.726-2.782-0.412-0.653-0.847-1.302-1.263-1.952-0.925 0.547-1.825 1.138-2.73 1.707 22.933 33.989 38.795 68.025 62.667 101.73 0.004 0.624 0.631 0.426 0.967 0.323-0.035-0.032-0.069-0.067-0.107-0.105-0.1 0.11-0.2-0.03-0.31-0.1z" fill="#F1F1F1"/>
			<path d="m134.98 134.51c32.922 17.117 66.823 38.446 100.1 55.782 0.488-0.857 0.965-1.711 1.428-2.572-34.332-17.344-68.571-38.011-102.17-53.638 0.21 0.29 0.43 0.4 0.64 0.43z" fill="#C1C1C1"/>
			<path d="m232.93 193.86c0.736-1.18 1.457-2.375 2.146-3.57-33.277-17.336-67.178-38.665-100.1-55.782 33.3 20.1 66.02 40.68 97.95 59.35z" fill="#bbb"/>
			<path d="m134.34 134.08c-0.185 0.114-0.361-0.183-0.539-0.321-0.979-0.246-1.952-1.407-2.923-1.843-0.22-0.187-0.435-0.291-0.651-0.212 0.467 0.464 0.937 0.937 1.406 1.403 0.219-0.252 0.432 0.334 0.65 0.432 33.562 21.678 65.817 41.258 98.663 63.47 0.693-1.037 1.332-2.092 1.99-3.148-31.936-18.669-64.654-39.251-97.954-59.353-0.22-0.03-0.44-0.14-0.65-0.43z" fill="#B4B4B4"/>
			<path d="m133.15 134.4c32.837 22.235 64.315 42.291 96.25 64.819 0.514-0.74 1.053-1.469 1.545-2.217-32.846-22.212-65.101-41.792-98.663-63.47 0.29 0.29 0.58 0.59 0.87 0.87z" fill="#ACACAC"/>
			<path d="m127.09 128.99c0.34 0.458 1.664 0.847 1.303 1.516-0.228 0.194-0.436-0.283-0.655 0.006 0.097 0.3 0.686 0.032 0.428 0.427 0.069 0.077 0.123 0.145 0 0.218 0.042 0.039 0.077 0.071 0.115 0.11 0.108 0.104 0.038 0.213 0.104 0.319 0.042 0.04 0.08 0.079 0.115 0.111 0.069 0.071 0.146 0.146 0.212 0.212 0.181 0.131 0.362 0.006 0.543 0.117 0.034 0.031 0.065 0.066 0.108 0.106 0.111-0.065 0.215-0.216 0.322-0.112 0.035-0.038 0.07-0.072 0.108-0.111 0.034-0.033 0.069-0.069 0.108-0.107 0.277-0.248 0.539-0.503 0.543-0.753-0.051-0.145-0.101-0.287-0.004-0.438-0.031-0.032-0.07-0.071-0.104-0.105-0.069-0.103 0-0.21-0.112-0.321-0.107-0.106-0.219-0.22-0.322-0.328-0.074 0.114-0.146 0.061-0.213 0-0.072 0.114-0.15 0.061-0.223 0-0.336 0.103-0.963 0.301-0.967-0.323-0.104 0.063-0.809-0.787-0.871-1.084-27.068-31.17-43.576-62.78-70.137-94.903-3.602 2.723-7.086 5.673-10.433 8.846 26.694 27.429 49.897 55.1 76.469 82.817-27.624-26.841-55.07-50.036-82.932-76.288-3.451 3.803-6.589 7.782-9.478 11.89 32.307 23.559 65.109 44.408 95.96 68.158z" fill="#FCFCFC"/>
			<path d="m135.53 136.57c0.07-0.063 0.139-0.11 0.217 0 30.006 24.508 59.342 43.926 89.292 68.538 0.689-0.873 1.371-1.752 2.037-2.635-31.404-23.807-61.577-43.569-92.627-66.989l1.08 1.08z" fill="#9B9B9B"/>
			<path d="m134.44 135.48c31.051 23.42 61.223 43.183 92.627 66.989 0.805-1.068 1.564-2.162 2.326-3.246-31.936-22.528-63.414-42.584-96.25-64.819 0.43 0.46 0.86 0.91 1.29 1.08z" fill="#A3A3A3"/>
			<path d="m135.53 136.57c28.652 26.175 57.889 47.251 86.139 72.593 0.52-0.6 1.043-1.191 1.545-1.799-28.063-24.504-58.724-45.438-87.467-70.794-0.09-0.11-0.15-0.07-0.22 0z" fill="#898989"/>
			<path d="m134.44 135.48c-0.431-0.168-0.869-0.624-1.297-1.076-0.289-0.289-0.578-0.58-0.867-0.867-0.219-0.098-0.432-0.684-0.65-0.432 1.225 1.225 2.449 2.449 3.678 3.68 27.896 25.968 56.713 48.437 84.54 74.479 0.629-0.693 1.211-1.406 1.818-2.105-28.25-25.342-57.487-46.418-86.139-72.593-0.36-0.37-0.71-0.72-1.08-1.09z" fill="#828282"/>
			<path d="m140.93 142.19c24.62 24.663 50.433 46.75 75.916 72.24 0.561-0.58 1.115-1.166 1.67-1.76-26.35-25.02-51.23-45.7-77.59-70.48z" fill="#747474"/>
			<path d="m135.31 136.79c-1.229-1.23-2.453-2.455-3.678-3.68-0.47-0.467-0.939-0.939-1.406-1.403-0.034 0.035-0.068 0.069-0.1 0.103 0.139 0.141 0.285 0.287 0.432 0.433 0.385 0.468 1.132 0.94 1.186 1.406 26.949 28.882 48.901 61.697 74.409 90.574 3.285-2.656 6.467-5.504 9.52-8.561 0.404-0.404 0.777-0.822 1.176-1.23-25.482-25.49-51.295-47.577-75.916-72.24-1.87-1.38-3.74-3.67-5.62-5.4z" fill="#6B6B6B"/>
			<path d="m200.1 228.78c2.049-1.453 4.074-2.961 6.045-4.561-25.508-28.877-47.459-61.692-74.409-90.574 25.41 30.43 42.59 63.15 68.37 95.13z" fill="#747474"/>
			<path d="m31.131 60.832c-1.239 1.77-2.43 3.563-3.565 5.382 32.926 20.816 68.035 42.594 99.523 62.78-30.851-23.75-63.653-44.599-95.959-68.158z" fill="#F6F6F6"/>
			<path d="m126.22 129c0.431 0.43 0.865 0.43 1.293 0.858 0.293 0.402 0.582 0.193 0.875 0.651 0.361-0.669-0.963-1.058-1.303-1.516-31.488-20.187-66.598-41.964-99.523-62.78-0.705 1.134-1.402 2.266-2.072 3.41 33.415 19.422 64.539 37.961 96.944 57.102 1.27 1.04 2.53 1.52 3.79 2.28z" fill="#F3F3F3"/>
			<path d="m130.01 131.92c-0.039-0.038-0.073-0.071-0.111-0.111-0.039 0.038-0.074 0.074-0.108 0.107 12.369 36.673 27.712 74.944 41.205 112.08 2.762-0.992 5.492-2.1 8.191-3.297-17.237-36.873-32.61-73.53-48.749-107.69-0.37-0.37-0.42-0.73-0.43-1.09z" fill="#929292"/>
			<path d="m130.56 132.24c-0.146-0.146-0.293-0.292-0.432-0.433-0.043 0.04-0.08 0.078-0.111 0.111 0.012 0.358 0.062 0.725 0.428 1.08 20.71 33.191 35.844 69.944 56.131 104.15 1.779-0.939 3.539-1.928 5.283-2.967-22.213-33.816-38.479-68.842-60.868-101.08-0.27-0.28-0.47-0.57-0.43-0.86z" fill="#828282"/>
			<path d="m130.56 132.24c-0.031 0.293 0.162 0.582 0.432 0.866 23.764 31.055 39.633 66.181 63.795 99.251 1.801-1.139 3.572-2.332 5.322-3.576-25.787-31.977-42.962-64.701-68.364-95.135-0.05-0.46-0.8-0.93-1.18-1.4z" fill="#7A7A7A"/>
			<path d="m14.179 95.961c-0.512 1.75-0.993 3.508-1.42 5.271 36.738 9.814 73.338 17.37 110.33 27.661-37.179-11.44-71.868-21.83-108.91-32.929z" fill="#D1D1D1"/>
			<path d="m125.15 129.64c0.861 0.4 1.725 0.296 2.591 0.872 0.22-0.289 0.428 0.188 0.655-0.006-0.293-0.458-0.582-0.249-0.875-0.651-36.121-12.21-74.4-30.572-109.96-43.731-1.266 3.239-2.406 6.521-3.385 9.842 37.043 11.099 71.732 21.488 108.91 32.933 0.69 0.5 1.38 0.26 2.07 0.75z" fill="#D9D9D9"/>
			<path d="m126.22 129c-34.683-14.651-69.21-34.634-105.16-50.958-1.271 2.655-2.434 5.353-3.497 8.077 35.557 13.159 73.836 31.522 109.95 43.739-0.42-0.43-0.86-0.43-1.29-0.86z" fill="#E3E3E3"/>
			<path d="m179.19 240.69c2.488-1.102 4.957-2.268 7.383-3.543-20.288-34.207-35.421-70.96-56.131-104.15 16.14 34.16 31.51 70.82 48.75 107.69z" fill="#898989"/>
			<path d="m129.68 132.02c-0.042 0.037-0.072 0.072-0.107 0.106 0.111 0.113 0.043 0.22 0.104 0.327 0.035 0.033 0.074 0.075 0.108 0.107 8.669 37.693 23.684 76.573 33.511 113.88 2.584-0.732 5.152-1.551 7.698-2.457-13.493-37.131-28.835-75.402-41.205-112.08-0.02 0.04-0.06 0.08-0.1 0.11z" fill="#9B9B9B"/>
			<path d="m191.86 234.18c0.986-0.582 1.957-1.211 2.928-1.826-24.162-33.07-40.032-68.196-63.795-99.251 22.38 32.24 38.64 67.26 60.86 101.08z" fill="#7E7E7E"/>
			<path d="m122.44 126.73c-32.359-17.01-65.669-37.175-98.36-54.561-1.063 1.938-2.071 3.892-3.02 5.873 35.954 16.324 70.481 36.308 105.16 50.958-1.26-0.76-2.52-1.24-3.78-2.27z" fill="#ECECEC"/>
			<path d="m126.01 130.73c0.725 0.173 1.441 0.127 2.157 0.215 0.258-0.395-0.331-0.127-0.428-0.427-0.612 0.188-1.225-0.42-1.837-0.329-40.874-3.557-77.939-6.237-116.24-9.478-0.112 1.388-0.212 2.774-0.273 4.165 39.237 2.705 75.102 3.646 115.65 5.749 0.32 0.19 0.64-0.06 0.97 0.12z" fill="#A3A3A3"/>
			<path d="m129.68 132.02c-0.107-0.104-0.211 0.047-0.322 0.112 0.419 20.774-0.84 40.109 0.318 58.492-0.831 0.291-0.678 3.143 0.008 3.459-0.573 17.723-1.24 39.17-0.315 56.967 2.642 0.016 5.276-0.059 7.906-0.215-1.552-38.914-7.521-79.216-7.702-118.71 0.02-0.03 0.05-0.07 0.09-0.11z" fill="#bbb"/>
			<path d="m129.58 132.13c0.182 39.493 6.15 79.795 7.702 118.71 2.996-0.172 5.969-0.457 8.942-0.855-4.014-39.465-14.646-78.448-16.541-117.53-0.06-0.1 0.01-0.21-0.1-0.32z" fill="#B4B4B4"/>
			<path d="m25.493 69.624c-0.485 0.842-0.951 1.696-1.413 2.545 32.69 17.386 66.001 37.549 98.357 54.557-32.408-19.15-63.532-37.684-96.947-57.106z" fill="#F1F1F1"/>
			<path d="m128.16 131.16c0.123-0.073 0.069-0.141 0-0.218-0.716-0.088-1.433-0.042-2.157-0.215-31 1.973-65.266 3.021-92.453 3.355-6.396 0.075-16.552-0.023-24.185 0.479 0.065 1.81 0.173 3.62 0.319 5.421 38.252-4.287 78.838-4.048 117.4-8.823 0.37-0.26 0.73-0.26 1.08 0z" fill="#898989"/>
			<path d="m129.69 194.09c-0.686-0.316-0.839-3.168-0.008-3.459-1.158-18.383 0.101-37.718-0.318-58.492-0.39 1.651 0.011 3.312-0.221 4.97-0.615 37.789-4.475 76.335-5.61 113.77 1.948 0.109 3.897 0.17 5.842 0.18-0.92-17.8-0.25-39.25 0.32-56.97z" fill="#C1C1C1"/>
			<path d="m153.78 248.75c3.201-0.637 6.377-1.408 9.523-2.303-9.827-37.307-24.842-76.187-33.511-113.88 4.35 38.28 17.26 78.53 23.99 116.18z" fill="#A3A3A3"/>
			<path d="m123.41 129.65c0.832 0.44 1.664 0.203 2.488 0.541 0.612-0.091 1.225 0.518 1.837 0.329-0.866-0.576-1.729-0.472-2.591-0.872-3.066-0.43-6.135-1.221-9.197-2.269-35.891-7.815-69.129-12.634-104.5-20.164-0.169 0.896-0.3 1.795-0.454 2.688 39.265 8.303 71.747 10.701 111.44 19.422 0.32 0.31 0.65 0.08 0.97 0.32z" fill="#C1C1C1"/>
			<path d="m128.82 133.32c-0.05-0.396 0.247-0.788 0.323-1.185-0.627 0.433-0.932 1.802-1.736 2.594-14.105 36.011-26.83 71.463-40.897 108.18 3.224 1.25 6.485 2.367 9.789 3.332 10.286-37.629 21.908-74.495 32.198-112.16 0.17-0.26 0.05-0.5 0.33-0.76z" fill="#E3E3E3"/>
			<path d="m129.36 132.14c-0.043-0.04-0.074-0.075-0.108-0.106-0.038 0.033-0.069 0.068-0.108 0.106-0.076 0.396-0.373 0.789-0.323 1.185-1.952 38.517-11.024 77.044-14.765 116.65 2.084 0.279 4.171 0.5 6.27 0.674 1.902-38.127 7.417-75.601 8.814-113.54 0.23-1.65-0.17-3.31 0.22-4.96z" fill="#C9C9C9"/>
			<path d="m126.87 131.59c0.15 0.146 0.293-0.087 0.436 0.004 0.292-0.349 0.573-0.093 0.858-0.434-0.351-0.266-0.712-0.262-1.075 0-37.959 6.563-77.831 8.917-116.78 14.659 0.654 5.075 1.637 10.108 2.945 15.082 37.777-8.602 76.096-21.613 112.86-29.2 0.26-0.04 0.5-0.3 0.75-0.11z" fill="#7E7E7E"/>
			<path d="m127.41 134.73c0.805-0.792 1.109-2.161 1.736-2.594 0.039-0.038 0.07-0.073 0.108-0.106-0.181-0.111-0.362 0.014-0.543-0.117-24.034 33.536-41.934 65.948-64.673 99.489 3.061 2.004 6.191 3.852 9.381 5.545 18.365-33.121 33.176-68.573 52.484-99.841 0.74-0.79 0.83-1.58 1.5-2.37z" fill="#F3F3F3"/>
			<path d="m127.74 132.46c-22.116 28.861-54.499 58.763-78.274 87.728 1.668 1.494 3.369 2.932 5.099 4.32 23.429-30.719 51.907-62.679 73.827-92.696l-0.65 0.65z" fill="#F3F3F3"/>
			<path d="m96.301 246.24c3.212 0.934 6.458 1.723 9.72 2.383 6.031-38.361 17.842-77.11 22.479-114.54-10.29 37.67-21.91 74.54-32.199 112.16z" fill="#D9D9D9"/>
			<path d="m125.9 137.11c-17.18 32.6-30.823 68.021-48.141 102.02 2.873 1.387 5.795 2.646 8.749 3.787 14.067-36.719 26.792-72.171 40.897-108.18-0.66 0.78-0.75 1.57-1.5 2.37z" fill="#ECECEC"/>
			<path d="m129.68 132.46c1.895 39.078 12.527 78.062 16.541 117.53 2.529-0.33 5.052-0.736 7.555-1.236-6.727-37.645-19.636-77.897-23.987-116.18-0.03-0.04-0.07-0.08-0.11-0.11z" fill="#ACACAC"/>
			<path d="m126.01 130.73c-0.322-0.18-0.643 0.072-0.97-0.104-25.62 0.485-48.854 0.164-72.345-0.763 0.097 0.143 0.051 0.289 0 0.436-11.741-0.745-23.205-0.447-35.352-0.755-0.416 0.281 0.238 0.535-0.328 0.535-0.157-0.173 0.193-0.358-0.107-0.535-0.731-0.021-1.443 0.021-1.621 0.537 0.089-0.926-1.74-0.507-1.732-0.002 0.088-0.922-1.737-0.505-1.726 0 0.085-0.922-1.745-0.501-1.733 0.002-0.227-0.145-0.512-0.25-0.824-0.335-0.004 1.6 0.039 3.212 0.101 4.819 7.633-0.503 17.788-0.404 24.185-0.479 27.183-0.35 61.449-1.4 92.452-3.37z" fill="#929292"/>
			<path d="m11.826 130.08c-0.012-0.505 1.813-0.922 1.726 0-0.008-0.505 1.821-0.924 1.732 0.002 0.178-0.516 0.89-0.559 1.621-0.537 0.301 0.177-0.05 0.362 0.107 0.535 0.566 0-0.088-0.254 0.328-0.535 12.146 0.308 23.61 0.01 35.352 0.755 0.051-0.146 0.097-0.293 0-0.436 23.491 0.927 46.725 1.248 72.345 0.763-40.547-2.103-76.411-3.044-115.65-5.749-0.069 1.621-0.112 3.244-0.12 4.869 0.313 0.085 0.598 0.19 0.824 0.335-0.013-0.5 1.817-0.93 1.732 0z" fill="#9B9B9B"/>
			<path d="m123.41 129.65c-40.219-4.86-75.352-7.541-113.45-12.301-0.115 1.119-0.211 2.243-0.3 3.364 38.298 3.24 75.363 5.921 116.24 9.478-0.82-0.34-1.66-0.1-2.49-0.54z" fill="#ACACAC"/>
			<path d="m13.251 160.9c0.686 2.647 1.471 5.271 2.346 7.881 37.357-11.372 73.099-27.217 110.52-37.081-36.773 7.59-75.092 20.6-112.87 29.2z" fill="#828282"/>
			<path d="m9.688 139.98c0.158 1.952 0.362 3.896 0.617 5.836 38.952-5.742 78.824-8.097 116.78-14.659-38.554 4.78-79.14 4.54-117.39 8.82z" fill="#828282"/>
			<path d="m73.419 236.95c1.439 0.766 2.884 1.477 4.344 2.178 17.317-33.998 30.961-69.419 48.141-102.02-19.3 31.26-34.116 66.72-52.481 99.84z" fill="#F1F1F1"/>
			<path d="m123.41 134.4c0.221-0.099 0.436-0.686 0.655-0.432 0.358-0.343 0.72-0.61 1.079-0.648 0.219 0.082 0.431-0.403 0.646-0.215 0.611-0.672 1.229-0.879 1.836-1.191 0.221-0.216 0.432-0.432 0.651-0.646-0.038-0.039-0.073-0.071-0.115-0.11-0.285 0.341-0.566 0.085-0.858 0.434-33.369 18.435-69.899 41.461-101.94 58.879 0.682 1.184 1.398 2.348 2.118 3.512 29.825-18.334 63.571-39.838 95.388-59.254 0.18-0.13 0.37-0.43 0.54-0.32z" fill="#B4B4B4"/>
			<path d="m125.15 129.64c-0.686-0.497-1.375-0.255-2.053-0.75-36.996-10.291-73.596-17.847-110.33-27.661-0.316 1.282-0.578 2.574-0.863 3.868 33.33 8.176 69.279 13.592 104.05 22.274 3.05 1.05 6.12 1.84 9.19 2.27z" fill="#C9C9C9"/>
			<path d="m120.33 250.65c1.066 0.086 2.137 0.166 3.204 0.227 1.136-37.434 4.995-75.979 5.61-113.77-1.4 37.94-6.91 75.41-8.81 113.54z" fill="#C5C5C5"/>
			<path d="m128.5 134.08c-4.637 37.434-16.447 76.183-22.479 114.54 2.665 0.541 5.346 0.988 8.037 1.348 3.74-39.609 12.813-78.137 14.765-116.65-0.28 0.26-0.16 0.5-0.32 0.76z" fill="#D1D1D1"/>
			<path d="m27.488 193.98c0.644 1.027 1.271 2.059 1.948 3.076 30.107-20.723 62.267-40.604 93.439-62.33-31.82 19.42-65.567 40.92-95.392 59.25z" fill="#bbb"/>
			<path d="m126.87 131.59c-0.069 0.073-0.139 0.145-0.216 0.218-34.778 17.568-68.315 37.851-102.92 55.731 0.527 0.979 1.07 1.961 1.633 2.934 32.036-17.418 68.566-40.444 101.94-58.879-0.14-0.09-0.28 0.15-0.43 0z" fill="#ACACAC"/>
			<path d="m125.79 132.02c0.289-0.26 0.578-0.181 0.862-0.217 0.077-0.073 0.146-0.145 0.216-0.218-0.246-0.188-0.493 0.075-0.755 0.111-37.42 9.864-73.161 25.709-110.52 37.081 0.658 1.968 1.371 3.922 2.133 5.863 36.045-12.595 71.832-31.412 107.74-42.511 0.11-0.04 0.21-0.2 0.32-0.1z" fill="#898989"/>
			<path d="m122.44 129.32c-39.526-6.545-75.333-9.853-112.04-15.617-0.166 1.205-0.309 2.426-0.436 3.641 38.098 4.76 73.23 7.44 113.45 12.301-0.32-0.23-0.65 0-0.97-0.32z" fill="#B4B4B4"/>
			<path d="m125.79 132.02c-35.654 15.32-70.02 35.95-104.44 50.84 0.759 1.574 1.552 3.135 2.388 4.682 34.602-17.881 68.139-38.163 102.92-55.731-0.29 0.03-0.58-0.05-0.87 0.21z" fill="#A3A3A3"/>
			<path d="m125.47 132.14c-36.926 13.907-69.803 32.964-105.74 47.249 0.52 1.169 1.056 2.32 1.617 3.474 34.42-14.886 68.786-35.514 104.44-50.833-0.11-0.11-0.21 0.05-0.32 0.11z" fill="#9B9B9B"/>
			<path d="m17.729 174.65c0.624 1.585 1.298 3.166 2.003 4.738 35.937-14.285 68.813-33.342 105.74-47.249-35.908 11.09-71.696 29.91-107.74 42.51z" fill="#929292"/>
			<path d="m10.994 109.9c-0.212 1.269-0.419 2.531-0.597 3.805 36.707 5.765 72.514 9.072 112.04 15.617-39.699-8.72-72.181-11.12-111.45-19.42z" fill="#bbb"/>
			<path d="m124.07 133.97c-31.081 24.463-61.942 43.627-92.396 66.3 0.592 0.826 1.193 1.65 1.805 2.469 31.178-25.029 60.695-42.888 91.67-69.417-0.36 0.04-0.73 0.31-1.08 0.65z" fill="#C9C9C9"/>
			<path d="m11.896 105.1c-0.139 0.707-0.309 1.408-0.447 2.11 35.371 7.53 68.609 12.349 104.5 20.164-34.775-8.68-70.724-14.09-104.05-22.27z" fill="#C5C5C5"/>
			<path d="m123.41 134.4c-29.806 22.461-62.073 42.859-92.623 64.599 0.293 0.42 0.586 0.848 0.883 1.27 30.453-22.673 61.314-41.837 92.396-66.3-0.22-0.25-0.44 0.33-0.66 0.43z" fill="#C5C5C5"/>
			<path d="m122.88 134.73c-31.173 21.726-63.332 41.607-93.439 62.33 0.436 0.654 0.909 1.293 1.352 1.941 30.55-21.739 62.817-42.138 92.623-64.599-0.18-0.11-0.37 0.19-0.54 0.33z" fill="#C1C1C1"/>
			<path d="m220.99 50.388c-1.285-1.471-2.619-2.905-3.994-4.324-28.408 30.397-61.061 54.965-86.658 84.446 0.034 0.034 0.073 0.073 0.104 0.105 0.181-0.179 0.357-0.358 0.539-0.541 29.61-30.37 60.22-50.577 90.01-79.692z" fill="#E3E3E3"/>
			<path d="m130.98 130.07c0.577-0.235 1.154-0.597 1.732-1.08 29.43-27.54 60.918-47.477 91.764-74.487-1.119-1.393-2.287-2.762-3.488-4.119-29.78 29.119-60.39 49.326-90 79.686z" fill="#D9D9D9"/>
			<path d="m63.032 29.601c23.656 32.43 39.623 66.179 64.596 98.853 0.063 0.297 0.768 1.147 0.871 1.084-23.87-33.699-39.735-67.735-62.668-101.72-0.939 0.586-1.883 1.17-2.8 1.791z" fill="#F3F3F3"/>
			<path d="m223.21 207.36c0.627-0.748 1.225-1.502 1.824-2.256-29.949-24.612-59.286-44.03-89.292-68.538 28.75 25.36 59.41 46.3 87.47 70.8z" fill="#929292"/>
			<path d="m140.93 142.19c26.36 24.785 51.238 45.463 77.585 70.48 0.443-0.475 0.902-0.93 1.332-1.402-27.826-26.043-56.643-48.512-84.54-74.479 1.88 1.73 3.75 4.02 5.62 5.4z" fill="#7A7A7A"/>
			<path d="m134.66 127.92c30.941-23.86 62.559-44.827 94.463-67.199-0.588-0.842-1.17-1.683-1.787-2.513-31.322 23.533-62.57 44.265-93.762 70.357 0.37 0.27 0.73-0.91 1.09-0.64z" fill="#C9C9C9"/>
			<path d="m125.15 133.32c-30.975 26.529-60.492 44.388-91.67 69.417 0.786 1.035 1.58 2.07 2.4 3.092 29.274-25.03 60.722-45.662 89.916-72.724-0.22-0.19-0.44 0.29-0.65 0.21z" fill="#D1D1D1"/>
			<path d="m128.38 131.59c-0.066-0.106 0.004-0.216-0.104-0.319-0.22 0.215-0.431 0.431-0.651 0.646-29.047 29.764-59.084 49.89-88.283 78.013 1.287 1.469 2.619 2.912 4.002 4.33 27.697-29.46 59.431-53.65 85.031-82.67z" fill="#E3E3E3"/>
			<path d="m47.29 218.15c0.724 0.674 1.439 1.375 2.172 2.035 23.775-28.965 56.158-58.866 78.274-87.728-22.47 27.78-55.434 57.11-80.45 85.7z" fill="#F1F1F1"/>
			<path d="m128.5 131.7c-0.039 0.037-0.073 0.071-0.111 0.108-21.92 30.018-50.398 61.978-73.827 92.696 3.073 2.469 6.238 4.775 9.478 6.896 22.739-33.541 40.639-65.953 64.673-99.489-0.06-0.07-0.14-0.15-0.21-0.22z" fill="#F6F6F6"/>
			<path d="m135.85 127.16c31.535-21.413 64.422-43.141 95.54-63.148-0.539-0.832-1.117-1.646-1.688-2.47-31.574 22.858-62.42 41.929-94.395 65.947 0.19 0.11 0.37-0.19 0.55-0.33z" fill="#C1C1C1"/>
			<path d="m128.39 131.81c0.038-0.037 0.072-0.071 0.111-0.108-0.035-0.032-0.073-0.071-0.115-0.111-25.602 29.019-57.338 53.211-85.037 82.67 0.446 0.463 0.87 0.941 1.328 1.402 0.855 0.855 1.74 1.662 2.615 2.488 25.016-28.594 57.977-57.925 80.446-85.692 0.23-0.22 0.44-0.43 0.66-0.65z" fill="#ECECEC"/>
			<path d="m57.491 33.55c26.561 32.123 43.068 63.733 70.137 94.903-24.97-32.671-40.942-66.42-64.598-98.849-1.879 1.255-3.727 2.578-5.541 3.949z" fill="#F6F6F6"/>
			<path d="m127.63 131.92c-0.607 0.313-1.225 0.52-1.836 1.191-29.194 27.062-60.642 47.693-89.916 72.724 1.116 1.391 2.275 2.744 3.469 4.098 29.201-28.12 59.238-48.25 88.287-78.01z" fill="#D9D9D9"/>
		<path d="m128.3 128c0.382 0.412 1.745 0.652 1.46 1.359-0.197 0.219-0.459-0.231-0.647 0.074 0.135 0.289 0.686-0.04 0.478 0.38 0.065 0.067 0.131 0.131 0.023 0.214 0.042 0.032 0.076 0.063 0.123 0.098 0.115 0.093 0.062 0.21 0.139 0.307 0.042 0.034 0.084 0.065 0.123 0.094 0.081 0.068 0.162 0.133 0.242 0.191 0.189 0.104 0.358-0.037 0.547 0.052 0.039 0.026 0.078 0.063 0.119 0.097 0.101-0.074 0.186-0.237 0.309-0.148 0.031-0.039 0.065-0.077 0.1-0.119 0.027-0.037 0.063-0.08 0.094-0.122 0.25-0.279 0.48-0.558 0.453-0.807-0.064-0.141-0.131-0.275-0.045-0.433-0.039-0.033-0.086-0.066-0.12-0.093-0.081-0.101-0.026-0.218-0.15-0.307-0.115-0.1-0.239-0.196-0.362-0.294-0.057 0.121-0.135 0.076-0.211 0.024-0.055 0.122-0.131 0.075-0.216 0.027-0.323 0.133-0.921 0.406-0.997-0.214-0.101 0.073-0.898-0.695-0.982-0.982-30.393-27.94-50.34-57.506-80.324-86.452-3.28 3.108-6.407 6.434-9.381 9.957 29.596 24.271 55.755 49.171 85.262 73.732" fill="#F6F6F6"/>
		<path id="bgColor00" d="m133.66 100.53l7.051-91.082h-4.91c-1.848 0.097-3.723 0.164-5.641 0.164-1.922 0-3.797-0.067-5.643-0.164h-4.91l5.812 91.082h8.24z" fill="#f00"/>
		<path opacity=".4" d="m131.37 97.846l-2.808-0.281-4.768-84.742c-0.358-0.018-3.65-3.087-3.65-3.087l5.279 90.799h8.241l-2.29-2.694z"/>
</svg>
