<?xml version="1.0" encoding="UTF-8" standalone="no"?>
<svg xmlns:rdf="http://www.w3.org/1999/02/22-rdf-syntax-ns#" xmlns="http://www.w3.org/2000/svg" height="31" width="179" version="1.0" xmlns:cc="http://creativecommons.org/ns#" xmlns:dc="http://purl.org/dc/elements/1.1/">
 <g transform="matrix(0 1 -.99175 0 177.42 .090757)">
  <path id="bgColor00" fill="#f00" d="m15.582 178.47c-4.012 0-7.783-1.56-10.619-4.4-2.835-2.83-4.398-6.6-4.398-10.62-0.002-5.38 11.593-148.84 13.655-162.89l2.723 0.003c2.059 14.036 13.653 157.5 13.653 162.89 0 4.01-1.561 7.78-4.396 10.62-2.837 2.84-6.609 4.4-10.618 4.4z"/>
  <path fill="#fff" d="m17.424 0c1.699 10.046 13.736 156.59 13.736 163.45 0.001 8.61-6.975 15.58-15.58 15.58h-0.004c-8.604 0-15.575-6.98-15.577-15.58 0-6.81 12.039-153.4 13.739-163.45h3.686m-0.972 1.128h-1.741c-2.229 16.474-13.585 156.99-13.583 162.32 0.001 7.97 6.483 14.45 14.449 14.45 3.864 0 7.494-1.5 10.224-4.23 2.729-2.73 4.233-6.36 4.232-10.22 0-5.33-11.354-145.84-13.581-162.32v-0.002z"/>
  <path fill="#fff" d="m20.438 163.45c0-1.74-0.93-3.26-2.313-4.12-0.3-23.15-1.606-119.58-1.858-121.06l-1.371-0.003c-0.252 1.486-1.561 97.903-1.859 121.06-1.384 0.86-2.314 2.38-2.314 4.12 0 2.69 2.178 4.86 4.857 4.86 2.683 0 4.858-2.17 4.858-4.86zm-6.331 1.42c-0.739-0.74-0.723-1.95 0.035-2.71 0.757-0.76 1.971-0.77 2.71-0.03 0.738 0.73 0.723 1.95-0.034 2.71-0.759 0.75-1.972 0.77-2.711 0.03z"/>
 </g>
</svg>
