<?xml version="1.0" encoding="UTF-8" standalone="no"?>
<svg xmlns="http://www.w3.org/2000/svg" xml:space="preserve" height="73.066" width="30.832" version="1.1" viewBox="0 0 30.832 73.066">
<path id="bgColor00" fill="#f00" d="m30.328 72.637h-12.977l-0.014-0.421c-0.586-21.563-1.326-46.905-1.564-50.201l-0.712 0.002c-0.195 2.706-0.761 20.751-1.568 50.199l-0.013 0.421h-12.976l0.079-0.499c3.578-22.801 11.017-67.233 12.432-71.409l0.098-0.295h0.311l3.992-0.002h0.311l0.099 0.295c1.413 4.177 8.849 48.611 12.425 71.412l0.077 0.498z"/>
<path fill="#fff" d="m17.416 0.864c1.332 3.941 8.537 46.683 12.406 71.341h-12.052c-0.543-20.017-1.405-50.012-1.608-50.621l-1.482 0.002c-0.209 0.607-1.066 30.604-1.617 50.619h-12.053c3.871-24.66 11.08-67.4 12.412-71.339l3.994-0.002m0.619-0.864h-0.62l-3.994 0.002h-0.619l-0.198 0.587c-1.418 4.197-8.866 48.665-12.448 71.481l-0.156 0.997h13.901l0.023-0.84c0.724-26.28 1.252-43.495 1.494-48.782 0.281 6.162 0.918 27.76 1.488 48.782l0.021 0.84h13.905l-0.156-0.997c-3.58-22.816-11.024-67.286-12.442-71.483l-0.199-0.587z"/>
<path fill="#fff" d="m14.678 21.584c-0.209 0.607-1.066 30.604-1.617 50.619h4.708c-0.543-20.017-1.405-50.012-1.608-50.621l-1.483 0.002z"/>
</svg>
